G04 Layer_Color=32896*
%FSLAX25Y25*%
%MOIN*%
G70*
G01*
G75*
%ADD23C,0.00787*%
%ADD274C,0.01000*%
%ADD275C,0.00800*%
D23*
X2000Y92000D02*
Y102000D01*
Y92000D02*
X162000D01*
X2000Y102000D02*
X154500D01*
X162000Y92000D02*
Y102000D01*
X154500D02*
X162000D01*
X2000Y2000D02*
Y12000D01*
Y2000D02*
X162000D01*
X2000Y12000D02*
X154500D01*
X162000Y2000D02*
Y12000D01*
X154500D02*
X162000D01*
X5118Y41831D02*
X14567D01*
X5118D02*
Y59547D01*
X9843D01*
X14567Y41831D02*
Y59547D01*
X9843D02*
X14567D01*
X43307Y78739D02*
X41995D01*
X42651D01*
Y74803D01*
X43307D01*
X41995D01*
X37404Y78083D02*
X38059Y78739D01*
X39371D01*
X40027Y78083D01*
Y75459D01*
X39371Y74803D01*
X38059D01*
X37404Y75459D01*
X36092Y74803D02*
X34780D01*
X35436D01*
Y78739D01*
X36092Y78083D01*
X64856Y70222D02*
X65512Y70877D01*
X66824D01*
X67479Y70222D01*
Y67598D01*
X66824Y66942D01*
X65512D01*
X64856Y67598D01*
X63544Y70877D02*
X60920D01*
Y70222D01*
X63544Y67598D01*
Y66942D01*
X77056Y63222D02*
X77712Y63877D01*
X79024D01*
X79680Y63222D01*
Y60598D01*
X79024Y59942D01*
X77712D01*
X77056Y60598D01*
X73120Y63877D02*
X74432Y63222D01*
X75744Y61910D01*
Y60598D01*
X75088Y59942D01*
X73776D01*
X73120Y60598D01*
Y61254D01*
X73776Y61910D01*
X75744D01*
X24256Y20522D02*
X24912Y21178D01*
X26224D01*
X26880Y20522D01*
Y17898D01*
X26224Y17242D01*
X24912D01*
X24256Y17898D01*
X20320Y17242D02*
X22944D01*
X20320Y19865D01*
Y20522D01*
X20976Y21178D01*
X22288D01*
X22944Y20522D01*
X8956Y24122D02*
X9612Y24778D01*
X10924D01*
X11580Y24122D01*
Y21498D01*
X10924Y20842D01*
X9612D01*
X8956Y21498D01*
X7644Y20842D02*
X6332D01*
X6988D01*
Y24778D01*
X7644Y24122D01*
X11556Y66677D02*
X14179D01*
Y64710D01*
X12868D01*
X14179D01*
Y62742D01*
X10244D02*
X8932D01*
X9588D01*
Y66677D01*
X10244Y66022D01*
D274*
X25122Y24520D02*
Y35520D01*
X17323Y35618D02*
X27421D01*
X17323Y24422D02*
X27421D01*
D275*
X15840Y48909D02*
Y62909D01*
Y48909D02*
X41640D01*
X15840Y62909D02*
X41640D01*
Y48909D02*
Y62909D01*
M02*
