G04 Layer_Color=65535*
%FSLAX25Y25*%
%MOIN*%
G70*
G01*
G75*
%ADD23C,0.00787*%
%ADD36C,0.00984*%
%ADD37C,0.00394*%
%ADD38C,0.00500*%
%ADD39C,0.00591*%
%ADD40R,0.00984X0.00984*%
%ADD41R,0.25000X0.00090*%
%ADD42R,0.25000X0.00091*%
%ADD43R,0.01460X0.00091*%
%ADD44R,0.00630X0.00091*%
%ADD45R,0.01360X0.00091*%
%ADD46R,0.01270X0.00091*%
%ADD47R,0.00550X0.00091*%
%ADD48R,0.00360X0.00091*%
%ADD49R,0.02000X0.00091*%
%ADD50R,0.01540X0.00091*%
%ADD51R,0.02270X0.00091*%
%ADD52R,0.00180X0.00091*%
%ADD53R,0.01450X0.00091*%
%ADD54R,0.01090X0.00091*%
%ADD55R,0.00270X0.00091*%
%ADD56R,0.00540X0.00091*%
%ADD57R,0.00090X0.00091*%
%ADD58R,0.01730X0.00091*%
%ADD59R,0.01180X0.00091*%
%ADD60R,0.01820X0.00091*%
%ADD61R,0.00910X0.00091*%
%ADD62R,0.00450X0.00091*%
%ADD63R,0.01550X0.00091*%
%ADD64R,0.01000X0.00091*%
%ADD65R,0.01460X0.00090*%
%ADD66R,0.00630X0.00090*%
%ADD67R,0.01360X0.00090*%
%ADD68R,0.00820X0.00090*%
%ADD69R,0.00450X0.00090*%
%ADD70R,0.01270X0.00090*%
%ADD71R,0.01450X0.00090*%
%ADD72R,0.00730X0.00091*%
%ADD73R,0.00820X0.00091*%
%ADD74R,0.00640X0.00091*%
%ADD75R,0.00370X0.00091*%
%ADD76R,0.02540X0.00091*%
%ADD77R,0.00810X0.00091*%
%ADD78R,0.00720X0.00091*%
%ADD79R,0.01280X0.00091*%
%ADD80R,0.02730X0.00091*%
%ADD81R,0.02540X0.00090*%
%ADD82R,0.00640X0.00090*%
%ADD83R,0.00910X0.00090*%
%ADD84R,0.00730X0.00090*%
%ADD85R,0.00720X0.00090*%
%ADD86R,0.02820X0.00090*%
%ADD87R,0.01370X0.00091*%
%ADD88R,0.02640X0.00091*%
%ADD89R,0.02550X0.00091*%
%ADD90R,0.01190X0.00091*%
%ADD91R,0.01000X0.00090*%
%ADD92R,0.02550X0.00090*%
%ADD93R,0.01090X0.00090*%
%ADD94R,0.00810X0.00090*%
%ADD95R,0.01100X0.00090*%
%ADD96R,0.01100X0.00091*%
%ADD97R,0.00280X0.00091*%
%ADD98R,0.01810X0.00091*%
%ADD99R,0.09450X0.00091*%
%ADD100R,0.03000X0.00091*%
%ADD101R,0.06630X0.00091*%
%ADD102R,0.09450X0.00090*%
%ADD103R,0.03000X0.00090*%
%ADD104R,0.06630X0.00090*%
%ADD105R,0.07540X0.00091*%
%ADD106R,0.07540X0.00090*%
%ADD107R,0.11730X0.00091*%
%ADD108R,0.12100X0.00091*%
%ADD109R,0.03360X0.00091*%
%ADD110R,0.07000X0.00091*%
%ADD111R,0.18730X0.00091*%
%ADD112R,0.05810X0.00091*%
%ADD113R,0.18640X0.00091*%
%ADD114R,0.05720X0.00091*%
%ADD115R,0.18550X0.00091*%
%ADD116R,0.05630X0.00091*%
%ADD117R,0.18460X0.00091*%
%ADD118R,0.05540X0.00091*%
%ADD119R,0.18370X0.00091*%
%ADD120R,0.05450X0.00091*%
%ADD121R,0.18280X0.00091*%
%ADD122R,0.05360X0.00091*%
%ADD123R,0.18190X0.00090*%
%ADD124R,0.05360X0.00090*%
%ADD125R,0.18190X0.00091*%
%ADD126R,0.05270X0.00091*%
%ADD127R,0.18100X0.00091*%
%ADD128R,0.05180X0.00091*%
%ADD129R,0.18000X0.00091*%
%ADD130R,0.05090X0.00091*%
%ADD131R,0.17910X0.00091*%
%ADD132R,0.05000X0.00091*%
%ADD133R,0.17820X0.00091*%
%ADD134R,0.04900X0.00091*%
%ADD135R,0.17730X0.00091*%
%ADD136R,0.04810X0.00091*%
%ADD137R,0.17640X0.00091*%
%ADD138R,0.17550X0.00091*%
%ADD139R,0.04720X0.00091*%
%ADD140R,0.00460X0.00091*%
%ADD141R,0.04630X0.00091*%
%ADD142R,0.17460X0.00091*%
%ADD143R,0.04540X0.00091*%
%ADD144R,0.17370X0.00090*%
%ADD145R,0.04450X0.00090*%
%ADD146R,0.17280X0.00091*%
%ADD147R,0.04360X0.00091*%
%ADD148R,0.17190X0.00091*%
%ADD149R,0.04270X0.00091*%
%ADD150R,0.17100X0.00091*%
%ADD151R,0.17000X0.00091*%
%ADD152R,0.04180X0.00091*%
%ADD153R,0.16910X0.00091*%
%ADD154R,0.04090X0.00091*%
%ADD155R,0.01720X0.00091*%
%ADD156R,0.04000X0.00091*%
%ADD157R,0.16820X0.00091*%
%ADD158R,0.03900X0.00091*%
%ADD159R,0.16730X0.00091*%
%ADD160R,0.03810X0.00091*%
%ADD161R,0.16640X0.00091*%
%ADD162R,0.02180X0.00091*%
%ADD163R,0.03720X0.00091*%
%ADD164R,0.16550X0.00091*%
%ADD165R,0.02280X0.00091*%
%ADD166R,0.16460X0.00090*%
%ADD167R,0.02460X0.00090*%
%ADD168R,0.03630X0.00090*%
%ADD169R,0.16370X0.00091*%
%ADD170R,0.03540X0.00091*%
%ADD171R,0.16280X0.00091*%
%ADD172R,0.02820X0.00091*%
%ADD173R,0.03450X0.00091*%
%ADD174R,0.02910X0.00091*%
%ADD175R,0.16190X0.00091*%
%ADD176R,0.03090X0.00091*%
%ADD177R,0.03270X0.00091*%
%ADD178R,0.16100X0.00091*%
%ADD179R,0.03180X0.00091*%
%ADD180R,0.16000X0.00091*%
%ADD181R,0.15910X0.00091*%
%ADD182R,0.15820X0.00091*%
%ADD183R,0.15730X0.00091*%
%ADD184R,0.03910X0.00091*%
%ADD185R,0.02900X0.00091*%
%ADD186R,0.02810X0.00091*%
%ADD187R,0.15640X0.00090*%
%ADD188R,0.04180X0.00090*%
%ADD189R,0.02720X0.00090*%
%ADD190R,0.15550X0.00091*%
%ADD191R,0.04370X0.00091*%
%ADD192R,0.02630X0.00091*%
%ADD193R,0.15460X0.00091*%
%ADD194R,0.04550X0.00091*%
%ADD195R,0.15370X0.00091*%
%ADD196R,0.04730X0.00091*%
%ADD197R,0.15280X0.00091*%
%ADD198R,0.04820X0.00091*%
%ADD199R,0.02450X0.00091*%
%ADD200R,0.15190X0.00091*%
%ADD201R,0.02360X0.00091*%
%ADD202R,0.15100X0.00091*%
%ADD203R,0.15000X0.00091*%
%ADD204R,0.14910X0.00091*%
%ADD205R,0.02090X0.00091*%
%ADD206R,0.14820X0.00091*%
%ADD207R,0.05820X0.00091*%
%ADD208R,0.14730X0.00090*%
%ADD209R,0.05910X0.00090*%
%ADD210R,0.01900X0.00090*%
%ADD211R,0.14640X0.00091*%
%ADD212R,0.06090X0.00091*%
%ADD213R,0.06180X0.00091*%
%ADD214R,0.06370X0.00091*%
%ADD215R,0.06550X0.00091*%
%ADD216R,0.06730X0.00091*%
%ADD217R,0.06910X0.00091*%
%ADD218R,0.07090X0.00091*%
%ADD219R,0.07180X0.00091*%
%ADD220R,0.07270X0.00091*%
%ADD221R,0.07630X0.00091*%
%ADD222R,0.09000X0.00091*%
%ADD223R,0.03820X0.00091*%
%ADD224R,0.03460X0.00091*%
%ADD225R,0.03280X0.00091*%
%ADD226R,0.01550X0.00090*%
%ADD227R,0.01540X0.00090*%
%ADD228R,0.02090X0.00090*%
%ADD229R,0.01720X0.00090*%
%ADD230R,0.01910X0.00091*%
%ADD231R,0.01640X0.00091*%
%ADD232R,0.01630X0.00091*%
%ADD233R,0.00900X0.00090*%
%ADD234R,0.01640X0.00090*%
%ADD235R,0.01730X0.00090*%
%ADD236R,0.01900X0.00091*%
%ADD237R,0.01810X0.00090*%
%ADD238R,0.01820X0.00090*%
%ADD239R,0.02360X0.00090*%
%ADD240R,0.02270X0.00090*%
%ADD241R,0.00190X0.00091*%
%ADD242R,0.03100X0.00091*%
%ADD243R,0.12090X0.00091*%
%ADD244R,0.09000X0.00090*%
%ADD245R,0.12090X0.00090*%
%ADD246R,0.09370X0.00091*%
%ADD247R,0.12450X0.00091*%
%ADD248R,0.09730X0.00091*%
%ADD249R,0.12810X0.00091*%
G36*
X75020Y21892D02*
Y21855D01*
Y21818D01*
Y21781D01*
Y21744D01*
Y21707D01*
Y21669D01*
Y21632D01*
Y21595D01*
Y21558D01*
Y21521D01*
Y21484D01*
Y21446D01*
Y21409D01*
Y21372D01*
Y21335D01*
Y21298D01*
Y21260D01*
Y21223D01*
Y21186D01*
Y21149D01*
Y21112D01*
Y21075D01*
Y21037D01*
Y21000D01*
Y20963D01*
Y20926D01*
Y20889D01*
Y20852D01*
Y20814D01*
Y20777D01*
Y20740D01*
Y20703D01*
Y20666D01*
Y20628D01*
Y20591D01*
Y20554D01*
Y20517D01*
Y20480D01*
Y20443D01*
Y20405D01*
Y20368D01*
Y20331D01*
Y20294D01*
Y20257D01*
Y20220D01*
Y20182D01*
Y20145D01*
Y20108D01*
Y20071D01*
Y20034D01*
Y19997D01*
Y19959D01*
Y19922D01*
Y19885D01*
Y19848D01*
Y19811D01*
X73607D01*
Y19848D01*
Y19885D01*
Y19922D01*
Y19959D01*
Y19997D01*
Y20034D01*
Y20071D01*
Y20108D01*
Y20145D01*
Y20182D01*
Y20220D01*
Y20257D01*
Y20294D01*
Y20331D01*
Y20368D01*
Y20405D01*
Y20443D01*
Y20480D01*
Y20517D01*
Y20554D01*
Y20591D01*
Y20628D01*
Y20666D01*
Y20703D01*
Y20740D01*
Y20777D01*
Y20814D01*
Y20852D01*
Y20889D01*
Y20926D01*
Y20963D01*
Y21000D01*
Y21037D01*
Y21075D01*
Y21112D01*
Y21149D01*
Y21186D01*
Y21223D01*
Y21260D01*
Y21298D01*
Y21335D01*
Y21372D01*
Y21409D01*
Y21446D01*
Y21484D01*
Y21521D01*
Y21558D01*
Y21595D01*
Y21632D01*
Y21669D01*
Y21707D01*
Y21744D01*
Y21781D01*
Y21818D01*
Y21855D01*
Y21892D01*
Y21930D01*
X75020D01*
Y21892D01*
D02*
G37*
G36*
X72232D02*
X72269D01*
Y21855D01*
Y21818D01*
Y21781D01*
Y21744D01*
Y21707D01*
Y21669D01*
Y21632D01*
Y21595D01*
Y21558D01*
Y21521D01*
Y21484D01*
Y21446D01*
Y21409D01*
Y21372D01*
Y21335D01*
Y21298D01*
Y21260D01*
Y21223D01*
Y21186D01*
Y21149D01*
Y21112D01*
Y21075D01*
Y21037D01*
Y21000D01*
Y20963D01*
Y20926D01*
Y20889D01*
Y20852D01*
Y20814D01*
Y20777D01*
Y20740D01*
Y20703D01*
Y20666D01*
Y20628D01*
Y20591D01*
Y20554D01*
Y20517D01*
Y20480D01*
Y20443D01*
Y20405D01*
Y20368D01*
Y20331D01*
Y20294D01*
Y20257D01*
Y20220D01*
Y20182D01*
Y20145D01*
Y20108D01*
Y20071D01*
Y20034D01*
Y19997D01*
Y19959D01*
Y19922D01*
Y19885D01*
Y19848D01*
X72232D01*
Y19811D01*
X68068D01*
Y19848D01*
Y19885D01*
Y19922D01*
Y19959D01*
Y19997D01*
Y20034D01*
Y20071D01*
Y20108D01*
Y20145D01*
Y20182D01*
Y20220D01*
Y20257D01*
Y20294D01*
Y20331D01*
Y20368D01*
Y20405D01*
Y20443D01*
Y20480D01*
Y20517D01*
Y20554D01*
Y20591D01*
Y20628D01*
Y20666D01*
Y20703D01*
Y20740D01*
Y20777D01*
Y20814D01*
Y20852D01*
Y20889D01*
Y20926D01*
Y20963D01*
Y21000D01*
Y21037D01*
Y21075D01*
Y21112D01*
Y21149D01*
Y21186D01*
Y21223D01*
Y21260D01*
Y21298D01*
Y21335D01*
Y21372D01*
Y21409D01*
Y21446D01*
Y21484D01*
Y21521D01*
Y21558D01*
Y21595D01*
Y21632D01*
Y21669D01*
Y21707D01*
Y21744D01*
Y21781D01*
Y21818D01*
Y21855D01*
Y21892D01*
Y21930D01*
X72232D01*
Y21892D01*
D02*
G37*
G36*
X83310D02*
Y21855D01*
Y21818D01*
Y21781D01*
Y21744D01*
Y21707D01*
Y21669D01*
Y21632D01*
Y21595D01*
Y21558D01*
Y21521D01*
Y21484D01*
Y21446D01*
Y21409D01*
Y21372D01*
Y21335D01*
Y21298D01*
Y21260D01*
Y21223D01*
Y21186D01*
Y21149D01*
Y21112D01*
Y21075D01*
Y21037D01*
Y21000D01*
Y20963D01*
Y20926D01*
Y20889D01*
Y20852D01*
Y20814D01*
Y20777D01*
Y20740D01*
Y20703D01*
Y20666D01*
Y20628D01*
Y20591D01*
Y20554D01*
Y20517D01*
Y20480D01*
Y20443D01*
Y20405D01*
Y20368D01*
Y20331D01*
Y20294D01*
Y20257D01*
Y20220D01*
Y20182D01*
Y20145D01*
Y20108D01*
Y20071D01*
Y20034D01*
Y19997D01*
Y19959D01*
Y19922D01*
Y19885D01*
Y19848D01*
Y19811D01*
X79146D01*
Y19848D01*
X79109D01*
Y19885D01*
Y19922D01*
Y19959D01*
Y19997D01*
Y20034D01*
Y20071D01*
Y20108D01*
Y20145D01*
Y20182D01*
Y20220D01*
Y20257D01*
Y20294D01*
Y20331D01*
Y20368D01*
Y20405D01*
Y20443D01*
Y20480D01*
Y20517D01*
Y20554D01*
Y20591D01*
Y20628D01*
Y20666D01*
Y20703D01*
Y20740D01*
Y20777D01*
Y20814D01*
Y20852D01*
Y20889D01*
Y20926D01*
Y20963D01*
Y21000D01*
Y21037D01*
Y21075D01*
Y21112D01*
Y21149D01*
Y21186D01*
Y21223D01*
Y21260D01*
Y21298D01*
Y21335D01*
Y21372D01*
Y21409D01*
Y21446D01*
Y21484D01*
Y21521D01*
Y21558D01*
Y21595D01*
Y21632D01*
Y21669D01*
Y21707D01*
Y21744D01*
Y21781D01*
Y21818D01*
Y21855D01*
Y21892D01*
X79146D01*
Y21930D01*
X83310D01*
Y21892D01*
D02*
G37*
G36*
X77771D02*
Y21855D01*
Y21818D01*
Y21781D01*
Y21744D01*
Y21707D01*
Y21669D01*
Y21632D01*
Y21595D01*
Y21558D01*
Y21521D01*
Y21484D01*
Y21446D01*
Y21409D01*
Y21372D01*
Y21335D01*
Y21298D01*
Y21260D01*
Y21223D01*
Y21186D01*
Y21149D01*
Y21112D01*
Y21075D01*
Y21037D01*
Y21000D01*
Y20963D01*
Y20926D01*
Y20889D01*
Y20852D01*
Y20814D01*
Y20777D01*
Y20740D01*
Y20703D01*
Y20666D01*
Y20628D01*
Y20591D01*
Y20554D01*
Y20517D01*
Y20480D01*
Y20443D01*
Y20405D01*
Y20368D01*
Y20331D01*
Y20294D01*
Y20257D01*
Y20220D01*
Y20182D01*
Y20145D01*
Y20108D01*
Y20071D01*
Y20034D01*
Y19997D01*
Y19959D01*
Y19922D01*
Y19885D01*
Y19848D01*
Y19811D01*
X76358D01*
Y19848D01*
Y19885D01*
Y19922D01*
Y19959D01*
Y19997D01*
Y20034D01*
Y20071D01*
Y20108D01*
Y20145D01*
Y20182D01*
Y20220D01*
Y20257D01*
Y20294D01*
Y20331D01*
Y20368D01*
Y20405D01*
Y20443D01*
Y20480D01*
Y20517D01*
Y20554D01*
Y20591D01*
Y20628D01*
Y20666D01*
Y20703D01*
Y20740D01*
Y20777D01*
Y20814D01*
Y20852D01*
Y20889D01*
Y20926D01*
Y20963D01*
Y21000D01*
Y21037D01*
Y21075D01*
Y21112D01*
Y21149D01*
Y21186D01*
Y21223D01*
Y21260D01*
Y21298D01*
Y21335D01*
Y21372D01*
Y21409D01*
Y21446D01*
Y21484D01*
Y21521D01*
Y21558D01*
Y21595D01*
Y21632D01*
Y21669D01*
Y21707D01*
Y21744D01*
Y21781D01*
Y21818D01*
Y21855D01*
Y21892D01*
Y21930D01*
X77771D01*
Y21892D01*
D02*
G37*
G36*
X71860Y18807D02*
Y18770D01*
Y18733D01*
Y18695D01*
Y18658D01*
Y18621D01*
Y18584D01*
Y18547D01*
Y18510D01*
Y18472D01*
Y18435D01*
Y18398D01*
Y18361D01*
Y18324D01*
Y18286D01*
Y18249D01*
Y18212D01*
Y18175D01*
Y18138D01*
Y18101D01*
Y18064D01*
Y18026D01*
Y17989D01*
Y17952D01*
Y17915D01*
Y17878D01*
Y17840D01*
Y17803D01*
Y17766D01*
Y17729D01*
Y17692D01*
Y17655D01*
Y17617D01*
Y17580D01*
Y17543D01*
Y17506D01*
Y17469D01*
Y17432D01*
Y17394D01*
Y17357D01*
Y17320D01*
Y17283D01*
Y17246D01*
Y17209D01*
Y17171D01*
Y17134D01*
Y17097D01*
Y17060D01*
Y17023D01*
Y16985D01*
Y16948D01*
Y16911D01*
Y16874D01*
Y16837D01*
Y16800D01*
Y16762D01*
Y16725D01*
Y16688D01*
Y16651D01*
Y16614D01*
Y16577D01*
Y16539D01*
Y16502D01*
Y16465D01*
Y16428D01*
Y16391D01*
X71897D01*
Y16353D01*
Y16316D01*
Y16279D01*
Y16242D01*
Y16205D01*
X71934D01*
Y16168D01*
X71972D01*
Y16130D01*
X72009D01*
Y16093D01*
X72046D01*
Y16056D01*
X72083D01*
Y16019D01*
X70856D01*
Y16056D01*
X70894D01*
Y16093D01*
X70931D01*
Y16130D01*
X70968D01*
Y16168D01*
X71005D01*
Y16205D01*
X71042D01*
Y16242D01*
Y16279D01*
X71079D01*
Y16316D01*
Y16353D01*
Y16391D01*
Y16428D01*
X71117D01*
Y16465D01*
Y16502D01*
Y16539D01*
Y16577D01*
Y16614D01*
Y16651D01*
Y16688D01*
Y16725D01*
Y16762D01*
Y16800D01*
Y16837D01*
Y16874D01*
Y16911D01*
Y16948D01*
Y16985D01*
Y17023D01*
Y17060D01*
Y17097D01*
Y17134D01*
Y17171D01*
Y17209D01*
Y17246D01*
Y17283D01*
Y17320D01*
Y17357D01*
Y17394D01*
Y17432D01*
Y17469D01*
Y17506D01*
Y17543D01*
Y17580D01*
Y17617D01*
Y17655D01*
Y17692D01*
Y17729D01*
Y17766D01*
Y17803D01*
Y17840D01*
Y17878D01*
Y17915D01*
Y17952D01*
Y17989D01*
Y18026D01*
X71042D01*
Y18064D01*
X70894D01*
Y18101D01*
X70745D01*
Y18138D01*
X70708D01*
Y18175D01*
X70745D01*
Y18212D01*
X70856D01*
Y18249D01*
X70968D01*
Y18286D01*
X71042D01*
Y18324D01*
X71154D01*
Y18361D01*
X71228D01*
Y18398D01*
X71302D01*
Y18435D01*
X71377D01*
Y18472D01*
X71414D01*
Y18510D01*
X71488D01*
Y18547D01*
X71526D01*
Y18584D01*
X71563D01*
Y18621D01*
X71637D01*
Y18658D01*
X71674D01*
Y18695D01*
X71711D01*
Y18733D01*
X71749D01*
Y18770D01*
X71786D01*
Y18807D01*
X71823D01*
Y18844D01*
X71860D01*
Y18807D01*
D02*
G37*
G36*
X74871D02*
Y18770D01*
X74834D01*
Y18733D01*
Y18695D01*
X74797D01*
Y18658D01*
Y18621D01*
X74760D01*
Y18584D01*
Y18547D01*
X74722D01*
Y18510D01*
Y18472D01*
X74648D01*
Y18435D01*
X74537D01*
Y18398D01*
X74425D01*
Y18361D01*
X74351D01*
Y18324D01*
X74276D01*
Y18286D01*
X74239D01*
Y18249D01*
X74165D01*
Y18212D01*
X74128D01*
Y18175D01*
X74090D01*
Y18138D01*
X74016D01*
Y18101D01*
X73979D01*
Y18064D01*
X73942D01*
Y18026D01*
Y17989D01*
X73905D01*
Y17952D01*
X73867D01*
Y17915D01*
X73830D01*
Y17878D01*
Y17840D01*
X73793D01*
Y17803D01*
Y17766D01*
X73756D01*
Y17729D01*
Y17692D01*
X73719D01*
Y17655D01*
Y17617D01*
Y17580D01*
X73682D01*
Y17543D01*
Y17506D01*
Y17469D01*
Y17432D01*
X73644D01*
Y17394D01*
Y17357D01*
Y17320D01*
Y17283D01*
Y17246D01*
Y17209D01*
Y17171D01*
Y17134D01*
Y17097D01*
Y17060D01*
Y17023D01*
Y16985D01*
Y16948D01*
Y16911D01*
Y16874D01*
Y16837D01*
Y16800D01*
X73682D01*
Y16762D01*
Y16725D01*
Y16688D01*
X73719D01*
Y16651D01*
Y16614D01*
Y16577D01*
X73756D01*
Y16539D01*
X73793D01*
Y16502D01*
Y16465D01*
X73867D01*
Y16428D01*
X73942D01*
Y16391D01*
X74090D01*
Y16428D01*
X74165D01*
Y16465D01*
X74202D01*
Y16502D01*
X74239D01*
Y16539D01*
Y16577D01*
X74276D01*
Y16614D01*
Y16651D01*
Y16688D01*
X74313D01*
Y16725D01*
Y16762D01*
Y16800D01*
Y16837D01*
Y16874D01*
Y16911D01*
Y16948D01*
Y16985D01*
Y17023D01*
Y17060D01*
Y17097D01*
Y17134D01*
X74276D01*
Y17171D01*
Y17209D01*
Y17246D01*
X74239D01*
Y17283D01*
Y17320D01*
X74202D01*
Y17357D01*
X74165D01*
Y17394D01*
X74128D01*
Y17432D01*
X74016D01*
Y17469D01*
X73867D01*
Y17432D01*
X73756D01*
Y17469D01*
X73793D01*
Y17506D01*
Y17543D01*
X73830D01*
Y17580D01*
X73867D01*
Y17617D01*
X73905D01*
Y17655D01*
Y17692D01*
X73942D01*
Y17729D01*
X73979D01*
Y17766D01*
X74016D01*
Y17803D01*
Y17840D01*
X74053D01*
Y17878D01*
X74388D01*
Y17840D01*
X74537D01*
Y17803D01*
X74611D01*
Y17766D01*
X74685D01*
Y17729D01*
X74722D01*
Y17692D01*
X74797D01*
Y17655D01*
X74834D01*
Y17617D01*
X74871D01*
Y17580D01*
Y17543D01*
X74908D01*
Y17506D01*
X74945D01*
Y17469D01*
Y17432D01*
X74983D01*
Y17394D01*
Y17357D01*
X75020D01*
Y17320D01*
Y17283D01*
Y17246D01*
X75057D01*
Y17209D01*
Y17171D01*
Y17134D01*
Y17097D01*
Y17060D01*
X75094D01*
Y17023D01*
Y16985D01*
Y16948D01*
Y16911D01*
Y16874D01*
X75057D01*
Y16837D01*
Y16800D01*
Y16762D01*
Y16725D01*
Y16688D01*
Y16651D01*
X75020D01*
Y16614D01*
Y16577D01*
Y16539D01*
X74983D01*
Y16502D01*
Y16465D01*
X74945D01*
Y16428D01*
X74908D01*
Y16391D01*
Y16353D01*
X74871D01*
Y16316D01*
X74834D01*
Y16279D01*
X74797D01*
Y16242D01*
X74760D01*
Y16205D01*
X74722D01*
Y16168D01*
X74685D01*
Y16130D01*
X74611D01*
Y16093D01*
X74537D01*
Y16056D01*
X74462D01*
Y16019D01*
X74351D01*
Y15982D01*
X74202D01*
Y15945D01*
X73793D01*
Y15982D01*
X73607D01*
Y16019D01*
X73496D01*
Y16056D01*
X73421D01*
Y16093D01*
X73384D01*
Y16130D01*
X73310D01*
Y16168D01*
X73273D01*
Y16205D01*
X73235D01*
Y16242D01*
X73161D01*
Y16279D01*
Y16316D01*
X73124D01*
Y16353D01*
X73087D01*
Y16391D01*
X73050D01*
Y16428D01*
Y16465D01*
X73012D01*
Y16502D01*
X72975D01*
Y16539D01*
Y16577D01*
Y16614D01*
X72938D01*
Y16651D01*
Y16688D01*
Y16725D01*
X72901D01*
Y16762D01*
Y16800D01*
Y16837D01*
Y16874D01*
X72864D01*
Y16911D01*
Y16948D01*
Y16985D01*
Y17023D01*
Y17060D01*
Y17097D01*
Y17134D01*
Y17171D01*
Y17209D01*
Y17246D01*
Y17283D01*
Y17320D01*
Y17357D01*
Y17394D01*
X72901D01*
Y17432D01*
Y17469D01*
Y17506D01*
Y17543D01*
Y17580D01*
X72938D01*
Y17617D01*
Y17655D01*
Y17692D01*
X72975D01*
Y17729D01*
Y17766D01*
X73012D01*
Y17803D01*
Y17840D01*
X73050D01*
Y17878D01*
Y17915D01*
X73087D01*
Y17952D01*
Y17989D01*
X73124D01*
Y18026D01*
X73161D01*
Y18064D01*
Y18101D01*
X73198D01*
Y18138D01*
X73235D01*
Y18175D01*
X73273D01*
Y18212D01*
X73310D01*
Y18249D01*
X73347D01*
Y18286D01*
X73384D01*
Y18324D01*
X73421D01*
Y18361D01*
X73458D01*
Y18398D01*
X73533D01*
Y18435D01*
X73570D01*
Y18472D01*
X73607D01*
Y18510D01*
X73682D01*
Y18547D01*
X73756D01*
Y18584D01*
X73793D01*
Y18621D01*
X73867D01*
Y18658D01*
X73979D01*
Y18695D01*
X74053D01*
Y18733D01*
X74165D01*
Y18770D01*
X74313D01*
Y18807D01*
X74537D01*
Y18844D01*
X74871D01*
Y18807D01*
D02*
G37*
G36*
X76990D02*
X77139D01*
Y18770D01*
X77250D01*
Y18733D01*
X77325D01*
Y18695D01*
X77399D01*
Y18658D01*
X77436D01*
Y18621D01*
X77510D01*
Y18584D01*
X77548D01*
Y18547D01*
Y18510D01*
X77585D01*
Y18472D01*
X77622D01*
Y18435D01*
Y18398D01*
X77659D01*
Y18361D01*
Y18324D01*
Y18286D01*
X77696D01*
Y18249D01*
Y18212D01*
Y18175D01*
Y18138D01*
Y18101D01*
Y18064D01*
X77659D01*
Y18026D01*
Y17989D01*
Y17952D01*
X77622D01*
Y17915D01*
Y17878D01*
X77585D01*
Y17840D01*
X77548D01*
Y17803D01*
X77510D01*
Y17766D01*
X77473D01*
Y17729D01*
X77436D01*
Y17692D01*
X77399D01*
Y17655D01*
X77325D01*
Y17617D01*
Y17580D01*
X77399D01*
Y17543D01*
X77473D01*
Y17506D01*
X77548D01*
Y17469D01*
X77585D01*
Y17432D01*
X77622D01*
Y17394D01*
X77659D01*
Y17357D01*
X77696D01*
Y17320D01*
X77734D01*
Y17283D01*
X77771D01*
Y17246D01*
Y17209D01*
X77808D01*
Y17171D01*
Y17134D01*
Y17097D01*
X77845D01*
Y17060D01*
Y17023D01*
Y16985D01*
Y16948D01*
Y16911D01*
Y16874D01*
Y16837D01*
Y16800D01*
Y16762D01*
Y16725D01*
Y16688D01*
Y16651D01*
X77808D01*
Y16614D01*
Y16577D01*
Y16539D01*
X77771D01*
Y16502D01*
Y16465D01*
X77734D01*
Y16428D01*
X77696D01*
Y16391D01*
Y16353D01*
X77659D01*
Y16316D01*
X77622D01*
Y16279D01*
X77585D01*
Y16242D01*
X77510D01*
Y16205D01*
X77473D01*
Y16168D01*
X77399D01*
Y16130D01*
X77325D01*
Y16093D01*
X77250D01*
Y16056D01*
X77139D01*
Y16019D01*
X77027D01*
Y15982D01*
X76841D01*
Y15945D01*
X76321D01*
Y15982D01*
X76061D01*
Y16019D01*
X75949D01*
Y16056D01*
Y16093D01*
X75912D01*
Y16130D01*
Y16168D01*
Y16205D01*
Y16242D01*
X75875D01*
Y16279D01*
Y16316D01*
Y16353D01*
Y16391D01*
Y16428D01*
X75838D01*
Y16465D01*
Y16502D01*
Y16539D01*
Y16577D01*
X75875D01*
Y16539D01*
X75949D01*
Y16502D01*
X76024D01*
Y16465D01*
X76135D01*
Y16428D01*
X76321D01*
Y16391D01*
X76618D01*
Y16428D01*
X76730D01*
Y16465D01*
X76804D01*
Y16502D01*
X76841D01*
Y16539D01*
X76878D01*
Y16577D01*
X76916D01*
Y16614D01*
X76953D01*
Y16651D01*
Y16688D01*
X76990D01*
Y16725D01*
Y16762D01*
X77027D01*
Y16800D01*
Y16837D01*
Y16874D01*
Y16911D01*
Y16948D01*
Y16985D01*
X76990D01*
Y17023D01*
Y17060D01*
Y17097D01*
X76953D01*
Y17134D01*
X76916D01*
Y17171D01*
X76878D01*
Y17209D01*
X76841D01*
Y17246D01*
X76804D01*
Y17283D01*
X76693D01*
Y17320D01*
X76209D01*
Y17357D01*
Y17394D01*
Y17432D01*
Y17469D01*
Y17506D01*
Y17543D01*
Y17580D01*
Y17617D01*
Y17655D01*
Y17692D01*
Y17729D01*
X76507D01*
Y17766D01*
X76656D01*
Y17803D01*
X76730D01*
Y17840D01*
X76767D01*
Y17878D01*
X76804D01*
Y17915D01*
X76841D01*
Y17952D01*
Y17989D01*
Y18026D01*
X76878D01*
Y18064D01*
Y18101D01*
Y18138D01*
Y18175D01*
X76841D01*
Y18212D01*
Y18249D01*
X76804D01*
Y18286D01*
Y18324D01*
X76767D01*
Y18361D01*
X76693D01*
Y18398D01*
X76544D01*
Y18435D01*
X76395D01*
Y18398D01*
X76247D01*
Y18361D01*
X76135D01*
Y18324D01*
X76024D01*
Y18286D01*
X75949D01*
Y18249D01*
X75912D01*
Y18286D01*
Y18324D01*
Y18361D01*
Y18398D01*
X75949D01*
Y18435D01*
Y18472D01*
Y18510D01*
X75986D01*
Y18547D01*
Y18584D01*
Y18621D01*
Y18658D01*
X76024D01*
Y18695D01*
Y18733D01*
X76061D01*
Y18770D01*
X76209D01*
Y18807D01*
X76433D01*
Y18844D01*
X76990D01*
Y18807D01*
D02*
G37*
G36*
X79815D02*
X79964D01*
Y18770D01*
X80038D01*
Y18733D01*
X80113D01*
Y18695D01*
X80187D01*
Y18658D01*
X80224D01*
Y18621D01*
X80261D01*
Y18584D01*
X80299D01*
Y18547D01*
X80336D01*
Y18510D01*
X80373D01*
Y18472D01*
X80410D01*
Y18435D01*
Y18398D01*
X80447D01*
Y18361D01*
Y18324D01*
Y18286D01*
Y18249D01*
X80484D01*
Y18212D01*
Y18175D01*
Y18138D01*
Y18101D01*
Y18064D01*
Y18026D01*
X80447D01*
Y17989D01*
Y17952D01*
Y17915D01*
Y17878D01*
X80410D01*
Y17840D01*
Y17803D01*
Y17766D01*
X80373D01*
Y17729D01*
Y17692D01*
X80336D01*
Y17655D01*
Y17617D01*
X80299D01*
Y17580D01*
Y17543D01*
X80261D01*
Y17506D01*
Y17469D01*
X80224D01*
Y17432D01*
Y17394D01*
X80187D01*
Y17357D01*
Y17320D01*
X80150D01*
Y17283D01*
Y17246D01*
X80113D01*
Y17209D01*
X80076D01*
Y17171D01*
Y17134D01*
X80038D01*
Y17097D01*
X80001D01*
Y17060D01*
Y17023D01*
X79964D01*
Y16985D01*
X79927D01*
Y16948D01*
Y16911D01*
X79890D01*
Y16874D01*
Y16837D01*
X79852D01*
Y16800D01*
X79815D01*
Y16762D01*
Y16725D01*
X79778D01*
Y16688D01*
X79741D01*
Y16651D01*
Y16614D01*
X79704D01*
Y16577D01*
X79667D01*
Y16539D01*
Y16502D01*
X79629D01*
Y16465D01*
X79815D01*
Y16428D01*
X80038D01*
Y16465D01*
X80261D01*
Y16502D01*
X80373D01*
Y16539D01*
X80484D01*
Y16577D01*
X80559D01*
Y16614D01*
X80633D01*
Y16651D01*
X80670D01*
Y16614D01*
Y16577D01*
Y16539D01*
Y16502D01*
X80633D01*
Y16465D01*
Y16428D01*
Y16391D01*
X80596D01*
Y16353D01*
Y16316D01*
Y16279D01*
X80559D01*
Y16242D01*
Y16205D01*
Y16168D01*
X80522D01*
Y16130D01*
Y16093D01*
Y16056D01*
X80484D01*
Y16019D01*
X78477D01*
Y16056D01*
X78514D01*
Y16093D01*
X78551D01*
Y16130D01*
Y16168D01*
X78589D01*
Y16205D01*
Y16242D01*
X78626D01*
Y16279D01*
X78663D01*
Y16316D01*
Y16353D01*
X78700D01*
Y16391D01*
Y16428D01*
X78737D01*
Y16465D01*
X78774D01*
Y16502D01*
Y16539D01*
X78812D01*
Y16577D01*
X78849D01*
Y16614D01*
Y16651D01*
X78886D01*
Y16688D01*
Y16725D01*
X78923D01*
Y16762D01*
X78960D01*
Y16800D01*
Y16837D01*
X78997D01*
Y16874D01*
Y16911D01*
X79035D01*
Y16948D01*
X79072D01*
Y16985D01*
Y17023D01*
X79109D01*
Y17060D01*
Y17097D01*
X79146D01*
Y17134D01*
X79183D01*
Y17171D01*
Y17209D01*
X79220D01*
Y17246D01*
Y17283D01*
X79258D01*
Y17320D01*
Y17357D01*
X79295D01*
Y17394D01*
Y17432D01*
X79332D01*
Y17469D01*
Y17506D01*
X79369D01*
Y17543D01*
X79406D01*
Y17580D01*
Y17617D01*
X79444D01*
Y17655D01*
Y17692D01*
X79481D01*
Y17729D01*
Y17766D01*
X79518D01*
Y17803D01*
Y17840D01*
X79555D01*
Y17878D01*
Y17915D01*
X79592D01*
Y17952D01*
Y17989D01*
Y18026D01*
Y18064D01*
X79629D01*
Y18101D01*
Y18138D01*
Y18175D01*
X79592D01*
Y18212D01*
Y18249D01*
Y18286D01*
X79555D01*
Y18324D01*
X79481D01*
Y18361D01*
X79406D01*
Y18398D01*
X79295D01*
Y18361D01*
X79109D01*
Y18324D01*
X78997D01*
Y18286D01*
X78923D01*
Y18249D01*
X78886D01*
Y18212D01*
X78812D01*
Y18175D01*
X78774D01*
Y18138D01*
X78700D01*
Y18101D01*
X78663D01*
Y18138D01*
Y18175D01*
Y18212D01*
X78700D01*
Y18249D01*
Y18286D01*
Y18324D01*
X78737D01*
Y18361D01*
Y18398D01*
Y18435D01*
X78774D01*
Y18472D01*
Y18510D01*
Y18547D01*
X78812D01*
Y18584D01*
Y18621D01*
Y18658D01*
Y18695D01*
X78849D01*
Y18733D01*
X78960D01*
Y18770D01*
X79109D01*
Y18807D01*
X79295D01*
Y18844D01*
X79815D01*
Y18807D01*
D02*
G37*
G36*
X69295Y31223D02*
X69332D01*
Y31186D01*
Y31149D01*
Y31112D01*
Y31074D01*
Y31037D01*
Y31000D01*
Y30963D01*
Y30926D01*
Y30889D01*
Y30851D01*
Y30814D01*
Y30777D01*
Y30740D01*
Y30703D01*
Y30665D01*
Y30628D01*
Y30591D01*
Y30554D01*
Y30517D01*
Y30480D01*
Y30443D01*
Y30405D01*
Y30368D01*
Y30331D01*
Y30294D01*
Y30257D01*
Y30219D01*
Y30182D01*
Y30145D01*
Y30108D01*
Y30071D01*
Y30034D01*
Y29996D01*
Y29959D01*
Y29922D01*
Y29885D01*
Y29848D01*
Y29811D01*
Y29773D01*
Y29736D01*
Y29699D01*
Y29662D01*
Y29625D01*
Y29588D01*
Y29550D01*
Y29513D01*
Y29476D01*
Y29439D01*
Y29402D01*
Y29364D01*
X69369D01*
Y29327D01*
Y29290D01*
Y29253D01*
Y29216D01*
Y29179D01*
Y29141D01*
Y29104D01*
Y29067D01*
Y29030D01*
Y28993D01*
Y28956D01*
Y28918D01*
Y28881D01*
Y28844D01*
Y28807D01*
Y28770D01*
Y28732D01*
Y28695D01*
Y28658D01*
Y28621D01*
Y28584D01*
Y28547D01*
Y28509D01*
Y28472D01*
Y28435D01*
Y28398D01*
Y28361D01*
Y28324D01*
Y28286D01*
Y28249D01*
Y28212D01*
Y28175D01*
Y28138D01*
Y28100D01*
Y28063D01*
Y28026D01*
Y27989D01*
Y27952D01*
Y27915D01*
Y27878D01*
Y27840D01*
Y27803D01*
Y27766D01*
Y27729D01*
Y27692D01*
Y27654D01*
Y27617D01*
Y27580D01*
Y27543D01*
Y27506D01*
X69406D01*
Y27468D01*
Y27431D01*
Y27394D01*
Y27357D01*
Y27320D01*
Y27283D01*
Y27246D01*
Y27208D01*
Y27171D01*
Y27134D01*
Y27097D01*
Y27060D01*
Y27022D01*
Y26985D01*
Y26948D01*
Y26911D01*
Y26874D01*
Y26837D01*
Y26799D01*
Y26762D01*
Y26725D01*
Y26688D01*
Y26651D01*
Y26614D01*
Y26576D01*
Y26539D01*
Y26502D01*
Y26465D01*
Y26428D01*
Y26390D01*
Y26353D01*
Y26316D01*
Y26279D01*
Y26242D01*
Y26205D01*
Y26168D01*
Y26130D01*
Y26093D01*
Y26056D01*
Y26019D01*
Y25982D01*
Y25944D01*
Y25907D01*
Y25870D01*
Y25833D01*
Y25796D01*
Y25758D01*
Y25721D01*
Y25684D01*
Y25647D01*
X69444D01*
Y25610D01*
Y25573D01*
Y25536D01*
Y25498D01*
Y25461D01*
Y25424D01*
Y25387D01*
Y25350D01*
Y25312D01*
Y25275D01*
Y25238D01*
Y25201D01*
Y25164D01*
Y25127D01*
Y25089D01*
Y25052D01*
Y25015D01*
Y24978D01*
Y24941D01*
Y24904D01*
Y24866D01*
Y24829D01*
Y24792D01*
Y24755D01*
Y24718D01*
Y24680D01*
Y24643D01*
Y24606D01*
Y24569D01*
Y24532D01*
Y24495D01*
Y24457D01*
Y24420D01*
Y24383D01*
Y24346D01*
Y24309D01*
Y24272D01*
Y24234D01*
Y24197D01*
Y24160D01*
Y24123D01*
Y24086D01*
Y24048D01*
Y24011D01*
Y23974D01*
Y23937D01*
Y23900D01*
Y23863D01*
Y23825D01*
Y23788D01*
X69481D01*
Y23751D01*
Y23714D01*
Y23677D01*
Y23640D01*
Y23602D01*
Y23565D01*
Y23528D01*
Y23491D01*
Y23454D01*
Y23417D01*
Y23379D01*
Y23342D01*
Y23305D01*
Y23268D01*
Y23231D01*
Y23193D01*
Y23156D01*
Y23119D01*
Y23082D01*
Y23045D01*
Y23008D01*
Y22971D01*
Y22933D01*
Y22896D01*
Y22859D01*
Y22822D01*
Y22785D01*
Y22747D01*
Y22710D01*
Y22673D01*
Y22636D01*
Y22599D01*
Y22561D01*
X68068D01*
Y22599D01*
Y22636D01*
Y22673D01*
Y22710D01*
Y22747D01*
Y22785D01*
Y22822D01*
Y22859D01*
Y22896D01*
Y22933D01*
Y22971D01*
Y23008D01*
Y23045D01*
Y23082D01*
Y23119D01*
Y23156D01*
Y23193D01*
Y23231D01*
Y23268D01*
Y23305D01*
Y23342D01*
Y23379D01*
Y23417D01*
Y23454D01*
X68105D01*
Y23491D01*
Y23528D01*
Y23565D01*
Y23602D01*
Y23640D01*
Y23677D01*
Y23714D01*
Y23751D01*
Y23788D01*
Y23825D01*
Y23863D01*
Y23900D01*
Y23937D01*
Y23974D01*
Y24011D01*
Y24048D01*
Y24086D01*
Y24123D01*
Y24160D01*
Y24197D01*
Y24234D01*
Y24272D01*
Y24309D01*
Y24346D01*
Y24383D01*
Y24420D01*
Y24457D01*
Y24495D01*
Y24532D01*
Y24569D01*
Y24606D01*
Y24643D01*
Y24680D01*
Y24718D01*
Y24755D01*
Y24792D01*
Y24829D01*
Y24866D01*
Y24904D01*
Y24941D01*
Y24978D01*
Y25015D01*
Y25052D01*
Y25089D01*
Y25127D01*
Y25164D01*
Y25201D01*
Y25238D01*
Y25275D01*
Y25312D01*
X68143D01*
Y25350D01*
Y25387D01*
Y25424D01*
Y25461D01*
Y25498D01*
Y25536D01*
Y25573D01*
Y25610D01*
Y25647D01*
Y25684D01*
Y25721D01*
Y25758D01*
Y25796D01*
Y25833D01*
Y25870D01*
Y25907D01*
Y25944D01*
Y25982D01*
Y26019D01*
Y26056D01*
Y26093D01*
Y26130D01*
Y26168D01*
Y26205D01*
Y26242D01*
Y26279D01*
Y26316D01*
Y26353D01*
Y26390D01*
Y26428D01*
Y26465D01*
Y26502D01*
Y26539D01*
Y26576D01*
Y26614D01*
Y26651D01*
Y26688D01*
Y26725D01*
Y26762D01*
Y26799D01*
Y26837D01*
Y26874D01*
Y26911D01*
Y26948D01*
Y26985D01*
Y27022D01*
Y27060D01*
Y27097D01*
Y27134D01*
Y27171D01*
X68180D01*
Y27208D01*
Y27246D01*
Y27283D01*
Y27320D01*
Y27357D01*
Y27394D01*
Y27431D01*
Y27468D01*
Y27506D01*
Y27543D01*
Y27580D01*
Y27617D01*
Y27654D01*
Y27692D01*
Y27729D01*
Y27766D01*
Y27803D01*
Y27840D01*
Y27878D01*
Y27915D01*
Y27952D01*
Y27989D01*
Y28026D01*
Y28063D01*
Y28100D01*
Y28138D01*
Y28175D01*
Y28212D01*
Y28249D01*
Y28286D01*
Y28324D01*
Y28361D01*
Y28398D01*
Y28435D01*
Y28472D01*
Y28509D01*
Y28547D01*
Y28584D01*
Y28621D01*
Y28658D01*
Y28695D01*
Y28732D01*
Y28770D01*
Y28807D01*
Y28844D01*
Y28881D01*
Y28918D01*
Y28956D01*
Y28993D01*
Y29030D01*
X68217D01*
Y29067D01*
Y29104D01*
Y29141D01*
Y29179D01*
Y29216D01*
Y29253D01*
Y29290D01*
Y29327D01*
Y29364D01*
Y29402D01*
Y29439D01*
Y29476D01*
Y29513D01*
Y29550D01*
Y29588D01*
Y29625D01*
Y29662D01*
Y29699D01*
Y29736D01*
Y29773D01*
Y29811D01*
Y29848D01*
Y29885D01*
Y29922D01*
Y29959D01*
Y29996D01*
Y30034D01*
Y30071D01*
Y30108D01*
Y30145D01*
Y30182D01*
Y30219D01*
Y30257D01*
Y30294D01*
Y30331D01*
Y30368D01*
Y30405D01*
Y30443D01*
Y30480D01*
Y30517D01*
Y30554D01*
Y30591D01*
Y30628D01*
Y30665D01*
Y30703D01*
Y30740D01*
Y30777D01*
Y30814D01*
Y30851D01*
Y30889D01*
X68254D01*
Y30926D01*
Y30963D01*
Y31000D01*
Y31037D01*
Y31074D01*
Y31112D01*
Y31149D01*
Y31186D01*
Y31223D01*
Y31260D01*
X69295D01*
Y31223D01*
D02*
G37*
G36*
X83310Y32599D02*
Y32561D01*
Y32524D01*
Y32487D01*
Y32450D01*
Y32413D01*
Y32375D01*
Y32338D01*
Y32301D01*
Y32264D01*
Y32227D01*
Y32190D01*
Y32153D01*
Y32115D01*
Y32078D01*
Y32041D01*
Y32004D01*
Y31967D01*
Y31929D01*
Y31892D01*
X68068D01*
Y31929D01*
Y31967D01*
Y32004D01*
Y32041D01*
Y32078D01*
Y32115D01*
Y32153D01*
Y32190D01*
Y32227D01*
Y32264D01*
Y32301D01*
Y32338D01*
Y32375D01*
Y32413D01*
Y32450D01*
Y32487D01*
Y32524D01*
Y32561D01*
Y32599D01*
Y32636D01*
X83310D01*
Y32599D01*
D02*
G37*
G36*
X83124Y31223D02*
Y31186D01*
Y31149D01*
Y31112D01*
Y31074D01*
Y31037D01*
Y31000D01*
Y30963D01*
Y30926D01*
Y30889D01*
X83161D01*
Y30851D01*
Y30814D01*
Y30777D01*
Y30740D01*
Y30703D01*
Y30665D01*
Y30628D01*
Y30591D01*
Y30554D01*
Y30517D01*
Y30480D01*
Y30443D01*
Y30405D01*
Y30368D01*
Y30331D01*
Y30294D01*
Y30257D01*
Y30219D01*
Y30182D01*
Y30145D01*
Y30108D01*
Y30071D01*
Y30034D01*
Y29996D01*
Y29959D01*
Y29922D01*
Y29885D01*
Y29848D01*
Y29811D01*
Y29773D01*
Y29736D01*
Y29699D01*
Y29662D01*
Y29625D01*
Y29588D01*
Y29550D01*
Y29513D01*
Y29476D01*
Y29439D01*
Y29402D01*
Y29364D01*
Y29327D01*
Y29290D01*
Y29253D01*
Y29216D01*
Y29179D01*
Y29141D01*
Y29104D01*
Y29067D01*
Y29030D01*
X83198D01*
Y28993D01*
Y28956D01*
Y28918D01*
Y28881D01*
Y28844D01*
Y28807D01*
Y28770D01*
Y28732D01*
Y28695D01*
Y28658D01*
Y28621D01*
Y28584D01*
Y28547D01*
Y28509D01*
Y28472D01*
Y28435D01*
Y28398D01*
Y28361D01*
Y28324D01*
Y28286D01*
Y28249D01*
Y28212D01*
Y28175D01*
Y28138D01*
Y28100D01*
Y28063D01*
Y28026D01*
Y27989D01*
Y27952D01*
Y27915D01*
Y27878D01*
Y27840D01*
Y27803D01*
Y27766D01*
Y27729D01*
Y27692D01*
Y27654D01*
Y27617D01*
Y27580D01*
Y27543D01*
Y27506D01*
Y27468D01*
Y27431D01*
Y27394D01*
Y27357D01*
Y27320D01*
Y27283D01*
Y27246D01*
Y27208D01*
Y27171D01*
X83235D01*
Y27134D01*
Y27097D01*
Y27060D01*
Y27022D01*
Y26985D01*
Y26948D01*
Y26911D01*
Y26874D01*
Y26837D01*
Y26799D01*
Y26762D01*
Y26725D01*
Y26688D01*
Y26651D01*
Y26614D01*
Y26576D01*
Y26539D01*
Y26502D01*
Y26465D01*
Y26428D01*
Y26390D01*
Y26353D01*
Y26316D01*
Y26279D01*
Y26242D01*
Y26205D01*
Y26168D01*
Y26130D01*
Y26093D01*
Y26056D01*
Y26019D01*
Y25982D01*
Y25944D01*
Y25907D01*
Y25870D01*
Y25833D01*
Y25796D01*
Y25758D01*
Y25721D01*
Y25684D01*
Y25647D01*
Y25610D01*
Y25573D01*
Y25536D01*
Y25498D01*
Y25461D01*
Y25424D01*
Y25387D01*
Y25350D01*
Y25312D01*
X83272D01*
Y25275D01*
Y25238D01*
Y25201D01*
Y25164D01*
Y25127D01*
Y25089D01*
Y25052D01*
Y25015D01*
Y24978D01*
Y24941D01*
Y24904D01*
Y24866D01*
Y24829D01*
Y24792D01*
Y24755D01*
Y24718D01*
Y24680D01*
Y24643D01*
Y24606D01*
Y24569D01*
Y24532D01*
Y24495D01*
Y24457D01*
Y24420D01*
Y24383D01*
Y24346D01*
Y24309D01*
Y24272D01*
Y24234D01*
Y24197D01*
Y24160D01*
Y24123D01*
Y24086D01*
Y24048D01*
Y24011D01*
Y23974D01*
Y23937D01*
Y23900D01*
Y23863D01*
Y23825D01*
Y23788D01*
Y23751D01*
Y23714D01*
Y23677D01*
Y23640D01*
Y23602D01*
Y23565D01*
Y23528D01*
Y23491D01*
Y23454D01*
Y23417D01*
X83310D01*
Y23379D01*
Y23342D01*
Y23305D01*
Y23268D01*
Y23231D01*
Y23193D01*
Y23156D01*
Y23119D01*
Y23082D01*
Y23045D01*
Y23008D01*
Y22971D01*
Y22933D01*
Y22896D01*
Y22859D01*
Y22822D01*
Y22785D01*
Y22747D01*
Y22710D01*
Y22673D01*
Y22636D01*
Y22599D01*
Y22561D01*
X81897D01*
Y22599D01*
Y22636D01*
Y22673D01*
Y22710D01*
Y22747D01*
Y22785D01*
Y22822D01*
Y22859D01*
Y22896D01*
Y22933D01*
Y22971D01*
Y23008D01*
Y23045D01*
Y23082D01*
Y23119D01*
Y23156D01*
Y23193D01*
Y23231D01*
Y23268D01*
Y23305D01*
Y23342D01*
Y23379D01*
Y23417D01*
Y23454D01*
Y23491D01*
Y23528D01*
Y23565D01*
Y23602D01*
Y23640D01*
Y23677D01*
Y23714D01*
Y23751D01*
X81934D01*
Y23788D01*
Y23825D01*
Y23863D01*
Y23900D01*
Y23937D01*
Y23974D01*
Y24011D01*
Y24048D01*
Y24086D01*
Y24123D01*
Y24160D01*
Y24197D01*
Y24234D01*
Y24272D01*
Y24309D01*
Y24346D01*
Y24383D01*
Y24420D01*
Y24457D01*
Y24495D01*
Y24532D01*
Y24569D01*
Y24606D01*
Y24643D01*
Y24680D01*
Y24718D01*
Y24755D01*
Y24792D01*
Y24829D01*
Y24866D01*
Y24904D01*
Y24941D01*
Y24978D01*
Y25015D01*
Y25052D01*
Y25089D01*
Y25127D01*
Y25164D01*
Y25201D01*
Y25238D01*
Y25275D01*
Y25312D01*
Y25350D01*
Y25387D01*
Y25424D01*
Y25461D01*
Y25498D01*
Y25536D01*
Y25573D01*
Y25610D01*
Y25647D01*
X81971D01*
Y25684D01*
Y25721D01*
Y25758D01*
Y25796D01*
Y25833D01*
Y25870D01*
Y25907D01*
Y25944D01*
Y25982D01*
Y26019D01*
Y26056D01*
Y26093D01*
Y26130D01*
Y26168D01*
Y26205D01*
Y26242D01*
Y26279D01*
Y26316D01*
Y26353D01*
Y26390D01*
Y26428D01*
Y26465D01*
Y26502D01*
Y26539D01*
Y26576D01*
Y26614D01*
Y26651D01*
Y26688D01*
Y26725D01*
Y26762D01*
Y26799D01*
Y26837D01*
Y26874D01*
Y26911D01*
Y26948D01*
Y26985D01*
Y27022D01*
Y27060D01*
Y27097D01*
Y27134D01*
Y27171D01*
Y27208D01*
Y27246D01*
Y27283D01*
Y27320D01*
Y27357D01*
Y27394D01*
Y27431D01*
Y27468D01*
Y27506D01*
X82009D01*
Y27543D01*
Y27580D01*
Y27617D01*
Y27654D01*
Y27692D01*
Y27729D01*
Y27766D01*
Y27803D01*
Y27840D01*
Y27878D01*
Y27915D01*
Y27952D01*
Y27989D01*
Y28026D01*
Y28063D01*
Y28100D01*
Y28138D01*
Y28175D01*
Y28212D01*
Y28249D01*
Y28286D01*
Y28324D01*
Y28361D01*
Y28398D01*
Y28435D01*
Y28472D01*
Y28509D01*
Y28547D01*
Y28584D01*
Y28621D01*
Y28658D01*
Y28695D01*
Y28732D01*
Y28770D01*
Y28807D01*
Y28844D01*
Y28881D01*
Y28918D01*
Y28956D01*
Y28993D01*
Y29030D01*
Y29067D01*
Y29104D01*
Y29141D01*
Y29179D01*
Y29216D01*
Y29253D01*
Y29290D01*
Y29327D01*
Y29364D01*
Y29402D01*
X82046D01*
Y29439D01*
Y29476D01*
Y29513D01*
Y29550D01*
Y29588D01*
Y29625D01*
Y29662D01*
Y29699D01*
Y29736D01*
Y29773D01*
Y29811D01*
Y29848D01*
Y29885D01*
Y29922D01*
Y29959D01*
Y29996D01*
Y30034D01*
Y30071D01*
Y30108D01*
Y30145D01*
Y30182D01*
Y30219D01*
Y30257D01*
Y30294D01*
Y30331D01*
Y30368D01*
Y30405D01*
Y30443D01*
Y30480D01*
Y30517D01*
Y30554D01*
Y30591D01*
Y30628D01*
Y30665D01*
Y30703D01*
Y30740D01*
Y30777D01*
Y30814D01*
Y30851D01*
Y30889D01*
Y30926D01*
Y30963D01*
Y31000D01*
Y31037D01*
Y31074D01*
Y31112D01*
Y31149D01*
Y31186D01*
Y31223D01*
X82083D01*
Y31260D01*
X83124D01*
Y31223D01*
D02*
G37*
G36*
X75726Y38472D02*
X75801D01*
Y38435D01*
X75875D01*
Y38398D01*
X75949D01*
Y38361D01*
X76024D01*
Y38323D01*
X76098D01*
Y38286D01*
X76172D01*
Y38249D01*
X76247D01*
Y38212D01*
X76321D01*
Y38175D01*
X76395D01*
Y38138D01*
X76507D01*
Y38100D01*
X76581D01*
Y38063D01*
X76656D01*
Y38026D01*
X76730D01*
Y37989D01*
X76804D01*
Y37952D01*
X76878D01*
Y37914D01*
X76953D01*
Y37877D01*
X77027D01*
Y37840D01*
X77102D01*
Y37803D01*
X77176D01*
Y37766D01*
X77250D01*
Y37729D01*
X77362D01*
Y37691D01*
X77436D01*
Y37654D01*
X77510D01*
Y37617D01*
X77585D01*
Y37580D01*
X77659D01*
Y37543D01*
X77734D01*
Y37506D01*
X77808D01*
Y37468D01*
X77882D01*
Y37431D01*
X77957D01*
Y37394D01*
X78031D01*
Y37357D01*
X78142D01*
Y37320D01*
X78217D01*
Y37282D01*
X78291D01*
Y37245D01*
X78365D01*
Y37208D01*
X78440D01*
Y37171D01*
X78514D01*
Y37134D01*
X78589D01*
Y37097D01*
X78663D01*
Y37060D01*
X78737D01*
Y37022D01*
X78812D01*
Y36985D01*
X78886D01*
Y36948D01*
X78997D01*
Y36911D01*
X79072D01*
Y36874D01*
X79146D01*
Y36836D01*
X79220D01*
Y36799D01*
X79295D01*
Y36762D01*
X79369D01*
Y36725D01*
X79444D01*
Y36688D01*
X79518D01*
Y36651D01*
X79592D01*
Y36613D01*
X79667D01*
Y36576D01*
X79778D01*
Y36539D01*
X79852D01*
Y36502D01*
X79927D01*
Y36465D01*
X80001D01*
Y36428D01*
X80076D01*
Y36390D01*
X80150D01*
Y36353D01*
X80224D01*
Y36316D01*
X80299D01*
Y36279D01*
X80373D01*
Y36242D01*
X80447D01*
Y36204D01*
X80522D01*
Y36167D01*
X80633D01*
Y36130D01*
X80708D01*
Y36093D01*
X80782D01*
Y36056D01*
X80856D01*
Y36019D01*
X80931D01*
Y35981D01*
X81005D01*
Y35944D01*
X81079D01*
Y35907D01*
X81154D01*
Y35870D01*
X81228D01*
Y35833D01*
X81302D01*
Y35796D01*
X81414D01*
Y35758D01*
X81488D01*
Y35721D01*
X81563D01*
Y35684D01*
X81637D01*
Y35647D01*
X81711D01*
Y35610D01*
X81786D01*
Y35572D01*
X81860D01*
Y35535D01*
X81934D01*
Y35498D01*
X82009D01*
Y35461D01*
X82083D01*
Y35424D01*
X82157D01*
Y35387D01*
X82269D01*
Y35350D01*
X82343D01*
Y35312D01*
X82418D01*
Y35275D01*
X82492D01*
Y35238D01*
X82566D01*
Y35201D01*
X82640D01*
Y35164D01*
X82715D01*
Y35126D01*
X82789D01*
Y35089D01*
X82864D01*
Y35052D01*
X82975D01*
Y35015D01*
X83049D01*
Y34978D01*
X83124D01*
Y34941D01*
X83198D01*
Y34903D01*
X83272D01*
Y34866D01*
X83310D01*
Y34829D01*
Y34792D01*
Y34755D01*
Y34718D01*
Y34680D01*
Y34643D01*
Y34606D01*
Y34569D01*
Y34532D01*
Y34495D01*
Y34457D01*
Y34420D01*
Y34383D01*
Y34346D01*
Y34309D01*
Y34271D01*
Y34234D01*
Y34197D01*
Y34160D01*
Y34123D01*
Y34086D01*
Y34048D01*
Y34011D01*
Y33974D01*
X83235D01*
Y34011D01*
X83161D01*
Y34048D01*
X83087D01*
Y34086D01*
X83012D01*
Y34123D01*
X82938D01*
Y34160D01*
X82864D01*
Y34197D01*
X82789D01*
Y34234D01*
X82715D01*
Y34271D01*
X82603D01*
Y34309D01*
X82529D01*
Y34346D01*
X82455D01*
Y34383D01*
X82380D01*
Y34420D01*
X82306D01*
Y34457D01*
X82232D01*
Y34495D01*
X82157D01*
Y34532D01*
X82083D01*
Y34569D01*
X82009D01*
Y34606D01*
X81934D01*
Y34643D01*
X81823D01*
Y34680D01*
X81748D01*
Y34718D01*
X81674D01*
Y34755D01*
X81600D01*
Y34792D01*
X81525D01*
Y34829D01*
X81451D01*
Y34866D01*
X81377D01*
Y34903D01*
X81302D01*
Y34941D01*
X81228D01*
Y34978D01*
X81154D01*
Y35015D01*
X81079D01*
Y35052D01*
X80968D01*
Y35089D01*
X80893D01*
Y35126D01*
X80819D01*
Y35164D01*
X80745D01*
Y35201D01*
X80670D01*
Y35238D01*
X80596D01*
Y35275D01*
X80522D01*
Y35312D01*
X80447D01*
Y35350D01*
X80373D01*
Y35387D01*
X80299D01*
Y35424D01*
X80187D01*
Y35461D01*
X80113D01*
Y35498D01*
X80038D01*
Y35535D01*
X79964D01*
Y35572D01*
X79890D01*
Y35610D01*
X79815D01*
Y35647D01*
X79741D01*
Y35684D01*
X79667D01*
Y35721D01*
X79592D01*
Y35758D01*
X79518D01*
Y35796D01*
X79444D01*
Y35833D01*
X79332D01*
Y35870D01*
X79258D01*
Y35907D01*
X79183D01*
Y35944D01*
X79109D01*
Y35981D01*
X79035D01*
Y36019D01*
X78960D01*
Y36056D01*
X78886D01*
Y36093D01*
X78812D01*
Y36130D01*
X78737D01*
Y36167D01*
X78663D01*
Y36204D01*
X78551D01*
Y36242D01*
X78477D01*
Y36279D01*
X78403D01*
Y36316D01*
X78328D01*
Y36353D01*
X78254D01*
Y36390D01*
X78180D01*
Y36428D01*
X78105D01*
Y36465D01*
X78031D01*
Y36502D01*
X77957D01*
Y36539D01*
X77882D01*
Y36576D01*
X77808D01*
Y36613D01*
X77696D01*
Y36651D01*
X77622D01*
Y36688D01*
X77548D01*
Y36725D01*
X77473D01*
Y36762D01*
X77399D01*
Y36799D01*
X77325D01*
Y36836D01*
X77250D01*
Y36874D01*
X77176D01*
Y36911D01*
X77102D01*
Y36948D01*
X77027D01*
Y36985D01*
X76916D01*
Y37022D01*
X76841D01*
Y37060D01*
X76767D01*
Y37097D01*
X76693D01*
Y37134D01*
X76618D01*
Y37171D01*
X76544D01*
Y37208D01*
X76470D01*
Y37245D01*
X76395D01*
Y37282D01*
X76321D01*
Y37320D01*
X76247D01*
Y37357D01*
X76172D01*
Y37394D01*
X76061D01*
Y37431D01*
X75986D01*
Y37468D01*
X75912D01*
Y37506D01*
X75838D01*
Y37543D01*
X75763D01*
Y37580D01*
X75615D01*
Y37543D01*
X75540D01*
Y37506D01*
X75466D01*
Y37468D01*
X75392D01*
Y37431D01*
X75317D01*
Y37394D01*
X75206D01*
Y37357D01*
X75131D01*
Y37320D01*
X75057D01*
Y37282D01*
X74983D01*
Y37245D01*
X74908D01*
Y37208D01*
X74834D01*
Y37171D01*
X74760D01*
Y37134D01*
X74685D01*
Y37097D01*
X74611D01*
Y37060D01*
X74537D01*
Y37022D01*
X74462D01*
Y36985D01*
X74351D01*
Y36948D01*
X74276D01*
Y36911D01*
X74202D01*
Y36874D01*
X74128D01*
Y36836D01*
X74053D01*
Y36799D01*
X73979D01*
Y36762D01*
X73905D01*
Y36725D01*
X73830D01*
Y36688D01*
X73756D01*
Y36651D01*
X73682D01*
Y36613D01*
X73570D01*
Y36576D01*
X73496D01*
Y36539D01*
X73421D01*
Y36502D01*
X73347D01*
Y36465D01*
X73273D01*
Y36428D01*
X73198D01*
Y36390D01*
X73124D01*
Y36353D01*
X73050D01*
Y36316D01*
X72975D01*
Y36279D01*
X72901D01*
Y36242D01*
X72789D01*
Y36204D01*
X72715D01*
Y36167D01*
X72641D01*
Y36130D01*
X72566D01*
Y36093D01*
X72492D01*
Y36056D01*
X72418D01*
Y36019D01*
X72343D01*
Y35981D01*
X72269D01*
Y35944D01*
X72195D01*
Y35907D01*
X72120D01*
Y35870D01*
X72046D01*
Y35833D01*
X71934D01*
Y35796D01*
X71860D01*
Y35758D01*
X71786D01*
Y35721D01*
X71711D01*
Y35684D01*
X71637D01*
Y35647D01*
X71563D01*
Y35610D01*
X71488D01*
Y35572D01*
X71414D01*
Y35535D01*
X71340D01*
Y35498D01*
X71265D01*
Y35461D01*
X71154D01*
Y35424D01*
X71079D01*
Y35387D01*
X71005D01*
Y35350D01*
X70931D01*
Y35312D01*
X70856D01*
Y35275D01*
X70782D01*
Y35238D01*
X70708D01*
Y35201D01*
X70633D01*
Y35164D01*
X70559D01*
Y35126D01*
X70485D01*
Y35089D01*
X70410D01*
Y35052D01*
X70299D01*
Y35015D01*
X70224D01*
Y34978D01*
X70150D01*
Y34941D01*
X70076D01*
Y34903D01*
X70001D01*
Y34866D01*
X69927D01*
Y34829D01*
X69853D01*
Y34792D01*
X69778D01*
Y34755D01*
X69704D01*
Y34718D01*
X69592D01*
Y34680D01*
X69518D01*
Y34643D01*
X69444D01*
Y34606D01*
X69369D01*
Y34569D01*
X69295D01*
Y34532D01*
X69221D01*
Y34495D01*
X69146D01*
Y34457D01*
X69072D01*
Y34420D01*
X68998D01*
Y34383D01*
X68923D01*
Y34346D01*
X68849D01*
Y34309D01*
X68775D01*
Y34271D01*
X68663D01*
Y34234D01*
X68589D01*
Y34197D01*
X68514D01*
Y34160D01*
X68440D01*
Y34123D01*
X68366D01*
Y34086D01*
X68291D01*
Y34048D01*
X68217D01*
Y34011D01*
X68143D01*
Y33974D01*
X68068D01*
Y34011D01*
Y34048D01*
Y34086D01*
Y34123D01*
Y34160D01*
Y34197D01*
Y34234D01*
Y34271D01*
Y34309D01*
Y34346D01*
Y34383D01*
Y34420D01*
Y34457D01*
Y34495D01*
Y34532D01*
Y34569D01*
Y34606D01*
Y34643D01*
Y34680D01*
Y34718D01*
Y34755D01*
Y34792D01*
Y34829D01*
Y34866D01*
X68105D01*
Y34903D01*
X68180D01*
Y34941D01*
X68254D01*
Y34978D01*
X68328D01*
Y35015D01*
X68403D01*
Y35052D01*
X68514D01*
Y35089D01*
X68589D01*
Y35126D01*
X68663D01*
Y35164D01*
X68737D01*
Y35201D01*
X68812D01*
Y35238D01*
X68886D01*
Y35275D01*
X68960D01*
Y35312D01*
X69035D01*
Y35350D01*
X69109D01*
Y35387D01*
X69183D01*
Y35424D01*
X69295D01*
Y35461D01*
X69369D01*
Y35498D01*
X69444D01*
Y35535D01*
X69518D01*
Y35572D01*
X69592D01*
Y35610D01*
X69667D01*
Y35647D01*
X69741D01*
Y35684D01*
X69815D01*
Y35721D01*
X69890D01*
Y35758D01*
X69964D01*
Y35796D01*
X70076D01*
Y35833D01*
X70150D01*
Y35870D01*
X70224D01*
Y35907D01*
X70299D01*
Y35944D01*
X70373D01*
Y35981D01*
X70447D01*
Y36019D01*
X70522D01*
Y36056D01*
X70596D01*
Y36093D01*
X70670D01*
Y36130D01*
X70745D01*
Y36167D01*
X70819D01*
Y36204D01*
X70931D01*
Y36242D01*
X71005D01*
Y36279D01*
X71079D01*
Y36316D01*
X71154D01*
Y36353D01*
X71228D01*
Y36390D01*
X71302D01*
Y36428D01*
X71377D01*
Y36465D01*
X71451D01*
Y36502D01*
X71526D01*
Y36539D01*
X71600D01*
Y36576D01*
X71711D01*
Y36613D01*
X71786D01*
Y36651D01*
X71860D01*
Y36688D01*
X71934D01*
Y36725D01*
X72009D01*
Y36762D01*
X72083D01*
Y36799D01*
X72157D01*
Y36836D01*
X72232D01*
Y36874D01*
X72306D01*
Y36911D01*
X72381D01*
Y36948D01*
X72455D01*
Y36985D01*
X72566D01*
Y37022D01*
X72641D01*
Y37060D01*
X72715D01*
Y37097D01*
X72789D01*
Y37134D01*
X72864D01*
Y37171D01*
X72938D01*
Y37208D01*
X73012D01*
Y37245D01*
X73087D01*
Y37282D01*
X73161D01*
Y37320D01*
X73235D01*
Y37357D01*
X73347D01*
Y37394D01*
X73421D01*
Y37431D01*
X73496D01*
Y37468D01*
X73570D01*
Y37506D01*
X73644D01*
Y37543D01*
X73719D01*
Y37580D01*
X73793D01*
Y37617D01*
X73867D01*
Y37654D01*
X73942D01*
Y37691D01*
X74016D01*
Y37729D01*
X74090D01*
Y37766D01*
X74165D01*
Y37803D01*
X74276D01*
Y37840D01*
X74351D01*
Y37877D01*
X74425D01*
Y37914D01*
X74499D01*
Y37952D01*
X74574D01*
Y37989D01*
X74648D01*
Y38026D01*
X74722D01*
Y38063D01*
X74797D01*
Y38100D01*
X74871D01*
Y38138D01*
X74983D01*
Y38175D01*
X75057D01*
Y38212D01*
X75131D01*
Y38249D01*
X75206D01*
Y38286D01*
X75280D01*
Y38323D01*
X75354D01*
Y38361D01*
X75429D01*
Y38398D01*
X75503D01*
Y38435D01*
X75577D01*
Y38472D01*
X75652D01*
Y38509D01*
X75726D01*
Y38472D01*
D02*
G37*
G36*
X75763Y36725D02*
X75838D01*
Y36688D01*
X75912D01*
Y36651D01*
X75986D01*
Y36613D01*
X76061D01*
Y36576D01*
X76135D01*
Y36539D01*
X76209D01*
Y36502D01*
X76321D01*
Y36465D01*
X76395D01*
Y36428D01*
X76470D01*
Y36390D01*
X76544D01*
Y36353D01*
X76618D01*
Y36316D01*
X76693D01*
Y36279D01*
X76767D01*
Y36242D01*
X76841D01*
Y36204D01*
X76916D01*
Y36167D01*
X76990D01*
Y36130D01*
X77064D01*
Y36093D01*
X77176D01*
Y36056D01*
X77250D01*
Y36019D01*
X77325D01*
Y35981D01*
X77399D01*
Y35944D01*
X77473D01*
Y35907D01*
X77548D01*
Y35870D01*
X77622D01*
Y35833D01*
X77696D01*
Y35796D01*
X77771D01*
Y35758D01*
X77845D01*
Y35721D01*
X77957D01*
Y35684D01*
X78031D01*
Y35647D01*
X78105D01*
Y35610D01*
X78180D01*
Y35572D01*
X78254D01*
Y35535D01*
X78328D01*
Y35498D01*
X78403D01*
Y35461D01*
X78477D01*
Y35424D01*
X78551D01*
Y35387D01*
X78626D01*
Y35350D01*
X78737D01*
Y35312D01*
X78812D01*
Y35275D01*
X78886D01*
Y35238D01*
X78960D01*
Y35201D01*
X79035D01*
Y35164D01*
X79109D01*
Y35126D01*
X79183D01*
Y35089D01*
X79258D01*
Y35052D01*
X79332D01*
Y35015D01*
X79406D01*
Y34978D01*
X79518D01*
Y34941D01*
X79592D01*
Y34903D01*
X79667D01*
Y34866D01*
X79741D01*
Y34829D01*
X79815D01*
Y34792D01*
X79890D01*
Y34755D01*
X79964D01*
Y34718D01*
X80038D01*
Y34680D01*
X80113D01*
Y34643D01*
X80187D01*
Y34606D01*
X80299D01*
Y34569D01*
X80373D01*
Y34532D01*
X80447D01*
Y34495D01*
X80522D01*
Y34457D01*
X80596D01*
Y34420D01*
X80670D01*
Y34383D01*
X80745D01*
Y34346D01*
X80819D01*
Y34309D01*
X80893D01*
Y34271D01*
X80968D01*
Y34234D01*
X81079D01*
Y34197D01*
X81154D01*
Y34160D01*
X81228D01*
Y34123D01*
X81302D01*
Y34086D01*
X81377D01*
Y34048D01*
X81451D01*
Y34011D01*
X81525D01*
Y33974D01*
X81600D01*
Y33937D01*
X81674D01*
Y33900D01*
X81748D01*
Y33863D01*
X81860D01*
Y33825D01*
X81934D01*
Y33788D01*
X82009D01*
Y33751D01*
X82083D01*
Y33714D01*
X82157D01*
Y33677D01*
X82232D01*
Y33639D01*
X82306D01*
Y33602D01*
X82380D01*
Y33565D01*
X82455D01*
Y33528D01*
X82529D01*
Y33491D01*
X82640D01*
Y33454D01*
X82715D01*
Y33416D01*
X82789D01*
Y33379D01*
X82864D01*
Y33342D01*
X82938D01*
Y33305D01*
Y33268D01*
X68440D01*
Y33305D01*
Y33342D01*
X68514D01*
Y33379D01*
X68589D01*
Y33416D01*
X68663D01*
Y33454D01*
X68737D01*
Y33491D01*
X68849D01*
Y33528D01*
X68923D01*
Y33565D01*
X68998D01*
Y33602D01*
X69072D01*
Y33639D01*
X69146D01*
Y33677D01*
X69221D01*
Y33714D01*
X69295D01*
Y33751D01*
X69369D01*
Y33788D01*
X69444D01*
Y33825D01*
X69518D01*
Y33863D01*
X69630D01*
Y33900D01*
X69704D01*
Y33937D01*
X69778D01*
Y33974D01*
X69853D01*
Y34011D01*
X69927D01*
Y34048D01*
X70001D01*
Y34086D01*
X70076D01*
Y34123D01*
X70150D01*
Y34160D01*
X70224D01*
Y34197D01*
X70299D01*
Y34234D01*
X70410D01*
Y34271D01*
X70485D01*
Y34309D01*
X70559D01*
Y34346D01*
X70633D01*
Y34383D01*
X70708D01*
Y34420D01*
X70782D01*
Y34457D01*
X70856D01*
Y34495D01*
X70931D01*
Y34532D01*
X71005D01*
Y34569D01*
X71079D01*
Y34606D01*
X71191D01*
Y34643D01*
X71265D01*
Y34680D01*
X71340D01*
Y34718D01*
X71414D01*
Y34755D01*
X71488D01*
Y34792D01*
X71563D01*
Y34829D01*
X71637D01*
Y34866D01*
X71711D01*
Y34903D01*
X71786D01*
Y34941D01*
X71860D01*
Y34978D01*
X71972D01*
Y35015D01*
X72046D01*
Y35052D01*
X72120D01*
Y35089D01*
X72195D01*
Y35126D01*
X72269D01*
Y35164D01*
X72343D01*
Y35201D01*
X72418D01*
Y35238D01*
X72492D01*
Y35275D01*
X72566D01*
Y35312D01*
X72641D01*
Y35350D01*
X72752D01*
Y35387D01*
X72827D01*
Y35424D01*
X72901D01*
Y35461D01*
X72975D01*
Y35498D01*
X73050D01*
Y35535D01*
X73124D01*
Y35572D01*
X73198D01*
Y35610D01*
X73273D01*
Y35647D01*
X73347D01*
Y35684D01*
X73421D01*
Y35721D01*
X73533D01*
Y35758D01*
X73607D01*
Y35796D01*
X73682D01*
Y35833D01*
X73756D01*
Y35870D01*
X73830D01*
Y35907D01*
X73905D01*
Y35944D01*
X73979D01*
Y35981D01*
X74053D01*
Y36019D01*
X74128D01*
Y36056D01*
X74202D01*
Y36093D01*
X74313D01*
Y36130D01*
X74388D01*
Y36167D01*
X74462D01*
Y36204D01*
X74537D01*
Y36242D01*
X74611D01*
Y36279D01*
X74685D01*
Y36316D01*
X74760D01*
Y36353D01*
X74834D01*
Y36390D01*
X74908D01*
Y36428D01*
X74983D01*
Y36465D01*
X75057D01*
Y36502D01*
X75169D01*
Y36539D01*
X75243D01*
Y36576D01*
X75317D01*
Y36613D01*
X75392D01*
Y36651D01*
X75466D01*
Y36688D01*
X75540D01*
Y36725D01*
X75615D01*
Y36762D01*
X75763D01*
Y36725D01*
D02*
G37*
G36*
X74834Y31223D02*
Y31186D01*
Y31149D01*
Y31112D01*
Y31074D01*
Y31037D01*
Y31000D01*
Y30963D01*
Y30926D01*
Y30889D01*
Y30851D01*
Y30814D01*
Y30777D01*
Y30740D01*
Y30703D01*
Y30665D01*
X74871D01*
Y30628D01*
Y30591D01*
Y30554D01*
Y30517D01*
Y30480D01*
Y30443D01*
Y30405D01*
Y30368D01*
Y30331D01*
Y30294D01*
Y30257D01*
Y30219D01*
Y30182D01*
Y30145D01*
Y30108D01*
Y30071D01*
Y30034D01*
Y29996D01*
Y29959D01*
Y29922D01*
Y29885D01*
Y29848D01*
Y29811D01*
Y29773D01*
Y29736D01*
Y29699D01*
Y29662D01*
Y29625D01*
Y29588D01*
Y29550D01*
Y29513D01*
Y29476D01*
Y29439D01*
Y29402D01*
Y29364D01*
Y29327D01*
Y29290D01*
Y29253D01*
Y29216D01*
Y29179D01*
Y29141D01*
Y29104D01*
Y29067D01*
Y29030D01*
Y28993D01*
Y28956D01*
Y28918D01*
Y28881D01*
Y28844D01*
X74908D01*
Y28807D01*
Y28770D01*
Y28732D01*
Y28695D01*
Y28658D01*
Y28621D01*
Y28584D01*
Y28547D01*
Y28509D01*
Y28472D01*
Y28435D01*
Y28398D01*
Y28361D01*
Y28324D01*
Y28286D01*
Y28249D01*
Y28212D01*
Y28175D01*
Y28138D01*
Y28100D01*
Y28063D01*
Y28026D01*
Y27989D01*
Y27952D01*
Y27915D01*
Y27878D01*
Y27840D01*
Y27803D01*
Y27766D01*
Y27729D01*
Y27692D01*
Y27654D01*
Y27617D01*
Y27580D01*
Y27543D01*
Y27506D01*
Y27468D01*
Y27431D01*
Y27394D01*
Y27357D01*
Y27320D01*
Y27283D01*
Y27246D01*
Y27208D01*
Y27171D01*
Y27134D01*
Y27097D01*
Y27060D01*
Y27022D01*
Y26985D01*
X74945D01*
Y26948D01*
Y26911D01*
Y26874D01*
Y26837D01*
Y26799D01*
Y26762D01*
Y26725D01*
Y26688D01*
Y26651D01*
Y26614D01*
Y26576D01*
Y26539D01*
Y26502D01*
Y26465D01*
Y26428D01*
Y26390D01*
Y26353D01*
Y26316D01*
Y26279D01*
Y26242D01*
Y26205D01*
Y26168D01*
Y26130D01*
Y26093D01*
Y26056D01*
Y26019D01*
Y25982D01*
Y25944D01*
Y25907D01*
Y25870D01*
Y25833D01*
Y25796D01*
Y25758D01*
Y25721D01*
Y25684D01*
Y25647D01*
Y25610D01*
Y25573D01*
Y25536D01*
Y25498D01*
Y25461D01*
Y25424D01*
Y25387D01*
Y25350D01*
Y25312D01*
Y25275D01*
Y25238D01*
Y25201D01*
Y25164D01*
Y25127D01*
X74983D01*
Y25089D01*
Y25052D01*
Y25015D01*
Y24978D01*
Y24941D01*
Y24904D01*
Y24866D01*
Y24829D01*
Y24792D01*
Y24755D01*
Y24718D01*
Y24680D01*
Y24643D01*
Y24606D01*
Y24569D01*
Y24532D01*
Y24495D01*
Y24457D01*
Y24420D01*
Y24383D01*
Y24346D01*
Y24309D01*
Y24272D01*
Y24234D01*
Y24197D01*
Y24160D01*
Y24123D01*
Y24086D01*
Y24048D01*
Y24011D01*
Y23974D01*
Y23937D01*
Y23900D01*
Y23863D01*
Y23825D01*
Y23788D01*
Y23751D01*
Y23714D01*
Y23677D01*
Y23640D01*
Y23602D01*
Y23565D01*
Y23528D01*
Y23491D01*
Y23454D01*
Y23417D01*
Y23379D01*
Y23342D01*
Y23305D01*
X75020D01*
Y23268D01*
Y23231D01*
Y23193D01*
Y23156D01*
Y23119D01*
Y23082D01*
Y23045D01*
Y23008D01*
Y22971D01*
Y22933D01*
Y22896D01*
Y22859D01*
Y22822D01*
Y22785D01*
Y22747D01*
Y22710D01*
Y22673D01*
Y22636D01*
Y22599D01*
Y22561D01*
X73607D01*
Y22599D01*
Y22636D01*
Y22673D01*
Y22710D01*
Y22747D01*
Y22785D01*
Y22822D01*
Y22859D01*
Y22896D01*
Y22933D01*
Y22971D01*
Y23008D01*
Y23045D01*
Y23082D01*
Y23119D01*
Y23156D01*
Y23193D01*
Y23231D01*
Y23268D01*
Y23305D01*
Y23342D01*
Y23379D01*
Y23417D01*
Y23454D01*
Y23491D01*
Y23528D01*
Y23565D01*
Y23602D01*
Y23640D01*
Y23677D01*
Y23714D01*
Y23751D01*
Y23788D01*
Y23825D01*
Y23863D01*
Y23900D01*
Y23937D01*
Y23974D01*
X73644D01*
Y24011D01*
Y24048D01*
Y24086D01*
Y24123D01*
Y24160D01*
Y24197D01*
Y24234D01*
Y24272D01*
Y24309D01*
Y24346D01*
Y24383D01*
Y24420D01*
Y24457D01*
Y24495D01*
Y24532D01*
Y24569D01*
Y24606D01*
Y24643D01*
Y24680D01*
Y24718D01*
Y24755D01*
Y24792D01*
Y24829D01*
Y24866D01*
Y24904D01*
Y24941D01*
Y24978D01*
Y25015D01*
Y25052D01*
Y25089D01*
Y25127D01*
Y25164D01*
Y25201D01*
Y25238D01*
Y25275D01*
Y25312D01*
Y25350D01*
Y25387D01*
Y25424D01*
Y25461D01*
Y25498D01*
Y25536D01*
Y25573D01*
Y25610D01*
Y25647D01*
Y25684D01*
Y25721D01*
Y25758D01*
Y25796D01*
Y25833D01*
X73682D01*
Y25870D01*
Y25907D01*
Y25944D01*
Y25982D01*
Y26019D01*
Y26056D01*
Y26093D01*
Y26130D01*
Y26168D01*
Y26205D01*
Y26242D01*
Y26279D01*
Y26316D01*
Y26353D01*
Y26390D01*
Y26428D01*
Y26465D01*
Y26502D01*
Y26539D01*
Y26576D01*
Y26614D01*
Y26651D01*
Y26688D01*
Y26725D01*
Y26762D01*
Y26799D01*
Y26837D01*
Y26874D01*
Y26911D01*
Y26948D01*
Y26985D01*
Y27022D01*
Y27060D01*
Y27097D01*
Y27134D01*
Y27171D01*
Y27208D01*
Y27246D01*
Y27283D01*
Y27320D01*
Y27357D01*
Y27394D01*
Y27431D01*
Y27468D01*
Y27506D01*
Y27543D01*
Y27580D01*
Y27617D01*
Y27654D01*
Y27692D01*
X73719D01*
Y27729D01*
Y27766D01*
Y27803D01*
Y27840D01*
Y27878D01*
Y27915D01*
Y27952D01*
Y27989D01*
Y28026D01*
Y28063D01*
Y28100D01*
Y28138D01*
Y28175D01*
Y28212D01*
Y28249D01*
Y28286D01*
Y28324D01*
Y28361D01*
Y28398D01*
Y28435D01*
Y28472D01*
Y28509D01*
Y28547D01*
Y28584D01*
Y28621D01*
Y28658D01*
Y28695D01*
Y28732D01*
Y28770D01*
Y28807D01*
Y28844D01*
Y28881D01*
Y28918D01*
Y28956D01*
Y28993D01*
Y29030D01*
Y29067D01*
Y29104D01*
Y29141D01*
Y29179D01*
Y29216D01*
Y29253D01*
Y29290D01*
Y29327D01*
Y29364D01*
Y29402D01*
Y29439D01*
Y29476D01*
Y29513D01*
Y29550D01*
X73756D01*
Y29588D01*
Y29625D01*
Y29662D01*
Y29699D01*
Y29736D01*
Y29773D01*
Y29811D01*
Y29848D01*
Y29885D01*
Y29922D01*
Y29959D01*
Y29996D01*
Y30034D01*
Y30071D01*
Y30108D01*
Y30145D01*
Y30182D01*
Y30219D01*
Y30257D01*
Y30294D01*
Y30331D01*
Y30368D01*
Y30405D01*
Y30443D01*
Y30480D01*
Y30517D01*
Y30554D01*
Y30591D01*
Y30628D01*
Y30665D01*
Y30703D01*
Y30740D01*
Y30777D01*
Y30814D01*
Y30851D01*
Y30889D01*
Y30926D01*
Y30963D01*
Y31000D01*
Y31037D01*
Y31074D01*
Y31112D01*
Y31149D01*
Y31186D01*
Y31223D01*
X73793D01*
Y31260D01*
X74834D01*
Y31223D01*
D02*
G37*
G36*
X72083D02*
Y31186D01*
Y31149D01*
Y31112D01*
Y31074D01*
Y31037D01*
Y31000D01*
Y30963D01*
Y30926D01*
Y30889D01*
Y30851D01*
Y30814D01*
Y30777D01*
Y30740D01*
Y30703D01*
Y30665D01*
Y30628D01*
Y30591D01*
Y30554D01*
Y30517D01*
Y30480D01*
Y30443D01*
Y30405D01*
Y30368D01*
Y30331D01*
Y30294D01*
Y30257D01*
Y30219D01*
Y30182D01*
Y30145D01*
Y30108D01*
Y30071D01*
X72120D01*
Y30034D01*
Y29996D01*
Y29959D01*
Y29922D01*
Y29885D01*
Y29848D01*
Y29811D01*
Y29773D01*
Y29736D01*
Y29699D01*
Y29662D01*
Y29625D01*
Y29588D01*
Y29550D01*
Y29513D01*
Y29476D01*
Y29439D01*
Y29402D01*
Y29364D01*
Y29327D01*
Y29290D01*
Y29253D01*
Y29216D01*
Y29179D01*
Y29141D01*
Y29104D01*
Y29067D01*
Y29030D01*
Y28993D01*
Y28956D01*
Y28918D01*
Y28881D01*
Y28844D01*
Y28807D01*
Y28770D01*
Y28732D01*
Y28695D01*
Y28658D01*
Y28621D01*
Y28584D01*
Y28547D01*
Y28509D01*
Y28472D01*
Y28435D01*
Y28398D01*
Y28361D01*
Y28324D01*
Y28286D01*
Y28249D01*
Y28212D01*
X72157D01*
Y28175D01*
Y28138D01*
Y28100D01*
Y28063D01*
Y28026D01*
Y27989D01*
Y27952D01*
Y27915D01*
Y27878D01*
Y27840D01*
Y27803D01*
Y27766D01*
Y27729D01*
Y27692D01*
Y27654D01*
Y27617D01*
Y27580D01*
Y27543D01*
Y27506D01*
Y27468D01*
Y27431D01*
Y27394D01*
Y27357D01*
Y27320D01*
Y27283D01*
Y27246D01*
Y27208D01*
Y27171D01*
Y27134D01*
Y27097D01*
Y27060D01*
Y27022D01*
Y26985D01*
Y26948D01*
Y26911D01*
Y26874D01*
Y26837D01*
Y26799D01*
Y26762D01*
Y26725D01*
Y26688D01*
Y26651D01*
Y26614D01*
Y26576D01*
Y26539D01*
Y26502D01*
Y26465D01*
Y26428D01*
Y26390D01*
Y26353D01*
Y26316D01*
X72195D01*
Y26279D01*
Y26242D01*
Y26205D01*
Y26168D01*
Y26130D01*
Y26093D01*
Y26056D01*
Y26019D01*
Y25982D01*
Y25944D01*
Y25907D01*
Y25870D01*
Y25833D01*
Y25796D01*
Y25758D01*
Y25721D01*
Y25684D01*
Y25647D01*
Y25610D01*
Y25573D01*
Y25536D01*
Y25498D01*
Y25461D01*
Y25424D01*
Y25387D01*
Y25350D01*
Y25312D01*
Y25275D01*
Y25238D01*
Y25201D01*
Y25164D01*
Y25127D01*
Y25089D01*
Y25052D01*
Y25015D01*
Y24978D01*
Y24941D01*
Y24904D01*
Y24866D01*
Y24829D01*
Y24792D01*
Y24755D01*
Y24718D01*
Y24680D01*
Y24643D01*
Y24606D01*
Y24569D01*
Y24532D01*
Y24495D01*
Y24457D01*
X72232D01*
Y24420D01*
Y24383D01*
Y24346D01*
Y24309D01*
Y24272D01*
Y24234D01*
Y24197D01*
Y24160D01*
Y24123D01*
Y24086D01*
Y24048D01*
Y24011D01*
Y23974D01*
Y23937D01*
Y23900D01*
Y23863D01*
Y23825D01*
Y23788D01*
Y23751D01*
Y23714D01*
Y23677D01*
Y23640D01*
Y23602D01*
Y23565D01*
Y23528D01*
Y23491D01*
Y23454D01*
Y23417D01*
Y23379D01*
Y23342D01*
Y23305D01*
Y23268D01*
Y23231D01*
Y23193D01*
Y23156D01*
Y23119D01*
Y23082D01*
Y23045D01*
Y23008D01*
Y22971D01*
Y22933D01*
Y22896D01*
Y22859D01*
Y22822D01*
Y22785D01*
Y22747D01*
Y22710D01*
Y22673D01*
Y22636D01*
Y22599D01*
Y22561D01*
X70819D01*
Y22599D01*
Y22636D01*
Y22673D01*
Y22710D01*
Y22747D01*
Y22785D01*
Y22822D01*
X70856D01*
Y22859D01*
Y22896D01*
Y22933D01*
Y22971D01*
Y23008D01*
Y23045D01*
Y23082D01*
Y23119D01*
Y23156D01*
Y23193D01*
Y23231D01*
Y23268D01*
Y23305D01*
Y23342D01*
Y23379D01*
Y23417D01*
Y23454D01*
Y23491D01*
Y23528D01*
Y23565D01*
Y23602D01*
Y23640D01*
Y23677D01*
Y23714D01*
Y23751D01*
Y23788D01*
Y23825D01*
Y23863D01*
Y23900D01*
Y23937D01*
Y23974D01*
Y24011D01*
Y24048D01*
Y24086D01*
Y24123D01*
Y24160D01*
Y24197D01*
Y24234D01*
Y24272D01*
Y24309D01*
Y24346D01*
Y24383D01*
Y24420D01*
Y24457D01*
Y24495D01*
Y24532D01*
Y24569D01*
Y24606D01*
Y24643D01*
Y24680D01*
X70894D01*
Y24718D01*
Y24755D01*
Y24792D01*
Y24829D01*
Y24866D01*
Y24904D01*
Y24941D01*
Y24978D01*
Y25015D01*
Y25052D01*
Y25089D01*
Y25127D01*
Y25164D01*
Y25201D01*
Y25238D01*
Y25275D01*
Y25312D01*
Y25350D01*
Y25387D01*
Y25424D01*
Y25461D01*
Y25498D01*
Y25536D01*
Y25573D01*
Y25610D01*
Y25647D01*
Y25684D01*
Y25721D01*
Y25758D01*
Y25796D01*
Y25833D01*
Y25870D01*
Y25907D01*
Y25944D01*
Y25982D01*
Y26019D01*
Y26056D01*
Y26093D01*
Y26130D01*
Y26168D01*
Y26205D01*
Y26242D01*
Y26279D01*
Y26316D01*
Y26353D01*
Y26390D01*
Y26428D01*
Y26465D01*
Y26502D01*
Y26539D01*
X70931D01*
Y26576D01*
Y26614D01*
Y26651D01*
Y26688D01*
Y26725D01*
Y26762D01*
Y26799D01*
Y26837D01*
Y26874D01*
Y26911D01*
Y26948D01*
Y26985D01*
Y27022D01*
Y27060D01*
Y27097D01*
Y27134D01*
Y27171D01*
Y27208D01*
Y27246D01*
Y27283D01*
Y27320D01*
Y27357D01*
Y27394D01*
Y27431D01*
Y27468D01*
Y27506D01*
Y27543D01*
Y27580D01*
Y27617D01*
Y27654D01*
Y27692D01*
Y27729D01*
Y27766D01*
Y27803D01*
Y27840D01*
Y27878D01*
Y27915D01*
Y27952D01*
Y27989D01*
Y28026D01*
Y28063D01*
Y28100D01*
Y28138D01*
Y28175D01*
Y28212D01*
Y28249D01*
Y28286D01*
Y28324D01*
Y28361D01*
Y28398D01*
X70968D01*
Y28435D01*
Y28472D01*
Y28509D01*
Y28547D01*
Y28584D01*
Y28621D01*
Y28658D01*
Y28695D01*
Y28732D01*
Y28770D01*
Y28807D01*
Y28844D01*
Y28881D01*
Y28918D01*
Y28956D01*
Y28993D01*
Y29030D01*
Y29067D01*
Y29104D01*
Y29141D01*
Y29179D01*
Y29216D01*
Y29253D01*
Y29290D01*
Y29327D01*
Y29364D01*
Y29402D01*
Y29439D01*
Y29476D01*
Y29513D01*
Y29550D01*
Y29588D01*
Y29625D01*
Y29662D01*
Y29699D01*
Y29736D01*
Y29773D01*
Y29811D01*
Y29848D01*
Y29885D01*
Y29922D01*
Y29959D01*
Y29996D01*
Y30034D01*
Y30071D01*
Y30108D01*
Y30145D01*
Y30182D01*
Y30219D01*
Y30257D01*
X71005D01*
Y30294D01*
Y30331D01*
Y30368D01*
Y30405D01*
Y30443D01*
Y30480D01*
Y30517D01*
Y30554D01*
Y30591D01*
Y30628D01*
Y30665D01*
Y30703D01*
Y30740D01*
Y30777D01*
Y30814D01*
Y30851D01*
Y30889D01*
Y30926D01*
Y30963D01*
Y31000D01*
Y31037D01*
Y31074D01*
Y31112D01*
Y31149D01*
Y31186D01*
Y31223D01*
Y31260D01*
X72083D01*
Y31223D01*
D02*
G37*
G36*
X80373D02*
Y31186D01*
Y31149D01*
Y31112D01*
Y31074D01*
Y31037D01*
Y31000D01*
Y30963D01*
Y30926D01*
Y30889D01*
Y30851D01*
Y30814D01*
Y30777D01*
Y30740D01*
Y30703D01*
Y30665D01*
Y30628D01*
Y30591D01*
Y30554D01*
Y30517D01*
Y30480D01*
Y30443D01*
Y30405D01*
Y30368D01*
Y30331D01*
Y30294D01*
Y30257D01*
Y30219D01*
X80410D01*
Y30182D01*
Y30145D01*
Y30108D01*
Y30071D01*
Y30034D01*
Y29996D01*
Y29959D01*
Y29922D01*
Y29885D01*
Y29848D01*
Y29811D01*
Y29773D01*
Y29736D01*
Y29699D01*
Y29662D01*
Y29625D01*
Y29588D01*
Y29550D01*
Y29513D01*
Y29476D01*
Y29439D01*
Y29402D01*
Y29364D01*
Y29327D01*
Y29290D01*
Y29253D01*
Y29216D01*
Y29179D01*
Y29141D01*
Y29104D01*
Y29067D01*
Y29030D01*
Y28993D01*
Y28956D01*
Y28918D01*
Y28881D01*
Y28844D01*
Y28807D01*
Y28770D01*
Y28732D01*
Y28695D01*
Y28658D01*
Y28621D01*
Y28584D01*
Y28547D01*
Y28509D01*
Y28472D01*
Y28435D01*
Y28398D01*
Y28361D01*
X80447D01*
Y28324D01*
Y28286D01*
Y28249D01*
Y28212D01*
Y28175D01*
Y28138D01*
Y28100D01*
Y28063D01*
Y28026D01*
Y27989D01*
Y27952D01*
Y27915D01*
Y27878D01*
Y27840D01*
Y27803D01*
Y27766D01*
Y27729D01*
Y27692D01*
Y27654D01*
Y27617D01*
Y27580D01*
Y27543D01*
Y27506D01*
Y27468D01*
Y27431D01*
Y27394D01*
Y27357D01*
Y27320D01*
Y27283D01*
Y27246D01*
Y27208D01*
Y27171D01*
Y27134D01*
Y27097D01*
Y27060D01*
Y27022D01*
Y26985D01*
Y26948D01*
Y26911D01*
Y26874D01*
Y26837D01*
Y26799D01*
Y26762D01*
Y26725D01*
Y26688D01*
Y26651D01*
Y26614D01*
Y26576D01*
Y26539D01*
Y26502D01*
X80484D01*
Y26465D01*
Y26428D01*
Y26390D01*
Y26353D01*
Y26316D01*
Y26279D01*
Y26242D01*
Y26205D01*
Y26168D01*
Y26130D01*
Y26093D01*
Y26056D01*
Y26019D01*
Y25982D01*
Y25944D01*
Y25907D01*
Y25870D01*
Y25833D01*
Y25796D01*
Y25758D01*
Y25721D01*
Y25684D01*
Y25647D01*
Y25610D01*
Y25573D01*
Y25536D01*
Y25498D01*
Y25461D01*
Y25424D01*
Y25387D01*
Y25350D01*
Y25312D01*
Y25275D01*
Y25238D01*
Y25201D01*
Y25164D01*
Y25127D01*
Y25089D01*
Y25052D01*
Y25015D01*
Y24978D01*
Y24941D01*
Y24904D01*
Y24866D01*
Y24829D01*
Y24792D01*
Y24755D01*
Y24718D01*
Y24680D01*
Y24643D01*
X80522D01*
Y24606D01*
Y24569D01*
Y24532D01*
Y24495D01*
Y24457D01*
Y24420D01*
Y24383D01*
Y24346D01*
Y24309D01*
Y24272D01*
Y24234D01*
Y24197D01*
Y24160D01*
Y24123D01*
Y24086D01*
Y24048D01*
Y24011D01*
Y23974D01*
Y23937D01*
Y23900D01*
Y23863D01*
Y23825D01*
Y23788D01*
Y23751D01*
Y23714D01*
Y23677D01*
Y23640D01*
Y23602D01*
Y23565D01*
Y23528D01*
Y23491D01*
Y23454D01*
Y23417D01*
Y23379D01*
Y23342D01*
Y23305D01*
Y23268D01*
Y23231D01*
Y23193D01*
Y23156D01*
Y23119D01*
Y23082D01*
Y23045D01*
Y23008D01*
Y22971D01*
Y22933D01*
Y22896D01*
Y22859D01*
Y22822D01*
Y22785D01*
X80559D01*
Y22747D01*
Y22710D01*
Y22673D01*
Y22636D01*
Y22599D01*
X80522D01*
Y22561D01*
X79146D01*
Y22599D01*
Y22636D01*
Y22673D01*
Y22710D01*
Y22747D01*
Y22785D01*
Y22822D01*
Y22859D01*
Y22896D01*
Y22933D01*
Y22971D01*
Y23008D01*
Y23045D01*
Y23082D01*
Y23119D01*
Y23156D01*
Y23193D01*
Y23231D01*
Y23268D01*
Y23305D01*
Y23342D01*
Y23379D01*
Y23417D01*
Y23454D01*
Y23491D01*
Y23528D01*
Y23565D01*
Y23602D01*
Y23640D01*
Y23677D01*
Y23714D01*
Y23751D01*
Y23788D01*
Y23825D01*
Y23863D01*
Y23900D01*
Y23937D01*
Y23974D01*
Y24011D01*
Y24048D01*
Y24086D01*
Y24123D01*
Y24160D01*
Y24197D01*
Y24234D01*
Y24272D01*
Y24309D01*
Y24346D01*
Y24383D01*
Y24420D01*
Y24457D01*
X79183D01*
Y24495D01*
Y24532D01*
Y24569D01*
Y24606D01*
Y24643D01*
Y24680D01*
Y24718D01*
Y24755D01*
Y24792D01*
Y24829D01*
Y24866D01*
Y24904D01*
Y24941D01*
Y24978D01*
Y25015D01*
Y25052D01*
Y25089D01*
Y25127D01*
Y25164D01*
Y25201D01*
Y25238D01*
Y25275D01*
Y25312D01*
Y25350D01*
Y25387D01*
Y25424D01*
Y25461D01*
Y25498D01*
Y25536D01*
Y25573D01*
Y25610D01*
Y25647D01*
Y25684D01*
Y25721D01*
Y25758D01*
Y25796D01*
Y25833D01*
Y25870D01*
Y25907D01*
Y25944D01*
Y25982D01*
Y26019D01*
Y26056D01*
Y26093D01*
Y26130D01*
Y26168D01*
Y26205D01*
Y26242D01*
Y26279D01*
Y26316D01*
X79220D01*
Y26353D01*
Y26390D01*
Y26428D01*
Y26465D01*
Y26502D01*
Y26539D01*
Y26576D01*
Y26614D01*
Y26651D01*
Y26688D01*
Y26725D01*
Y26762D01*
Y26799D01*
Y26837D01*
Y26874D01*
Y26911D01*
Y26948D01*
Y26985D01*
Y27022D01*
Y27060D01*
Y27097D01*
Y27134D01*
Y27171D01*
Y27208D01*
Y27246D01*
Y27283D01*
Y27320D01*
Y27357D01*
Y27394D01*
Y27431D01*
Y27468D01*
Y27506D01*
Y27543D01*
Y27580D01*
Y27617D01*
Y27654D01*
Y27692D01*
Y27729D01*
Y27766D01*
Y27803D01*
Y27840D01*
Y27878D01*
Y27915D01*
Y27952D01*
Y27989D01*
Y28026D01*
Y28063D01*
Y28100D01*
Y28138D01*
Y28175D01*
X79258D01*
Y28212D01*
Y28249D01*
Y28286D01*
Y28324D01*
Y28361D01*
Y28398D01*
Y28435D01*
Y28472D01*
Y28509D01*
Y28547D01*
Y28584D01*
Y28621D01*
Y28658D01*
Y28695D01*
Y28732D01*
Y28770D01*
Y28807D01*
Y28844D01*
Y28881D01*
Y28918D01*
Y28956D01*
Y28993D01*
Y29030D01*
Y29067D01*
Y29104D01*
Y29141D01*
Y29179D01*
Y29216D01*
Y29253D01*
Y29290D01*
Y29327D01*
Y29364D01*
Y29402D01*
Y29439D01*
Y29476D01*
Y29513D01*
Y29550D01*
Y29588D01*
Y29625D01*
Y29662D01*
Y29699D01*
Y29736D01*
Y29773D01*
Y29811D01*
Y29848D01*
Y29885D01*
Y29922D01*
Y29959D01*
Y29996D01*
X79295D01*
Y30034D01*
Y30071D01*
Y30108D01*
Y30145D01*
Y30182D01*
Y30219D01*
Y30257D01*
Y30294D01*
Y30331D01*
Y30368D01*
Y30405D01*
Y30443D01*
Y30480D01*
Y30517D01*
Y30554D01*
Y30591D01*
Y30628D01*
Y30665D01*
Y30703D01*
Y30740D01*
Y30777D01*
Y30814D01*
Y30851D01*
Y30889D01*
Y30926D01*
Y30963D01*
Y31000D01*
Y31037D01*
Y31074D01*
Y31112D01*
Y31149D01*
Y31186D01*
Y31223D01*
Y31260D01*
X80373D01*
Y31223D01*
D02*
G37*
G36*
X77585D02*
X77622D01*
Y31186D01*
Y31149D01*
Y31112D01*
Y31074D01*
Y31037D01*
Y31000D01*
Y30963D01*
Y30926D01*
Y30889D01*
Y30851D01*
Y30814D01*
Y30777D01*
Y30740D01*
Y30703D01*
Y30665D01*
Y30628D01*
Y30591D01*
Y30554D01*
Y30517D01*
Y30480D01*
Y30443D01*
Y30405D01*
Y30368D01*
Y30331D01*
Y30294D01*
Y30257D01*
Y30219D01*
Y30182D01*
Y30145D01*
Y30108D01*
Y30071D01*
Y30034D01*
Y29996D01*
Y29959D01*
Y29922D01*
Y29885D01*
Y29848D01*
Y29811D01*
Y29773D01*
Y29736D01*
Y29699D01*
Y29662D01*
Y29625D01*
Y29588D01*
Y29550D01*
X77659D01*
Y29513D01*
Y29476D01*
Y29439D01*
Y29402D01*
Y29364D01*
Y29327D01*
Y29290D01*
Y29253D01*
Y29216D01*
Y29179D01*
Y29141D01*
Y29104D01*
Y29067D01*
Y29030D01*
Y28993D01*
Y28956D01*
Y28918D01*
Y28881D01*
Y28844D01*
Y28807D01*
Y28770D01*
Y28732D01*
Y28695D01*
Y28658D01*
Y28621D01*
Y28584D01*
Y28547D01*
Y28509D01*
Y28472D01*
Y28435D01*
Y28398D01*
Y28361D01*
Y28324D01*
Y28286D01*
Y28249D01*
Y28212D01*
Y28175D01*
Y28138D01*
Y28100D01*
Y28063D01*
Y28026D01*
Y27989D01*
Y27952D01*
Y27915D01*
Y27878D01*
Y27840D01*
Y27803D01*
Y27766D01*
Y27729D01*
Y27692D01*
X77696D01*
Y27654D01*
Y27617D01*
Y27580D01*
Y27543D01*
Y27506D01*
Y27468D01*
Y27431D01*
Y27394D01*
Y27357D01*
Y27320D01*
Y27283D01*
Y27246D01*
Y27208D01*
Y27171D01*
Y27134D01*
Y27097D01*
Y27060D01*
Y27022D01*
Y26985D01*
Y26948D01*
Y26911D01*
Y26874D01*
Y26837D01*
Y26799D01*
Y26762D01*
Y26725D01*
Y26688D01*
Y26651D01*
Y26614D01*
Y26576D01*
Y26539D01*
Y26502D01*
Y26465D01*
Y26428D01*
Y26390D01*
Y26353D01*
Y26316D01*
Y26279D01*
Y26242D01*
Y26205D01*
Y26168D01*
Y26130D01*
Y26093D01*
Y26056D01*
Y26019D01*
Y25982D01*
Y25944D01*
Y25907D01*
Y25870D01*
Y25833D01*
X77734D01*
Y25796D01*
Y25758D01*
Y25721D01*
Y25684D01*
Y25647D01*
Y25610D01*
Y25573D01*
Y25536D01*
Y25498D01*
Y25461D01*
Y25424D01*
Y25387D01*
Y25350D01*
Y25312D01*
Y25275D01*
Y25238D01*
Y25201D01*
Y25164D01*
Y25127D01*
Y25089D01*
Y25052D01*
Y25015D01*
Y24978D01*
Y24941D01*
Y24904D01*
Y24866D01*
Y24829D01*
Y24792D01*
Y24755D01*
Y24718D01*
Y24680D01*
Y24643D01*
Y24606D01*
Y24569D01*
Y24532D01*
Y24495D01*
Y24457D01*
Y24420D01*
Y24383D01*
Y24346D01*
Y24309D01*
Y24272D01*
Y24234D01*
Y24197D01*
Y24160D01*
Y24123D01*
Y24086D01*
Y24048D01*
Y24011D01*
Y23974D01*
X77771D01*
Y23937D01*
Y23900D01*
Y23863D01*
Y23825D01*
Y23788D01*
Y23751D01*
Y23714D01*
Y23677D01*
Y23640D01*
Y23602D01*
Y23565D01*
Y23528D01*
Y23491D01*
Y23454D01*
Y23417D01*
Y23379D01*
Y23342D01*
Y23305D01*
Y23268D01*
Y23231D01*
Y23193D01*
Y23156D01*
Y23119D01*
Y23082D01*
Y23045D01*
Y23008D01*
Y22971D01*
Y22933D01*
Y22896D01*
Y22859D01*
Y22822D01*
Y22785D01*
Y22747D01*
Y22710D01*
Y22673D01*
Y22636D01*
Y22599D01*
Y22561D01*
X76358D01*
Y22599D01*
Y22636D01*
Y22673D01*
Y22710D01*
Y22747D01*
Y22785D01*
Y22822D01*
Y22859D01*
Y22896D01*
Y22933D01*
Y22971D01*
Y23008D01*
Y23045D01*
Y23082D01*
Y23119D01*
Y23156D01*
Y23193D01*
Y23231D01*
Y23268D01*
X76395D01*
Y23305D01*
Y23342D01*
Y23379D01*
Y23417D01*
Y23454D01*
Y23491D01*
Y23528D01*
Y23565D01*
Y23602D01*
Y23640D01*
Y23677D01*
Y23714D01*
Y23751D01*
Y23788D01*
Y23825D01*
Y23863D01*
Y23900D01*
Y23937D01*
Y23974D01*
Y24011D01*
Y24048D01*
Y24086D01*
Y24123D01*
Y24160D01*
Y24197D01*
Y24234D01*
Y24272D01*
Y24309D01*
Y24346D01*
Y24383D01*
Y24420D01*
Y24457D01*
Y24495D01*
Y24532D01*
Y24569D01*
Y24606D01*
Y24643D01*
Y24680D01*
Y24718D01*
Y24755D01*
Y24792D01*
Y24829D01*
Y24866D01*
Y24904D01*
Y24941D01*
Y24978D01*
Y25015D01*
Y25052D01*
Y25089D01*
Y25127D01*
Y25164D01*
X76433D01*
Y25201D01*
Y25238D01*
Y25275D01*
Y25312D01*
Y25350D01*
Y25387D01*
Y25424D01*
Y25461D01*
Y25498D01*
Y25536D01*
Y25573D01*
Y25610D01*
Y25647D01*
Y25684D01*
Y25721D01*
Y25758D01*
Y25796D01*
Y25833D01*
Y25870D01*
Y25907D01*
Y25944D01*
Y25982D01*
Y26019D01*
Y26056D01*
Y26093D01*
Y26130D01*
Y26168D01*
Y26205D01*
Y26242D01*
Y26279D01*
Y26316D01*
Y26353D01*
Y26390D01*
Y26428D01*
Y26465D01*
Y26502D01*
Y26539D01*
Y26576D01*
Y26614D01*
Y26651D01*
Y26688D01*
Y26725D01*
Y26762D01*
Y26799D01*
Y26837D01*
Y26874D01*
Y26911D01*
Y26948D01*
Y26985D01*
Y27022D01*
X76470D01*
Y27060D01*
Y27097D01*
Y27134D01*
Y27171D01*
Y27208D01*
Y27246D01*
Y27283D01*
Y27320D01*
Y27357D01*
Y27394D01*
Y27431D01*
Y27468D01*
Y27506D01*
Y27543D01*
Y27580D01*
Y27617D01*
Y27654D01*
Y27692D01*
Y27729D01*
Y27766D01*
Y27803D01*
Y27840D01*
Y27878D01*
Y27915D01*
Y27952D01*
Y27989D01*
Y28026D01*
Y28063D01*
Y28100D01*
Y28138D01*
Y28175D01*
Y28212D01*
Y28249D01*
Y28286D01*
Y28324D01*
Y28361D01*
Y28398D01*
Y28435D01*
Y28472D01*
Y28509D01*
Y28547D01*
Y28584D01*
Y28621D01*
Y28658D01*
Y28695D01*
Y28732D01*
Y28770D01*
Y28807D01*
Y28844D01*
Y28881D01*
X76507D01*
Y28918D01*
Y28956D01*
Y28993D01*
Y29030D01*
Y29067D01*
Y29104D01*
Y29141D01*
Y29179D01*
Y29216D01*
Y29253D01*
Y29290D01*
Y29327D01*
Y29364D01*
Y29402D01*
Y29439D01*
Y29476D01*
Y29513D01*
Y29550D01*
Y29588D01*
Y29625D01*
Y29662D01*
Y29699D01*
Y29736D01*
Y29773D01*
Y29811D01*
Y29848D01*
Y29885D01*
Y29922D01*
Y29959D01*
Y29996D01*
Y30034D01*
Y30071D01*
Y30108D01*
Y30145D01*
Y30182D01*
Y30219D01*
Y30257D01*
Y30294D01*
Y30331D01*
Y30368D01*
Y30405D01*
Y30443D01*
Y30480D01*
Y30517D01*
Y30554D01*
Y30591D01*
Y30628D01*
Y30665D01*
Y30703D01*
Y30740D01*
X76544D01*
Y30777D01*
Y30814D01*
Y30851D01*
Y30889D01*
Y30926D01*
Y30963D01*
Y31000D01*
Y31037D01*
Y31074D01*
Y31112D01*
Y31149D01*
Y31186D01*
Y31223D01*
Y31260D01*
X77585D01*
Y31223D01*
D02*
G37*
D23*
X77658Y62795D02*
X79331D01*
Y61122D02*
Y62795D01*
Y41535D02*
Y43209D01*
X77658Y41535D02*
X79331D01*
X58071D02*
X59744D01*
X58071D02*
Y43209D01*
Y62795D02*
X59744D01*
X58071Y61122D02*
Y62795D01*
X43962Y44475D02*
X43306Y45131D01*
X41995D01*
X41339Y44475D01*
Y41851D01*
X41995Y41195D01*
X43306D01*
X43962Y41851D01*
X47898Y45131D02*
X45274D01*
Y43163D01*
X46586Y43819D01*
X47242D01*
X47898Y43163D01*
Y41851D01*
X47242Y41195D01*
X45930D01*
X45274Y41851D01*
X52203Y15998D02*
Y18621D01*
X51547Y19277D01*
X50235D01*
X49580Y18621D01*
Y15998D01*
X50235Y15342D01*
X51547D01*
X50891Y16654D02*
X52203Y15342D01*
X51547D02*
X52203Y15998D01*
X53515Y15342D02*
X54827D01*
X54171D01*
Y19277D01*
X53515Y18621D01*
X64962Y68898D02*
X68898Y71522D01*
X64962D02*
X68898Y68898D01*
Y72833D02*
Y74145D01*
Y73489D01*
X64962D01*
X65618Y72833D01*
X111479Y38642D02*
Y42577D01*
X113447D01*
X114103Y41921D01*
Y40610D01*
X113447Y39954D01*
X111479D01*
X112791D02*
X114103Y38642D01*
X115415D02*
X116727D01*
X116071D01*
Y42577D01*
X115415Y41921D01*
X121319Y42577D02*
X118695D01*
Y40610D01*
X120007Y41266D01*
X120663D01*
X121319Y40610D01*
Y39298D01*
X120663Y38642D01*
X119351D01*
X118695Y39298D01*
X112779Y50542D02*
Y54478D01*
X114747D01*
X115403Y53821D01*
Y52510D01*
X114747Y51854D01*
X112779D01*
X114091D02*
X115403Y50542D01*
X116715D02*
X118027D01*
X117371D01*
Y54478D01*
X116715Y53821D01*
X119995Y50542D02*
X121307D01*
X120651D01*
Y54478D01*
X119995Y53821D01*
X41339Y64242D02*
Y68177D01*
X43306D01*
X43962Y67522D01*
Y66210D01*
X43306Y65554D01*
X41339D01*
X42650D02*
X43962Y64242D01*
X45274Y67522D02*
X45930Y68177D01*
X47242D01*
X47898Y67522D01*
Y66865D01*
X47242Y66210D01*
X47898Y65554D01*
Y64898D01*
X47242Y64242D01*
X45930D01*
X45274Y64898D01*
Y65554D01*
X45930Y66210D01*
X45274Y66865D01*
Y67522D01*
X45930Y66210D02*
X47242D01*
X41339Y35433D02*
Y39369D01*
X43306D01*
X43962Y38713D01*
Y37401D01*
X43306Y36745D01*
X41339D01*
X42650D02*
X43962Y35433D01*
X45274Y39369D02*
X47898D01*
Y38713D01*
X45274Y36089D01*
Y35433D01*
X41339Y52718D02*
Y56654D01*
X43306D01*
X43962Y55998D01*
Y54686D01*
X43306Y54030D01*
X41339D01*
X42650D02*
X43962Y52718D01*
X47898Y56654D02*
X46586Y55998D01*
X45274Y54686D01*
Y53374D01*
X45930Y52718D01*
X47242D01*
X47898Y53374D01*
Y54030D01*
X47242Y54686D01*
X45274D01*
X41339Y46957D02*
Y50892D01*
X43306D01*
X43962Y50236D01*
Y48924D01*
X43306Y48268D01*
X41339D01*
X42650D02*
X43962Y46957D01*
X47898Y50892D02*
X45274D01*
Y48924D01*
X46586Y49580D01*
X47242D01*
X47898Y48924D01*
Y47613D01*
X47242Y46957D01*
X45930D01*
X45274Y47613D01*
X114779Y62242D02*
Y66177D01*
X116747D01*
X117403Y65522D01*
Y64210D01*
X116747Y63554D01*
X114779D01*
X116091D02*
X117403Y62242D01*
X121339D02*
X118715D01*
X121339Y64865D01*
Y65522D01*
X120683Y66177D01*
X119371D01*
X118715Y65522D01*
X99410Y68898D02*
X95474D01*
Y70865D01*
X96130Y71522D01*
X97442D01*
X98097Y70865D01*
Y68898D01*
Y70210D02*
X99410Y71522D01*
Y72833D02*
Y74145D01*
Y73489D01*
X95474D01*
X96130Y72833D01*
X115157Y28542D02*
Y24606D01*
X117125D01*
X117781Y25262D01*
Y27886D01*
X117125Y28542D01*
X115157D01*
X119093Y24606D02*
Y27230D01*
X120405Y28542D01*
X121717Y27230D01*
Y24606D01*
Y26574D01*
X119093D01*
X123029Y24606D02*
Y28542D01*
X124997D01*
X125653Y27886D01*
Y26574D01*
X124997Y25918D01*
X123029D01*
X131561Y27886D02*
X130905Y28542D01*
X129593D01*
X128937Y27886D01*
Y25262D01*
X129593Y24606D01*
X130905D01*
X131561Y25262D01*
X134841Y28542D02*
X133529D01*
X132873Y27886D01*
Y25262D01*
X133529Y24606D01*
X134841D01*
X135497Y25262D01*
Y27886D01*
X134841Y28542D01*
X136809Y24606D02*
Y28542D01*
X138120Y27230D01*
X139432Y28542D01*
Y24606D01*
X101378D02*
Y28542D01*
X103346D01*
X104002Y27886D01*
Y26574D01*
X103346Y25918D01*
X101378D01*
X105314Y28542D02*
Y24606D01*
X106626Y25918D01*
X107938Y24606D01*
Y28542D01*
X109249Y24606D02*
Y28542D01*
X111217D01*
X111873Y27886D01*
Y26574D01*
X111217Y25918D01*
X109249D01*
X110561D02*
X111873Y24606D01*
X52823Y70537D02*
X52167Y69881D01*
Y68569D01*
X52823Y67913D01*
X55446D01*
X56102Y68569D01*
Y69881D01*
X55446Y70537D01*
Y71849D02*
X56102Y72505D01*
Y73817D01*
X55446Y74473D01*
X52823D01*
X52167Y73817D01*
Y72505D01*
X52823Y71849D01*
X53478D01*
X54135Y72505D01*
Y74473D01*
X78413Y70537D02*
X77757Y69881D01*
Y68569D01*
X78413Y67913D01*
X81037D01*
X81693Y68569D01*
Y69881D01*
X81037Y70537D01*
X78413Y71849D02*
X77757Y72505D01*
Y73817D01*
X78413Y74473D01*
X79069D01*
X79725Y73817D01*
X80381Y74473D01*
X81037D01*
X81693Y73817D01*
Y72505D01*
X81037Y71849D01*
X80381D01*
X79725Y72505D01*
X79069Y71849D01*
X78413D01*
X79725Y72505D02*
Y73817D01*
X43962Y61760D02*
X43306Y62416D01*
X41995D01*
X41339Y61760D01*
Y59136D01*
X41995Y58480D01*
X43306D01*
X43962Y59136D01*
X47242Y58480D02*
Y62416D01*
X45274Y60448D01*
X47898D01*
X87271Y70537D02*
X86615Y69881D01*
Y68569D01*
X87271Y67913D01*
X89895D01*
X90551Y68569D01*
Y69881D01*
X89895Y70537D01*
X87271Y71849D02*
X86615Y72505D01*
Y73817D01*
X87271Y74473D01*
X87927D01*
X88583Y73817D01*
Y73161D01*
Y73817D01*
X89239Y74473D01*
X89895D01*
X90551Y73817D01*
Y72505D01*
X89895Y71849D01*
X141240Y29823D02*
X137304D01*
Y31791D01*
X137960Y32447D01*
X139272D01*
X139928Y31791D01*
Y29823D01*
X141240Y33759D02*
X137304D01*
Y35726D01*
X137960Y36382D01*
X139272D01*
X139928Y35726D01*
Y33759D01*
Y35070D02*
X141240Y36382D01*
X137304Y39662D02*
Y38350D01*
X137960Y37694D01*
X140584D01*
X141240Y38350D01*
Y39662D01*
X140584Y40318D01*
X137960D01*
X137304Y39662D01*
X137960Y44254D02*
X137304Y43598D01*
Y42286D01*
X137960Y41630D01*
X140584D01*
X141240Y42286D01*
Y43598D01*
X140584Y44254D01*
X139272D01*
Y42942D01*
X141240Y45566D02*
X137304D01*
Y47534D01*
X137960Y48190D01*
X139272D01*
X139928Y47534D01*
Y45566D01*
Y46878D02*
X141240Y48190D01*
Y49501D02*
X138616D01*
X137304Y50813D01*
X138616Y52125D01*
X141240D01*
X139272D01*
Y49501D01*
X141240Y53437D02*
X137304D01*
X138616Y54749D01*
X137304Y56061D01*
X141240D01*
Y57373D02*
X137304D01*
X138616Y58685D01*
X137304Y59997D01*
X141240D01*
X137304Y63933D02*
Y61309D01*
X141240D01*
Y63933D01*
X139272Y61309D02*
Y62621D01*
X141240Y65245D02*
X137304D01*
Y67212D01*
X137960Y67868D01*
X139272D01*
X139928Y67212D01*
Y65245D01*
Y66556D02*
X141240Y67868D01*
X138616Y73116D02*
X141240Y74428D01*
X138616Y75740D01*
X141240Y77052D02*
Y78364D01*
Y77708D01*
X137304D01*
X137960Y77052D01*
X141240Y80331D02*
X140584D01*
Y80988D01*
X141240D01*
Y80331D01*
X137960Y83611D02*
X137304Y84267D01*
Y85579D01*
X137960Y86235D01*
X140584D01*
X141240Y85579D01*
Y84267D01*
X140584Y83611D01*
X137960D01*
D36*
X79232Y65354D02*
G03*
X79232Y65354I-492J0D01*
G01*
D37*
X124712Y69834D02*
G03*
X124712Y69834I-197J0D01*
G01*
Y46310D02*
G03*
X124712Y46310I-197J0D01*
G01*
D38*
X116830Y78346D02*
X120374Y79921D01*
X113287D02*
X116830D01*
X120374D02*
X123917D01*
X130610Y83858D02*
Y87008D01*
X106988Y83858D02*
Y87008D01*
X130610D01*
Y72834D02*
Y75984D01*
X106988Y72834D02*
Y75984D01*
Y72834D02*
X130610D01*
D39*
X107283Y68110D02*
Y71259D01*
X108858D01*
X109382Y70734D01*
Y69684D01*
X108858Y69160D01*
X107283D01*
X108333D02*
X109382Y68110D01*
X112531Y71259D02*
X110432D01*
Y68110D01*
X112531D01*
X110432Y69684D02*
X111481D01*
X115680Y70734D02*
X115155Y71259D01*
X114105D01*
X113581Y70734D01*
Y70209D01*
X114105Y69684D01*
X115155D01*
X115680Y69160D01*
Y68635D01*
X115155Y68110D01*
X114105D01*
X113581Y68635D01*
X118828Y71259D02*
X116729D01*
Y68110D01*
X118828D01*
X116729Y69684D02*
X117779D01*
X119878Y71259D02*
X121977D01*
X120927D01*
Y68110D01*
X153900Y14149D02*
X153450Y13999D01*
X153150Y13549D01*
X153000Y12799D01*
Y12349D01*
X153150Y11600D01*
X153450Y11150D01*
X153900Y11000D01*
X154200D01*
X154649Y11150D01*
X154949Y11600D01*
X155099Y12349D01*
Y12799D01*
X154949Y13549D01*
X154649Y13999D01*
X154200Y14149D01*
X153900D01*
X155954Y11300D02*
X155804Y11150D01*
X155954Y11000D01*
X156104Y11150D01*
X155954Y11300D01*
X156944Y13399D02*
Y13549D01*
X157094Y13849D01*
X157244Y13999D01*
X157544Y14149D01*
X158143D01*
X158443Y13999D01*
X158593Y13849D01*
X158743Y13549D01*
Y13249D01*
X158593Y12949D01*
X158293Y12500D01*
X156794Y11000D01*
X158893D01*
X159598Y13549D02*
X159898Y13699D01*
X160347Y14149D01*
Y11000D01*
X144400Y14149D02*
X143950Y13999D01*
X143650Y13549D01*
X143500Y12799D01*
Y12349D01*
X143650Y11600D01*
X143950Y11150D01*
X144400Y11000D01*
X144700D01*
X145149Y11150D01*
X145449Y11600D01*
X145599Y12349D01*
Y12799D01*
X145449Y13549D01*
X145149Y13999D01*
X144700Y14149D01*
X144400D01*
X146454Y11300D02*
X146304Y11150D01*
X146454Y11000D01*
X146604Y11150D01*
X146454Y11300D01*
X147294Y13549D02*
X147594Y13699D01*
X148044Y14149D01*
Y11000D01*
X149603Y13549D02*
X149903Y13699D01*
X150353Y14149D01*
Y11000D01*
X133900Y14149D02*
X133450Y13999D01*
X133150Y13549D01*
X133000Y12799D01*
Y12349D01*
X133150Y11600D01*
X133450Y11150D01*
X133900Y11000D01*
X134200D01*
X134649Y11150D01*
X134949Y11600D01*
X135099Y12349D01*
Y12799D01*
X134949Y13549D01*
X134649Y13999D01*
X134200Y14149D01*
X133900D01*
X135954Y11300D02*
X135804Y11150D01*
X135954Y11000D01*
X136104Y11150D01*
X135954Y11300D01*
X136944Y13399D02*
Y13549D01*
X137094Y13849D01*
X137244Y13999D01*
X137543Y14149D01*
X138143D01*
X138443Y13999D01*
X138593Y13849D01*
X138743Y13549D01*
Y13249D01*
X138593Y12949D01*
X138293Y12500D01*
X136794Y11000D01*
X138893D01*
X140498Y14149D02*
X140048Y13999D01*
X139748Y13549D01*
X139598Y12799D01*
Y12349D01*
X139748Y11600D01*
X140048Y11150D01*
X140498Y11000D01*
X140797D01*
X141247Y11150D01*
X141547Y11600D01*
X141697Y12349D01*
Y12799D01*
X141547Y13549D01*
X141247Y13999D01*
X140797Y14149D01*
X140498D01*
X123900D02*
X123450Y13999D01*
X123150Y13549D01*
X123000Y12799D01*
Y12349D01*
X123150Y11600D01*
X123450Y11150D01*
X123900Y11000D01*
X124200D01*
X124649Y11150D01*
X124949Y11600D01*
X125099Y12349D01*
Y12799D01*
X124949Y13549D01*
X124649Y13999D01*
X124200Y14149D01*
X123900D01*
X125954Y11300D02*
X125804Y11150D01*
X125954Y11000D01*
X126104Y11150D01*
X125954Y11300D01*
X126794Y13549D02*
X127094Y13699D01*
X127543Y14149D01*
Y11000D01*
X131202Y14149D02*
X129703Y11000D01*
X129103Y14149D02*
X131202D01*
X113900D02*
X113450Y13999D01*
X113150Y13549D01*
X113000Y12799D01*
Y12349D01*
X113150Y11600D01*
X113450Y11150D01*
X113900Y11000D01*
X114200D01*
X114649Y11150D01*
X114949Y11600D01*
X115099Y12349D01*
Y12799D01*
X114949Y13549D01*
X114649Y13999D01*
X114200Y14149D01*
X113900D01*
X115954Y11300D02*
X115804Y11150D01*
X115954Y11000D01*
X116104Y11150D01*
X115954Y11300D01*
X116794Y13549D02*
X117094Y13699D01*
X117543Y14149D01*
Y11000D01*
X120902Y13699D02*
X120752Y13999D01*
X120302Y14149D01*
X120003D01*
X119553Y13999D01*
X119253Y13549D01*
X119103Y12799D01*
Y12050D01*
X119253Y11450D01*
X119553Y11150D01*
X120003Y11000D01*
X120153D01*
X120602Y11150D01*
X120902Y11450D01*
X121052Y11900D01*
Y12050D01*
X120902Y12500D01*
X120602Y12799D01*
X120153Y12949D01*
X120003D01*
X119553Y12799D01*
X119253Y12500D01*
X119103Y12050D01*
X103900Y14149D02*
X103450Y13999D01*
X103150Y13549D01*
X103000Y12799D01*
Y12349D01*
X103150Y11600D01*
X103450Y11150D01*
X103900Y11000D01*
X104200D01*
X104649Y11150D01*
X104949Y11600D01*
X105099Y12349D01*
Y12799D01*
X104949Y13549D01*
X104649Y13999D01*
X104200Y14149D01*
X103900D01*
X105954Y11300D02*
X105804Y11150D01*
X105954Y11000D01*
X106104Y11150D01*
X105954Y11300D01*
X106794Y13549D02*
X107094Y13699D01*
X107544Y14149D01*
Y11000D01*
X110902Y14149D02*
X109403D01*
X109253Y12799D01*
X109403Y12949D01*
X109853Y13099D01*
X110302D01*
X110752Y12949D01*
X111052Y12649D01*
X111202Y12200D01*
Y11900D01*
X111052Y11450D01*
X110752Y11150D01*
X110302Y11000D01*
X109853D01*
X109403Y11150D01*
X109253Y11300D01*
X109103Y11600D01*
X93900Y14149D02*
X93450Y13999D01*
X93150Y13549D01*
X93000Y12799D01*
Y12349D01*
X93150Y11600D01*
X93450Y11150D01*
X93900Y11000D01*
X94200D01*
X94649Y11150D01*
X94949Y11600D01*
X95099Y12349D01*
Y12799D01*
X94949Y13549D01*
X94649Y13999D01*
X94200Y14149D01*
X93900D01*
X95954Y11300D02*
X95804Y11150D01*
X95954Y11000D01*
X96104Y11150D01*
X95954Y11300D01*
X96794Y13549D02*
X97094Y13699D01*
X97544Y14149D01*
Y11000D01*
X100602Y14149D02*
X99103Y12050D01*
X101352D01*
X100602Y14149D02*
Y11000D01*
X83900Y14149D02*
X83450Y13999D01*
X83150Y13549D01*
X83000Y12799D01*
Y12349D01*
X83150Y11600D01*
X83450Y11150D01*
X83900Y11000D01*
X84200D01*
X84649Y11150D01*
X84949Y11600D01*
X85099Y12349D01*
Y12799D01*
X84949Y13549D01*
X84649Y13999D01*
X84200Y14149D01*
X83900D01*
X85954Y11300D02*
X85804Y11150D01*
X85954Y11000D01*
X86104Y11150D01*
X85954Y11300D01*
X86794Y13549D02*
X87094Y13699D01*
X87543Y14149D01*
Y11000D01*
X89403Y14149D02*
X91052D01*
X90153Y12949D01*
X90602D01*
X90902Y12799D01*
X91052Y12649D01*
X91202Y12200D01*
Y11900D01*
X91052Y11450D01*
X90752Y11150D01*
X90302Y11000D01*
X89853D01*
X89403Y11150D01*
X89253Y11300D01*
X89103Y11600D01*
X73900Y14149D02*
X73450Y13999D01*
X73150Y13549D01*
X73000Y12799D01*
Y12349D01*
X73150Y11600D01*
X73450Y11150D01*
X73900Y11000D01*
X74200D01*
X74649Y11150D01*
X74949Y11600D01*
X75099Y12349D01*
Y12799D01*
X74949Y13549D01*
X74649Y13999D01*
X74200Y14149D01*
X73900D01*
X75954Y11300D02*
X75804Y11150D01*
X75954Y11000D01*
X76104Y11150D01*
X75954Y11300D01*
X76794Y13549D02*
X77094Y13699D01*
X77543Y14149D01*
Y11000D01*
X79253Y13399D02*
Y13549D01*
X79403Y13849D01*
X79553Y13999D01*
X79853Y14149D01*
X80453D01*
X80752Y13999D01*
X80902Y13849D01*
X81052Y13549D01*
Y13249D01*
X80902Y12949D01*
X80602Y12500D01*
X79103Y11000D01*
X81202D01*
X63900Y14149D02*
X63450Y13999D01*
X63150Y13549D01*
X63000Y12799D01*
Y12349D01*
X63150Y11600D01*
X63450Y11150D01*
X63900Y11000D01*
X64200D01*
X64649Y11150D01*
X64949Y11600D01*
X65099Y12349D01*
Y12799D01*
X64949Y13549D01*
X64649Y13999D01*
X64200Y14149D01*
X63900D01*
X65954Y11300D02*
X65804Y11150D01*
X65954Y11000D01*
X66104Y11150D01*
X65954Y11300D01*
X66944Y13399D02*
Y13549D01*
X67094Y13849D01*
X67244Y13999D01*
X67544Y14149D01*
X68143D01*
X68443Y13999D01*
X68593Y13849D01*
X68743Y13549D01*
Y13249D01*
X68593Y12949D01*
X68293Y12500D01*
X66794Y11000D01*
X68893D01*
X69748Y13399D02*
Y13549D01*
X69898Y13849D01*
X70048Y13999D01*
X70347Y14149D01*
X70947D01*
X71247Y13999D01*
X71397Y13849D01*
X71547Y13549D01*
Y13249D01*
X71397Y12949D01*
X71097Y12500D01*
X69598Y11000D01*
X71697D01*
X53900Y14149D02*
X53450Y13999D01*
X53150Y13549D01*
X53000Y12799D01*
Y12349D01*
X53150Y11600D01*
X53450Y11150D01*
X53900Y11000D01*
X54200D01*
X54649Y11150D01*
X54949Y11600D01*
X55099Y12349D01*
Y12799D01*
X54949Y13549D01*
X54649Y13999D01*
X54200Y14149D01*
X53900D01*
X55954Y11300D02*
X55804Y11150D01*
X55954Y11000D01*
X56104Y11150D01*
X55954Y11300D01*
X56794Y13549D02*
X57094Y13699D01*
X57543Y14149D01*
Y11000D01*
X60003Y14149D02*
X59553Y13999D01*
X59253Y13549D01*
X59103Y12799D01*
Y12349D01*
X59253Y11600D01*
X59553Y11150D01*
X60003Y11000D01*
X60303D01*
X60752Y11150D01*
X61052Y11600D01*
X61202Y12349D01*
Y12799D01*
X61052Y13549D01*
X60752Y13999D01*
X60303Y14149D01*
X60003D01*
X44900D02*
X44450Y13999D01*
X44150Y13549D01*
X44000Y12799D01*
Y12349D01*
X44150Y11600D01*
X44450Y11150D01*
X44900Y11000D01*
X45200D01*
X45649Y11150D01*
X45949Y11600D01*
X46099Y12349D01*
Y12799D01*
X45949Y13549D01*
X45649Y13999D01*
X45200Y14149D01*
X44900D01*
X46954Y11300D02*
X46804Y11150D01*
X46954Y11000D01*
X47104Y11150D01*
X46954Y11300D01*
X49593Y13699D02*
X49443Y13999D01*
X48993Y14149D01*
X48693D01*
X48244Y13999D01*
X47944Y13549D01*
X47794Y12799D01*
Y12050D01*
X47944Y11450D01*
X48244Y11150D01*
X48693Y11000D01*
X48843D01*
X49293Y11150D01*
X49593Y11450D01*
X49743Y11900D01*
Y12050D01*
X49593Y12500D01*
X49293Y12799D01*
X48843Y12949D01*
X48693D01*
X48244Y12799D01*
X47944Y12500D01*
X47794Y12050D01*
X36299Y14149D02*
Y11000D01*
Y12649D02*
X36000Y12949D01*
X35700Y13099D01*
X35250D01*
X34950Y12949D01*
X34650Y12649D01*
X34500Y12200D01*
Y11900D01*
X34650Y11450D01*
X34950Y11150D01*
X35250Y11000D01*
X35700D01*
X36000Y11150D01*
X36299Y11450D01*
X38489Y13699D02*
Y11000D01*
X37139Y12349D02*
X39838D01*
X26299Y14149D02*
Y11000D01*
Y12649D02*
X26000Y12949D01*
X25700Y13099D01*
X25250D01*
X24950Y12949D01*
X24650Y12649D01*
X24500Y12200D01*
Y11900D01*
X24650Y11450D01*
X24950Y11150D01*
X25250Y11000D01*
X25700D01*
X26000Y11150D01*
X26299Y11450D01*
X27139Y12349D02*
X29838D01*
X15299Y13099D02*
Y10700D01*
X15149Y10250D01*
X14999Y10100D01*
X14700Y9950D01*
X14250D01*
X13950Y10100D01*
X15299Y12649D02*
X14999Y12949D01*
X14700Y13099D01*
X14250D01*
X13950Y12949D01*
X13650Y12649D01*
X13500Y12200D01*
Y11900D01*
X13650Y11450D01*
X13950Y11150D01*
X14250Y11000D01*
X14700D01*
X14999Y11150D01*
X15299Y11450D01*
X16139Y13099D02*
Y11000D01*
Y12500D02*
X16589Y12949D01*
X16889Y13099D01*
X17339D01*
X17639Y12949D01*
X17789Y12500D01*
Y11000D01*
X20413Y14149D02*
Y11000D01*
Y12649D02*
X20113Y12949D01*
X19813Y13099D01*
X19363D01*
X19063Y12949D01*
X18763Y12649D01*
X18613Y12200D01*
Y11900D01*
X18763Y11450D01*
X19063Y11150D01*
X19363Y11000D01*
X19813D01*
X20113Y11150D01*
X20413Y11450D01*
X3300Y14149D02*
X4949D01*
X4050Y12949D01*
X4499D01*
X4799Y12799D01*
X4949Y12649D01*
X5099Y12200D01*
Y11900D01*
X4949Y11450D01*
X4649Y11150D01*
X4200Y11000D01*
X3750D01*
X3300Y11150D01*
X3150Y11300D01*
X3000Y11600D01*
X5804Y13099D02*
X6704Y11000D01*
X7603Y13099D02*
X6704Y11000D01*
X8413Y14149D02*
X10063D01*
X9163Y12949D01*
X9613D01*
X9913Y12799D01*
X10063Y12649D01*
X10213Y12200D01*
Y11900D01*
X10063Y11450D01*
X9763Y11150D01*
X9313Y11000D01*
X8863D01*
X8413Y11150D01*
X8263Y11300D01*
X8113Y11600D01*
X159100Y89851D02*
X159550Y90001D01*
X159850Y90451D01*
X160000Y91201D01*
Y91650D01*
X159850Y92400D01*
X159550Y92850D01*
X159100Y93000D01*
X158800D01*
X158351Y92850D01*
X158051Y92400D01*
X157901Y91650D01*
Y91201D01*
X158051Y90451D01*
X158351Y90001D01*
X158800Y89851D01*
X159100D01*
X157046Y92700D02*
X157196Y92850D01*
X157046Y93000D01*
X156896Y92850D01*
X157046Y92700D01*
X154257Y90901D02*
X154407Y91351D01*
X154707Y91650D01*
X155157Y91800D01*
X155307D01*
X155756Y91650D01*
X156056Y91351D01*
X156206Y90901D01*
Y90751D01*
X156056Y90301D01*
X155756Y90001D01*
X155307Y89851D01*
X155157D01*
X154707Y90001D01*
X154407Y90301D01*
X154257Y90901D01*
Y91650D01*
X154407Y92400D01*
X154707Y92850D01*
X155157Y93000D01*
X155456D01*
X155906Y92850D01*
X156056Y92550D01*
X149100Y89851D02*
X149550Y90001D01*
X149850Y90451D01*
X150000Y91201D01*
Y91650D01*
X149850Y92400D01*
X149550Y92850D01*
X149100Y93000D01*
X148800D01*
X148351Y92850D01*
X148051Y92400D01*
X147901Y91650D01*
Y91201D01*
X148051Y90451D01*
X148351Y90001D01*
X148800Y89851D01*
X149100D01*
X147046Y92700D02*
X147196Y92850D01*
X147046Y93000D01*
X146896Y92850D01*
X147046Y92700D01*
X144107Y89851D02*
X145607Y93000D01*
X146206Y89851D02*
X144107D01*
X140100D02*
X140550Y90001D01*
X140850Y90451D01*
X141000Y91201D01*
Y91650D01*
X140850Y92400D01*
X140550Y92850D01*
X140100Y93000D01*
X139800D01*
X139351Y92850D01*
X139051Y92400D01*
X138901Y91650D01*
Y91201D01*
X139051Y90451D01*
X139351Y90001D01*
X139800Y89851D01*
X140100D01*
X138046Y92700D02*
X138196Y92850D01*
X138046Y93000D01*
X137896Y92850D01*
X138046Y92700D01*
X137206Y90451D02*
X136906Y90301D01*
X136457Y89851D01*
Y93000D01*
X132948Y90901D02*
X133098Y91351D01*
X133398Y91650D01*
X133847Y91800D01*
X133997D01*
X134447Y91650D01*
X134747Y91351D01*
X134897Y90901D01*
Y90751D01*
X134747Y90301D01*
X134447Y90001D01*
X133997Y89851D01*
X133847D01*
X133398Y90001D01*
X133098Y90301D01*
X132948Y90901D01*
Y91650D01*
X133098Y92400D01*
X133398Y92850D01*
X133847Y93000D01*
X134147D01*
X134597Y92850D01*
X134747Y92550D01*
X129600Y89851D02*
X130050Y90001D01*
X130350Y90451D01*
X130500Y91201D01*
Y91650D01*
X130350Y92400D01*
X130050Y92850D01*
X129600Y93000D01*
X129300D01*
X128851Y92850D01*
X128551Y92400D01*
X128401Y91650D01*
Y91201D01*
X128551Y90451D01*
X128851Y90001D01*
X129300Y89851D01*
X129600D01*
X127546Y92700D02*
X127696Y92850D01*
X127546Y93000D01*
X127396Y92850D01*
X127546Y92700D01*
X126706Y90451D02*
X126406Y90301D01*
X125956Y89851D01*
Y93000D01*
X123647Y89851D02*
X124097Y90001D01*
X124247Y90301D01*
Y90601D01*
X124097Y90901D01*
X123797Y91051D01*
X123197Y91201D01*
X122748Y91351D01*
X122448Y91650D01*
X122298Y91950D01*
Y92400D01*
X122448Y92700D01*
X122598Y92850D01*
X123047Y93000D01*
X123647D01*
X124097Y92850D01*
X124247Y92700D01*
X124397Y92400D01*
Y91950D01*
X124247Y91650D01*
X123947Y91351D01*
X123497Y91201D01*
X122898Y91051D01*
X122598Y90901D01*
X122448Y90601D01*
Y90301D01*
X122598Y90001D01*
X123047Y89851D01*
X123647D01*
X119100D02*
X119550Y90001D01*
X119850Y90451D01*
X120000Y91201D01*
Y91650D01*
X119850Y92400D01*
X119550Y92850D01*
X119100Y93000D01*
X118800D01*
X118351Y92850D01*
X118051Y92400D01*
X117901Y91650D01*
Y91201D01*
X118051Y90451D01*
X118351Y90001D01*
X118800Y89851D01*
X119100D01*
X117046Y92700D02*
X117196Y92850D01*
X117046Y93000D01*
X116896Y92850D01*
X117046Y92700D01*
X116056Y90601D02*
Y90451D01*
X115906Y90151D01*
X115756Y90001D01*
X115456Y89851D01*
X114857D01*
X114557Y90001D01*
X114407Y90151D01*
X114257Y90451D01*
Y90751D01*
X114407Y91051D01*
X114707Y91501D01*
X116206Y93000D01*
X114107D01*
X109100Y89851D02*
X109550Y90001D01*
X109850Y90451D01*
X110000Y91201D01*
Y91650D01*
X109850Y92400D01*
X109550Y92850D01*
X109100Y93000D01*
X108800D01*
X108351Y92850D01*
X108051Y92400D01*
X107901Y91650D01*
Y91201D01*
X108051Y90451D01*
X108351Y90001D01*
X108800Y89851D01*
X109100D01*
X107046Y92700D02*
X107196Y92850D01*
X107046Y93000D01*
X106896Y92850D01*
X107046Y92700D01*
X105456Y89851D02*
X105906Y90001D01*
X106056Y90301D01*
Y90601D01*
X105906Y90901D01*
X105606Y91051D01*
X105007Y91201D01*
X104557Y91351D01*
X104257Y91650D01*
X104107Y91950D01*
Y92400D01*
X104257Y92700D01*
X104407Y92850D01*
X104857Y93000D01*
X105456D01*
X105906Y92850D01*
X106056Y92700D01*
X106206Y92400D01*
Y91950D01*
X106056Y91650D01*
X105756Y91351D01*
X105307Y91201D01*
X104707Y91051D01*
X104407Y90901D01*
X104257Y90601D01*
Y90301D01*
X104407Y90001D01*
X104857Y89851D01*
X105456D01*
X101000D02*
Y93000D01*
Y89851D02*
X99651D01*
X99201Y90001D01*
X99051Y90151D01*
X98901Y90451D01*
Y90751D01*
X99051Y91051D01*
X99201Y91201D01*
X99651Y91351D01*
X101000D01*
X99950D02*
X98901Y93000D01*
X96097Y90301D02*
X96397Y90001D01*
X96846Y89851D01*
X97446D01*
X97896Y90001D01*
X98196Y90301D01*
Y90601D01*
X98046Y90901D01*
X97896Y91051D01*
X97596Y91201D01*
X96697Y91501D01*
X96397Y91650D01*
X96247Y91800D01*
X96097Y92100D01*
Y92550D01*
X96397Y92850D01*
X96846Y93000D01*
X97446D01*
X97896Y92850D01*
X98196Y92550D01*
X94342Y89851D02*
Y93000D01*
X95392Y89851D02*
X93293D01*
X91000Y90451D02*
X90700Y90301D01*
X90250Y89851D01*
Y93000D01*
X88541Y92700D02*
X88691Y92850D01*
X88541Y93000D01*
X88391Y92850D01*
X88541Y92700D01*
X87701Y90451D02*
X87401Y90301D01*
X86951Y89851D01*
Y93000D01*
X83592Y89851D02*
X85092D01*
X85242Y91201D01*
X85092Y91051D01*
X84642Y90901D01*
X84192D01*
X83742Y91051D01*
X83443Y91351D01*
X83293Y91800D01*
Y92100D01*
X83443Y92550D01*
X83742Y92850D01*
X84192Y93000D01*
X84642D01*
X85092Y92850D01*
X85242Y92700D01*
X85392Y92400D01*
X79600Y89851D02*
X80050Y90001D01*
X80350Y90451D01*
X80500Y91201D01*
Y91650D01*
X80350Y92400D01*
X80050Y92850D01*
X79600Y93000D01*
X79300D01*
X78851Y92850D01*
X78551Y92400D01*
X78401Y91650D01*
Y91201D01*
X78551Y90451D01*
X78851Y90001D01*
X79300Y89851D01*
X79600D01*
X77546Y92700D02*
X77696Y92850D01*
X77546Y93000D01*
X77396Y92850D01*
X77546Y92700D01*
X76706Y90451D02*
X76406Y90301D01*
X75956Y89851D01*
Y93000D01*
X72298Y89851D02*
X73797Y93000D01*
X74397Y89851D02*
X72298D01*
X9651Y90301D02*
Y93000D01*
X11000Y91650D02*
X8301D01*
X5572Y89851D02*
X7071D01*
X7221Y91201D01*
X7071Y91051D01*
X6622Y90901D01*
X6172D01*
X5722Y91051D01*
X5422Y91351D01*
X5272Y91800D01*
Y92100D01*
X5422Y92550D01*
X5722Y92850D01*
X6172Y93000D01*
X6622D01*
X7071Y92850D01*
X7221Y92700D01*
X7371Y92400D01*
X4567Y90901D02*
X3667Y93000D01*
X2768Y90901D02*
X3667Y93000D01*
X18701Y90901D02*
Y93300D01*
X18851Y93750D01*
X19001Y93900D01*
X19300Y94050D01*
X19750D01*
X20050Y93900D01*
X18701Y91351D02*
X19001Y91051D01*
X19300Y90901D01*
X19750D01*
X20050Y91051D01*
X20350Y91351D01*
X20500Y91800D01*
Y92100D01*
X20350Y92550D01*
X20050Y92850D01*
X19750Y93000D01*
X19300D01*
X19001Y92850D01*
X18701Y92550D01*
X17861Y90901D02*
Y93000D01*
Y91501D02*
X17411Y91051D01*
X17111Y90901D01*
X16661D01*
X16361Y91051D01*
X16211Y91501D01*
Y93000D01*
X13587Y89851D02*
Y93000D01*
Y91351D02*
X13887Y91051D01*
X14187Y90901D01*
X14637D01*
X14937Y91051D01*
X15237Y91351D01*
X15387Y91800D01*
Y92100D01*
X15237Y92550D01*
X14937Y92850D01*
X14637Y93000D01*
X14187D01*
X13887Y92850D01*
X13587Y92550D01*
X30500Y90451D02*
X30200Y90301D01*
X29750Y89851D01*
Y93000D01*
X28041Y92700D02*
X28191Y92850D01*
X28041Y93000D01*
X27891Y92850D01*
X28041Y92700D01*
X27201Y90451D02*
X26901Y90301D01*
X26451Y89851D01*
Y93000D01*
X22942Y90901D02*
X23092Y91351D01*
X23392Y91650D01*
X23842Y91800D01*
X23992D01*
X24442Y91650D01*
X24742Y91351D01*
X24892Y90901D01*
Y90751D01*
X24742Y90301D01*
X24442Y90001D01*
X23992Y89851D01*
X23842D01*
X23392Y90001D01*
X23092Y90301D01*
X22942Y90901D01*
Y91650D01*
X23092Y92400D01*
X23392Y92850D01*
X23842Y93000D01*
X24142D01*
X24592Y92850D01*
X24742Y92550D01*
X38600Y89851D02*
X39050Y90001D01*
X39350Y90451D01*
X39500Y91201D01*
Y91650D01*
X39350Y92400D01*
X39050Y92850D01*
X38600Y93000D01*
X38300D01*
X37851Y92850D01*
X37551Y92400D01*
X37401Y91650D01*
Y91201D01*
X37551Y90451D01*
X37851Y90001D01*
X38300Y89851D01*
X38600D01*
X36546Y92700D02*
X36696Y92850D01*
X36546Y93000D01*
X36396Y92850D01*
X36546Y92700D01*
X35706Y90451D02*
X35406Y90301D01*
X34956Y89851D01*
Y93000D01*
X49100Y89851D02*
X49550Y90001D01*
X49850Y90451D01*
X50000Y91201D01*
Y91650D01*
X49850Y92400D01*
X49550Y92850D01*
X49100Y93000D01*
X48800D01*
X48351Y92850D01*
X48051Y92400D01*
X47901Y91650D01*
Y91201D01*
X48051Y90451D01*
X48351Y90001D01*
X48800Y89851D01*
X49100D01*
X47046Y92700D02*
X47196Y92850D01*
X47046Y93000D01*
X46896Y92850D01*
X47046Y92700D01*
X45906Y89851D02*
X44257D01*
X45157Y91051D01*
X44707D01*
X44407Y91201D01*
X44257Y91351D01*
X44107Y91800D01*
Y92100D01*
X44257Y92550D01*
X44557Y92850D01*
X45007Y93000D01*
X45456D01*
X45906Y92850D01*
X46056Y92700D01*
X46206Y92400D01*
X59100Y89851D02*
X59550Y90001D01*
X59850Y90451D01*
X60000Y91201D01*
Y91650D01*
X59850Y92400D01*
X59550Y92850D01*
X59100Y93000D01*
X58800D01*
X58351Y92850D01*
X58051Y92400D01*
X57901Y91650D01*
Y91201D01*
X58051Y90451D01*
X58351Y90001D01*
X58800Y89851D01*
X59100D01*
X57046Y92700D02*
X57196Y92850D01*
X57046Y93000D01*
X56896Y92850D01*
X57046Y92700D01*
X54407Y89851D02*
X55906D01*
X56056Y91201D01*
X55906Y91051D01*
X55457Y90901D01*
X55007D01*
X54557Y91051D01*
X54257Y91351D01*
X54107Y91800D01*
Y92100D01*
X54257Y92550D01*
X54557Y92850D01*
X55007Y93000D01*
X55457D01*
X55906Y92850D01*
X56056Y92700D01*
X56206Y92400D01*
X69100Y89851D02*
X69550Y90001D01*
X69850Y90451D01*
X70000Y91201D01*
Y91650D01*
X69850Y92400D01*
X69550Y92850D01*
X69100Y93000D01*
X68800D01*
X68351Y92850D01*
X68051Y92400D01*
X67901Y91650D01*
Y91201D01*
X68051Y90451D01*
X68351Y90001D01*
X68800Y89851D01*
X69100D01*
X67046Y92700D02*
X67196Y92850D01*
X67046Y93000D01*
X66896Y92850D01*
X67046Y92700D01*
X64707Y89851D02*
X66206Y91950D01*
X63957D01*
X64707Y89851D02*
Y93000D01*
X4560Y73982D02*
X4035Y74507D01*
X2985D01*
X2461Y73982D01*
Y73457D01*
X2985Y72933D01*
X4035D01*
X4560Y72408D01*
Y71883D01*
X4035Y71358D01*
X2985D01*
X2461Y71883D01*
X5609Y74507D02*
Y71358D01*
X6659Y72408D01*
X7708Y71358D01*
Y74507D01*
X8758D02*
Y71358D01*
X10332D01*
X10857Y71883D01*
Y73982D01*
X10332Y74507D01*
X8758D01*
X23228D02*
X24278D01*
X23753D01*
Y71358D01*
X23228D01*
X24278D01*
X27951Y73982D02*
X27426Y74507D01*
X26377D01*
X25852Y73982D01*
Y73457D01*
X26377Y72933D01*
X27426D01*
X27951Y72408D01*
Y71883D01*
X27426Y71358D01*
X26377D01*
X25852Y71883D01*
X29001Y71358D02*
Y74507D01*
X30575D01*
X31100Y73982D01*
Y72933D01*
X30575Y72408D01*
X29001D01*
D40*
X133858Y21752D02*
D03*
X119783D02*
D03*
X105709D02*
D03*
D41*
X93159Y38386D02*
D03*
Y39386D02*
D03*
Y40386D02*
D03*
Y51386D02*
D03*
Y52386D02*
D03*
Y53386D02*
D03*
Y54386D02*
D03*
Y62386D02*
D03*
D42*
Y38476D02*
D03*
Y38567D02*
D03*
Y38658D02*
D03*
Y38749D02*
D03*
Y38840D02*
D03*
Y38931D02*
D03*
Y39022D02*
D03*
Y39113D02*
D03*
Y39204D02*
D03*
Y39295D02*
D03*
Y39476D02*
D03*
Y39567D02*
D03*
Y39658D02*
D03*
Y39749D02*
D03*
Y39840D02*
D03*
Y39931D02*
D03*
Y40022D02*
D03*
Y40113D02*
D03*
Y40204D02*
D03*
Y40295D02*
D03*
Y40476D02*
D03*
Y40567D02*
D03*
Y40658D02*
D03*
Y40749D02*
D03*
Y40840D02*
D03*
Y40931D02*
D03*
Y41022D02*
D03*
Y45658D02*
D03*
Y45749D02*
D03*
Y51476D02*
D03*
Y51567D02*
D03*
Y51658D02*
D03*
Y51749D02*
D03*
Y51840D02*
D03*
Y51931D02*
D03*
Y52022D02*
D03*
Y52113D02*
D03*
Y52204D02*
D03*
Y52295D02*
D03*
Y52476D02*
D03*
Y52567D02*
D03*
Y52658D02*
D03*
Y52749D02*
D03*
Y52840D02*
D03*
Y52931D02*
D03*
Y53022D02*
D03*
Y53113D02*
D03*
Y53204D02*
D03*
Y53295D02*
D03*
Y53476D02*
D03*
Y53567D02*
D03*
Y53658D02*
D03*
Y53749D02*
D03*
Y53840D02*
D03*
Y53931D02*
D03*
Y54022D02*
D03*
Y54113D02*
D03*
Y54204D02*
D03*
Y54295D02*
D03*
Y54476D02*
D03*
Y54567D02*
D03*
Y54658D02*
D03*
Y54749D02*
D03*
Y54840D02*
D03*
Y54931D02*
D03*
Y55022D02*
D03*
Y61749D02*
D03*
Y61840D02*
D03*
Y61931D02*
D03*
Y62022D02*
D03*
Y62113D02*
D03*
Y62204D02*
D03*
Y62295D02*
D03*
Y62476D02*
D03*
Y62567D02*
D03*
Y62658D02*
D03*
Y62749D02*
D03*
Y62840D02*
D03*
Y62931D02*
D03*
Y63022D02*
D03*
Y63113D02*
D03*
Y63204D02*
D03*
Y63295D02*
D03*
D43*
X81389Y41113D02*
D03*
Y41204D02*
D03*
Y41295D02*
D03*
X101029D02*
D03*
X81389Y41476D02*
D03*
Y41567D02*
D03*
Y41658D02*
D03*
Y41749D02*
D03*
Y41840D02*
D03*
Y41931D02*
D03*
Y42022D02*
D03*
X99299D02*
D03*
X81389Y42113D02*
D03*
Y42204D02*
D03*
Y42295D02*
D03*
Y42476D02*
D03*
Y42567D02*
D03*
Y42658D02*
D03*
Y42749D02*
D03*
Y42840D02*
D03*
Y42931D02*
D03*
Y43022D02*
D03*
X99209D02*
D03*
X81389Y43113D02*
D03*
Y43204D02*
D03*
Y43295D02*
D03*
Y43476D02*
D03*
Y43567D02*
D03*
Y43658D02*
D03*
Y43749D02*
D03*
Y43840D02*
D03*
Y43931D02*
D03*
X101029D02*
D03*
X81389Y44022D02*
D03*
X95389D02*
D03*
X81389Y44113D02*
D03*
Y44204D02*
D03*
Y44295D02*
D03*
Y44476D02*
D03*
Y44567D02*
D03*
Y44658D02*
D03*
Y44749D02*
D03*
Y44840D02*
D03*
Y44931D02*
D03*
Y45022D02*
D03*
Y45113D02*
D03*
Y45204D02*
D03*
Y45295D02*
D03*
X94209Y55931D02*
D03*
X102029Y56204D02*
D03*
X94299Y58931D02*
D03*
X99389D02*
D03*
D44*
X85164Y41113D02*
D03*
X92074D02*
D03*
X85164Y41204D02*
D03*
Y41295D02*
D03*
Y41476D02*
D03*
Y41567D02*
D03*
X92074D02*
D03*
X85164Y41658D02*
D03*
X92074D02*
D03*
X85164Y41749D02*
D03*
X92074D02*
D03*
Y41840D02*
D03*
X94254Y56840D02*
D03*
Y56931D02*
D03*
Y57022D02*
D03*
Y57113D02*
D03*
X99344D02*
D03*
X94254Y57204D02*
D03*
X99344D02*
D03*
X94254Y57295D02*
D03*
X99344D02*
D03*
X94254Y57476D02*
D03*
X99344D02*
D03*
X94254Y57567D02*
D03*
X99344D02*
D03*
X94254Y57658D02*
D03*
X99344D02*
D03*
X94254Y57749D02*
D03*
X99344D02*
D03*
X94254Y57840D02*
D03*
X99344D02*
D03*
X94254Y57931D02*
D03*
X99344D02*
D03*
X94254Y58022D02*
D03*
X99344D02*
D03*
D45*
X86889Y41113D02*
D03*
Y41204D02*
D03*
Y41295D02*
D03*
Y41476D02*
D03*
Y41567D02*
D03*
Y41658D02*
D03*
Y41749D02*
D03*
Y41840D02*
D03*
Y41931D02*
D03*
Y42022D02*
D03*
Y42113D02*
D03*
Y42204D02*
D03*
X102799D02*
D03*
X86889Y42295D02*
D03*
X102799D02*
D03*
X86889Y42476D02*
D03*
Y42567D02*
D03*
X93799D02*
D03*
X86889Y42658D02*
D03*
X93799D02*
D03*
X86889Y42749D02*
D03*
X93799D02*
D03*
X86889Y42840D02*
D03*
X93799D02*
D03*
X102799D02*
D03*
X86889Y42931D02*
D03*
X102799D02*
D03*
X86889Y43022D02*
D03*
X102799D02*
D03*
Y43113D02*
D03*
X88619Y44022D02*
D03*
X99619Y47749D02*
D03*
X86709Y58476D02*
D03*
X96799Y58658D02*
D03*
X88979Y59204D02*
D03*
X85709Y59749D02*
D03*
D46*
X88934Y41113D02*
D03*
X95484Y41476D02*
D03*
X102844Y42022D02*
D03*
Y42113D02*
D03*
X93754Y42204D02*
D03*
Y42295D02*
D03*
Y42476D02*
D03*
Y42931D02*
D03*
X88934Y43022D02*
D03*
X93754D02*
D03*
X84844Y43113D02*
D03*
X86844D02*
D03*
X93754D02*
D03*
X84844Y43204D02*
D03*
X86844D02*
D03*
X93754D02*
D03*
X102844D02*
D03*
X84844Y43295D02*
D03*
X86844D02*
D03*
X84844Y43476D02*
D03*
Y43567D02*
D03*
Y43658D02*
D03*
Y43749D02*
D03*
X88754D02*
D03*
X101024Y43840D02*
D03*
X88664Y43931D02*
D03*
X95484D02*
D03*
X97484D02*
D03*
X91754Y44113D02*
D03*
X99394Y58840D02*
D03*
X89024Y59022D02*
D03*
Y59113D02*
D03*
D47*
X90934Y41113D02*
D03*
X90664Y42476D02*
D03*
D48*
X93029Y41113D02*
D03*
X99299Y41749D02*
D03*
X90209Y43567D02*
D03*
X86299Y44204D02*
D03*
X102119Y56022D02*
D03*
Y58840D02*
D03*
X83209Y59567D02*
D03*
X90939Y59749D02*
D03*
D49*
X95299Y41113D02*
D03*
X101029Y44113D02*
D03*
X88569Y44204D02*
D03*
X99569Y48113D02*
D03*
X104659Y50295D02*
D03*
X94209Y55567D02*
D03*
X101849Y56749D02*
D03*
X91759Y56840D02*
D03*
X101849D02*
D03*
X91759Y56931D02*
D03*
X101849D02*
D03*
X91759Y57022D02*
D03*
X101849D02*
D03*
X91759Y57113D02*
D03*
X101849D02*
D03*
X91759Y57204D02*
D03*
X101849Y57658D02*
D03*
X91759Y57749D02*
D03*
X101849D02*
D03*
X91759Y57840D02*
D03*
X101849D02*
D03*
X91759Y57931D02*
D03*
X101849D02*
D03*
X91759Y58022D02*
D03*
X101849D02*
D03*
X91759Y58113D02*
D03*
X96849Y58204D02*
D03*
X94299Y59204D02*
D03*
X99389Y59295D02*
D03*
D50*
X97799Y41113D02*
D03*
X88529Y44113D02*
D03*
X97619D02*
D03*
X91619Y44204D02*
D03*
X99619Y47840D02*
D03*
X86709Y55204D02*
D03*
Y55295D02*
D03*
Y55476D02*
D03*
Y55567D02*
D03*
Y55658D02*
D03*
Y55749D02*
D03*
Y55840D02*
D03*
Y55931D02*
D03*
Y56022D02*
D03*
Y56113D02*
D03*
Y56204D02*
D03*
Y56295D02*
D03*
Y56476D02*
D03*
Y56567D02*
D03*
Y56658D02*
D03*
Y56749D02*
D03*
Y56840D02*
D03*
Y56931D02*
D03*
Y57022D02*
D03*
Y57113D02*
D03*
Y57204D02*
D03*
Y57295D02*
D03*
Y57476D02*
D03*
Y57567D02*
D03*
Y57658D02*
D03*
Y57749D02*
D03*
Y57840D02*
D03*
Y57931D02*
D03*
Y58022D02*
D03*
Y58113D02*
D03*
D51*
X100984Y41113D02*
D03*
X104524Y49931D02*
D03*
X94254Y55476D02*
D03*
D52*
X103389Y41113D02*
D03*
X86209Y44113D02*
D03*
X93209Y44204D02*
D03*
X103389D02*
D03*
X83209Y59476D02*
D03*
X90849Y59658D02*
D03*
D53*
X104934Y41113D02*
D03*
Y41204D02*
D03*
Y41295D02*
D03*
Y41476D02*
D03*
Y41567D02*
D03*
Y41658D02*
D03*
Y41749D02*
D03*
Y41840D02*
D03*
Y41931D02*
D03*
Y42022D02*
D03*
Y42113D02*
D03*
Y42204D02*
D03*
Y42295D02*
D03*
X102754Y42476D02*
D03*
X104934D02*
D03*
X102754Y42567D02*
D03*
X104934D02*
D03*
X102754Y42658D02*
D03*
X104934D02*
D03*
X102754Y42749D02*
D03*
X104934D02*
D03*
Y42840D02*
D03*
Y42931D02*
D03*
Y43022D02*
D03*
Y43113D02*
D03*
Y43204D02*
D03*
Y43295D02*
D03*
Y43476D02*
D03*
Y43567D02*
D03*
Y43658D02*
D03*
Y43749D02*
D03*
Y43840D02*
D03*
Y43931D02*
D03*
X97574Y44022D02*
D03*
X104934D02*
D03*
Y44113D02*
D03*
Y44204D02*
D03*
Y44295D02*
D03*
Y44476D02*
D03*
Y44567D02*
D03*
Y44658D02*
D03*
Y44749D02*
D03*
Y44840D02*
D03*
Y44931D02*
D03*
Y45022D02*
D03*
Y45113D02*
D03*
Y45204D02*
D03*
Y45295D02*
D03*
Y45476D02*
D03*
Y45567D02*
D03*
X91574Y56204D02*
D03*
X86664Y58204D02*
D03*
Y58295D02*
D03*
X91574Y58658D02*
D03*
X88934Y59295D02*
D03*
D54*
X88844Y41204D02*
D03*
X100934Y41567D02*
D03*
X95574Y41658D02*
D03*
X100844D02*
D03*
Y41749D02*
D03*
X100754Y41840D02*
D03*
X93664Y41931D02*
D03*
X100754D02*
D03*
X90304Y42022D02*
D03*
X100664D02*
D03*
X90304Y42113D02*
D03*
X90394Y42204D02*
D03*
Y42295D02*
D03*
X88844Y42931D02*
D03*
Y43476D02*
D03*
X95574Y43658D02*
D03*
Y43749D02*
D03*
X97394D02*
D03*
X101024D02*
D03*
X91844Y44022D02*
D03*
X89114Y55204D02*
D03*
Y55295D02*
D03*
Y55476D02*
D03*
Y55567D02*
D03*
Y55658D02*
D03*
Y55749D02*
D03*
Y55840D02*
D03*
Y55931D02*
D03*
Y56022D02*
D03*
Y56113D02*
D03*
X102024D02*
D03*
X89114Y56204D02*
D03*
Y56295D02*
D03*
Y56476D02*
D03*
Y56567D02*
D03*
Y56658D02*
D03*
Y56749D02*
D03*
Y56840D02*
D03*
Y56931D02*
D03*
Y57022D02*
D03*
Y57113D02*
D03*
Y57204D02*
D03*
Y57295D02*
D03*
Y57476D02*
D03*
Y57567D02*
D03*
Y57658D02*
D03*
Y57749D02*
D03*
Y57840D02*
D03*
Y57931D02*
D03*
Y58022D02*
D03*
Y58113D02*
D03*
Y58204D02*
D03*
Y58295D02*
D03*
Y58476D02*
D03*
Y58567D02*
D03*
X84114Y58658D02*
D03*
X89114D02*
D03*
X94304D02*
D03*
X99394D02*
D03*
X89114Y58749D02*
D03*
X91574D02*
D03*
X96844D02*
D03*
X99394D02*
D03*
D55*
X90984Y41204D02*
D03*
X90254Y41749D02*
D03*
X102984D02*
D03*
X86894Y43567D02*
D03*
X99164D02*
D03*
X102984D02*
D03*
X84074Y58840D02*
D03*
D56*
X92119Y41204D02*
D03*
Y41476D02*
D03*
X101029Y43204D02*
D03*
Y43295D02*
D03*
X83299Y59658D02*
D03*
D57*
X92984Y41204D02*
D03*
X99614Y47022D02*
D03*
X90524Y55295D02*
D03*
X102804D02*
D03*
Y59658D02*
D03*
D58*
X95344Y41204D02*
D03*
X100984Y44022D02*
D03*
X99344Y55658D02*
D03*
X99254Y55749D02*
D03*
X101984Y58476D02*
D03*
D59*
X97709Y41204D02*
D03*
X100979Y41476D02*
D03*
X95529Y41567D02*
D03*
X102889Y41931D02*
D03*
X93709Y42022D02*
D03*
Y42113D02*
D03*
Y43295D02*
D03*
X102889D02*
D03*
X88799Y43567D02*
D03*
Y43658D02*
D03*
X88709Y43840D02*
D03*
X95529D02*
D03*
X97439D02*
D03*
X99619Y47658D02*
D03*
X91529Y56113D02*
D03*
X96979D02*
D03*
X84069Y58567D02*
D03*
X86709D02*
D03*
X89069Y58840D02*
D03*
Y58931D02*
D03*
D60*
X101029Y41204D02*
D03*
X95209Y44204D02*
D03*
X99569Y48022D02*
D03*
X99389Y55567D02*
D03*
X94209Y55658D02*
D03*
X96939Y56295D02*
D03*
X101939Y56476D02*
D03*
Y58295D02*
D03*
X94299Y59113D02*
D03*
X99389Y59204D02*
D03*
D61*
X88754Y41295D02*
D03*
X97394Y41658D02*
D03*
X93664Y41840D02*
D03*
X99304D02*
D03*
X102934D02*
D03*
X95664Y41931D02*
D03*
Y42022D02*
D03*
Y42113D02*
D03*
X88754Y42749D02*
D03*
X95664Y43295D02*
D03*
X93664Y43476D02*
D03*
X95664D02*
D03*
X97304D02*
D03*
X102934D02*
D03*
X101024Y43658D02*
D03*
X91934Y43749D02*
D03*
Y43840D02*
D03*
X99574Y47476D02*
D03*
X94304Y58476D02*
D03*
X99394D02*
D03*
Y58567D02*
D03*
D62*
X92164Y41295D02*
D03*
X100984Y42476D02*
D03*
Y42567D02*
D03*
Y42658D02*
D03*
Y42749D02*
D03*
Y42840D02*
D03*
Y42931D02*
D03*
Y43022D02*
D03*
Y43113D02*
D03*
X91434Y56022D02*
D03*
X96984D02*
D03*
D63*
X95434Y41295D02*
D03*
X89074Y43113D02*
D03*
X95344Y44113D02*
D03*
X81434Y55204D02*
D03*
X84074D02*
D03*
X81434Y55295D02*
D03*
X84074D02*
D03*
X81434Y55476D02*
D03*
X84074D02*
D03*
X81434Y55567D02*
D03*
X84074D02*
D03*
X81434Y55658D02*
D03*
X84074D02*
D03*
X81434Y55749D02*
D03*
X84074D02*
D03*
X81434Y55840D02*
D03*
X84074D02*
D03*
X94254D02*
D03*
X81434Y55931D02*
D03*
X84074D02*
D03*
X81434Y56022D02*
D03*
X84074D02*
D03*
X81434Y56113D02*
D03*
X84074D02*
D03*
X81434Y56204D02*
D03*
X84074D02*
D03*
X96984D02*
D03*
X81434Y56295D02*
D03*
X84074D02*
D03*
X98984D02*
D03*
X81434Y56476D02*
D03*
X84074D02*
D03*
X81434Y56567D02*
D03*
X84074D02*
D03*
X81434Y56658D02*
D03*
X84074D02*
D03*
X81434Y56749D02*
D03*
X84074D02*
D03*
X81434Y56840D02*
D03*
X84074D02*
D03*
X81434Y56931D02*
D03*
X84074D02*
D03*
X81434Y57022D02*
D03*
X84074D02*
D03*
X81434Y57113D02*
D03*
X84074D02*
D03*
X81434Y57204D02*
D03*
X84074D02*
D03*
X81434Y57295D02*
D03*
X84074D02*
D03*
X81434Y57476D02*
D03*
X84074D02*
D03*
X81434Y57567D02*
D03*
X84074D02*
D03*
X81434Y57658D02*
D03*
X84074D02*
D03*
X81434Y57749D02*
D03*
X84074D02*
D03*
X81434Y57840D02*
D03*
X84074D02*
D03*
X81434Y57931D02*
D03*
X84074D02*
D03*
X81434Y58022D02*
D03*
X84074D02*
D03*
X81434Y58113D02*
D03*
X84074D02*
D03*
X81434Y58204D02*
D03*
X84074D02*
D03*
X81434Y58295D02*
D03*
X84074D02*
D03*
X81434Y58476D02*
D03*
Y58567D02*
D03*
Y58658D02*
D03*
Y58749D02*
D03*
Y58840D02*
D03*
Y58931D02*
D03*
Y59022D02*
D03*
X99434D02*
D03*
X81434Y59113D02*
D03*
Y59204D02*
D03*
Y59295D02*
D03*
Y59476D02*
D03*
Y59567D02*
D03*
Y59658D02*
D03*
D64*
X97709Y41295D02*
D03*
X95619Y41749D02*
D03*
Y41840D02*
D03*
X90349Y41931D02*
D03*
X88799Y42840D02*
D03*
X95619Y43567D02*
D03*
X97349D02*
D03*
Y43658D02*
D03*
X91889Y43931D02*
D03*
X99619Y47567D02*
D03*
X94259Y56295D02*
D03*
Y58567D02*
D03*
X86709Y58658D02*
D03*
X102069Y58749D02*
D03*
D65*
X81389Y41386D02*
D03*
Y42386D02*
D03*
Y43386D02*
D03*
Y44386D02*
D03*
Y45386D02*
D03*
X84029Y58386D02*
D03*
D66*
X85164Y41386D02*
D03*
X94254Y57386D02*
D03*
X99344D02*
D03*
D67*
X86889Y41386D02*
D03*
X95439D02*
D03*
X86889Y42386D02*
D03*
X102799D02*
D03*
D68*
X88709Y41386D02*
D03*
X97619D02*
D03*
X95709Y42386D02*
D03*
D69*
X92164Y41386D02*
D03*
D70*
X101024D02*
D03*
X93754Y42386D02*
D03*
X84844Y43386D02*
D03*
D71*
X104934Y41386D02*
D03*
Y42386D02*
D03*
Y43386D02*
D03*
Y44386D02*
D03*
Y45386D02*
D03*
X86664Y58386D02*
D03*
X88934Y59386D02*
D03*
D72*
X88664Y41476D02*
D03*
Y41567D02*
D03*
X92024Y41931D02*
D03*
Y42022D02*
D03*
Y42113D02*
D03*
Y42204D02*
D03*
Y42295D02*
D03*
X88664Y42476D02*
D03*
X92024D02*
D03*
X88664Y42567D02*
D03*
X92024D02*
D03*
Y42658D02*
D03*
Y42749D02*
D03*
Y42840D02*
D03*
Y42931D02*
D03*
Y43022D02*
D03*
Y43113D02*
D03*
Y43204D02*
D03*
Y43295D02*
D03*
X101024Y43476D02*
D03*
X99394Y58113D02*
D03*
Y58204D02*
D03*
Y58295D02*
D03*
D73*
X97529Y41476D02*
D03*
X97439Y41567D02*
D03*
X97349Y41749D02*
D03*
X95709Y42204D02*
D03*
Y42295D02*
D03*
Y42476D02*
D03*
Y42567D02*
D03*
X88709Y42658D02*
D03*
X95709D02*
D03*
Y42749D02*
D03*
Y42840D02*
D03*
Y42931D02*
D03*
Y43022D02*
D03*
Y43113D02*
D03*
Y43204D02*
D03*
X86889Y43476D02*
D03*
X91979D02*
D03*
Y43567D02*
D03*
X100979D02*
D03*
X91979Y43658D02*
D03*
X86709Y58749D02*
D03*
X85709Y59658D02*
D03*
D74*
X88619Y41658D02*
D03*
Y41749D02*
D03*
Y41840D02*
D03*
Y41931D02*
D03*
Y42022D02*
D03*
Y42113D02*
D03*
Y42204D02*
D03*
Y42295D02*
D03*
X99619Y47295D02*
D03*
X90709Y55113D02*
D03*
D75*
X93574Y41749D02*
D03*
X90574Y55204D02*
D03*
X96844Y58840D02*
D03*
X102664Y59749D02*
D03*
D76*
X84209Y41840D02*
D03*
Y41931D02*
D03*
Y42022D02*
D03*
Y42113D02*
D03*
Y42204D02*
D03*
Y42295D02*
D03*
Y42476D02*
D03*
Y42567D02*
D03*
Y42658D02*
D03*
Y42749D02*
D03*
Y42840D02*
D03*
Y42931D02*
D03*
Y43022D02*
D03*
Y43840D02*
D03*
Y43931D02*
D03*
Y44022D02*
D03*
Y44113D02*
D03*
Y44204D02*
D03*
X101029D02*
D03*
X104389Y49658D02*
D03*
X94299Y59476D02*
D03*
X99389D02*
D03*
D77*
X90254Y41840D02*
D03*
X97254Y41931D02*
D03*
Y42022D02*
D03*
Y43204D02*
D03*
Y43295D02*
D03*
X99164Y43476D02*
D03*
X94254Y56476D02*
D03*
Y56567D02*
D03*
Y58295D02*
D03*
D78*
X97299Y41840D02*
D03*
X97209Y42113D02*
D03*
Y42204D02*
D03*
Y42295D02*
D03*
Y42476D02*
D03*
Y42567D02*
D03*
Y42658D02*
D03*
Y42749D02*
D03*
Y42840D02*
D03*
Y42931D02*
D03*
Y43022D02*
D03*
Y43113D02*
D03*
X94209Y56658D02*
D03*
Y56749D02*
D03*
X94299Y58113D02*
D03*
Y58204D02*
D03*
X84119Y58749D02*
D03*
D79*
X99299Y41931D02*
D03*
X94209Y56022D02*
D03*
X94299Y58749D02*
D03*
Y58840D02*
D03*
D80*
X99844Y42113D02*
D03*
Y42204D02*
D03*
Y42295D02*
D03*
D81*
X84209Y42386D02*
D03*
X94209Y55386D02*
D03*
D82*
X88619Y42386D02*
D03*
X100979Y43386D02*
D03*
D83*
X90484Y42386D02*
D03*
X95664Y43386D02*
D03*
X94304Y58386D02*
D03*
X99394D02*
D03*
D84*
X92024Y42386D02*
D03*
Y43386D02*
D03*
X99574Y47386D02*
D03*
D85*
X97209Y42386D02*
D03*
D86*
X99799D02*
D03*
D87*
X99164Y43113D02*
D03*
Y43204D02*
D03*
X84074Y58476D02*
D03*
X102074Y58658D02*
D03*
D88*
X89619Y43204D02*
D03*
X99619Y48476D02*
D03*
D89*
X89574Y43295D02*
D03*
D90*
X99164D02*
D03*
X94254Y56113D02*
D03*
D91*
X86889Y43386D02*
D03*
D92*
X89574D02*
D03*
D93*
X93664D02*
D03*
X102934D02*
D03*
X89114Y55386D02*
D03*
Y56386D02*
D03*
Y57386D02*
D03*
Y58386D02*
D03*
D94*
X97254Y43386D02*
D03*
D95*
X99209D02*
D03*
D96*
X90209Y43476D02*
D03*
X94209Y56204D02*
D03*
D97*
X93619Y43567D02*
D03*
X99619Y47113D02*
D03*
X102709Y55204D02*
D03*
X86709Y58840D02*
D03*
D98*
X97754Y44204D02*
D03*
X104754Y50476D02*
D03*
X91664Y56476D02*
D03*
D99*
X87664Y44295D02*
D03*
Y44476D02*
D03*
Y44567D02*
D03*
Y44658D02*
D03*
D100*
X94619Y44295D02*
D03*
Y44476D02*
D03*
Y44567D02*
D03*
Y44658D02*
D03*
Y44749D02*
D03*
Y44840D02*
D03*
Y44931D02*
D03*
Y45022D02*
D03*
Y45113D02*
D03*
Y45204D02*
D03*
Y45295D02*
D03*
Y45476D02*
D03*
X104159Y49113D02*
D03*
D101*
X100164Y44295D02*
D03*
Y44476D02*
D03*
Y44567D02*
D03*
Y44658D02*
D03*
Y44749D02*
D03*
Y44840D02*
D03*
Y44931D02*
D03*
Y45022D02*
D03*
Y45113D02*
D03*
Y45204D02*
D03*
Y45295D02*
D03*
Y45476D02*
D03*
D102*
X87664Y44386D02*
D03*
D103*
X94619D02*
D03*
Y45386D02*
D03*
D104*
X100164Y44386D02*
D03*
Y45386D02*
D03*
D105*
X88619Y44749D02*
D03*
Y44840D02*
D03*
Y44931D02*
D03*
Y45022D02*
D03*
Y45113D02*
D03*
Y45204D02*
D03*
Y45295D02*
D03*
D106*
Y45386D02*
D03*
D107*
X86524Y45476D02*
D03*
D108*
X86709Y45567D02*
D03*
D109*
X94799D02*
D03*
X103979Y48658D02*
D03*
Y55113D02*
D03*
D110*
X100349Y45567D02*
D03*
D111*
X90024Y45840D02*
D03*
D112*
X102754D02*
D03*
D113*
X89979Y45931D02*
D03*
D114*
X102799D02*
D03*
D115*
X89934Y46022D02*
D03*
D116*
X102844D02*
D03*
X99574Y50204D02*
D03*
D117*
X89889Y46113D02*
D03*
D118*
X102889D02*
D03*
D119*
X89844Y46204D02*
D03*
D120*
X102934D02*
D03*
X99574Y50113D02*
D03*
D121*
X89799Y46295D02*
D03*
D122*
X102979D02*
D03*
D123*
X89754Y46386D02*
D03*
D124*
X102979D02*
D03*
D125*
X89754Y46476D02*
D03*
D126*
X103024D02*
D03*
X99574Y50022D02*
D03*
D127*
X89709Y46567D02*
D03*
D128*
X103069D02*
D03*
D129*
X89659Y46658D02*
D03*
D130*
X103114D02*
D03*
X99574Y49931D02*
D03*
D131*
X89614Y46749D02*
D03*
D132*
X103159D02*
D03*
X99619Y49840D02*
D03*
D133*
X89569Y46840D02*
D03*
D134*
X103209D02*
D03*
D135*
X89524Y46931D02*
D03*
D136*
X103254D02*
D03*
Y47022D02*
D03*
D137*
X89479D02*
D03*
D138*
X89434Y47113D02*
D03*
Y47204D02*
D03*
D139*
X103299Y47113D02*
D03*
D140*
X99619Y47204D02*
D03*
X91529Y58840D02*
D03*
X85709Y59567D02*
D03*
D141*
X103344Y47204D02*
D03*
D142*
X89389Y47295D02*
D03*
D143*
X103389D02*
D03*
D144*
X89344Y47386D02*
D03*
D145*
X103434D02*
D03*
D146*
X89299Y47476D02*
D03*
D147*
X103479D02*
D03*
D148*
X89254Y47567D02*
D03*
D149*
X103524D02*
D03*
Y47658D02*
D03*
D150*
X89209D02*
D03*
D151*
X89159Y47749D02*
D03*
D152*
X103569D02*
D03*
D153*
X89114Y47840D02*
D03*
Y47931D02*
D03*
D154*
X103614Y47840D02*
D03*
D155*
X99619Y47931D02*
D03*
X104799Y55204D02*
D03*
Y55295D02*
D03*
Y55476D02*
D03*
Y55567D02*
D03*
Y55658D02*
D03*
Y55749D02*
D03*
Y55840D02*
D03*
Y55931D02*
D03*
Y56022D02*
D03*
Y56113D02*
D03*
Y56204D02*
D03*
Y56295D02*
D03*
Y56476D02*
D03*
Y56567D02*
D03*
Y56658D02*
D03*
Y56749D02*
D03*
Y56840D02*
D03*
Y56931D02*
D03*
Y57022D02*
D03*
Y57113D02*
D03*
Y57204D02*
D03*
Y57295D02*
D03*
Y57476D02*
D03*
Y57567D02*
D03*
Y57658D02*
D03*
Y57749D02*
D03*
Y57840D02*
D03*
Y57931D02*
D03*
Y58022D02*
D03*
Y58113D02*
D03*
Y58204D02*
D03*
Y58295D02*
D03*
X91619Y58476D02*
D03*
X96799D02*
D03*
X104799D02*
D03*
Y58567D02*
D03*
Y58658D02*
D03*
Y58749D02*
D03*
Y58840D02*
D03*
Y58931D02*
D03*
Y59022D02*
D03*
Y59113D02*
D03*
Y59204D02*
D03*
Y59295D02*
D03*
Y59476D02*
D03*
X88799Y59567D02*
D03*
X104799D02*
D03*
Y59658D02*
D03*
Y59749D02*
D03*
Y59840D02*
D03*
Y59931D02*
D03*
Y60022D02*
D03*
Y60113D02*
D03*
Y60204D02*
D03*
Y60295D02*
D03*
Y60476D02*
D03*
Y60567D02*
D03*
Y60658D02*
D03*
Y60749D02*
D03*
Y60840D02*
D03*
Y60931D02*
D03*
Y61022D02*
D03*
Y61113D02*
D03*
Y61204D02*
D03*
Y61295D02*
D03*
Y61476D02*
D03*
Y61567D02*
D03*
Y61658D02*
D03*
D156*
X103659Y47931D02*
D03*
X99569Y49295D02*
D03*
X97659Y57022D02*
D03*
D157*
X89069Y48022D02*
D03*
D158*
X103709D02*
D03*
X97709Y56658D02*
D03*
Y56749D02*
D03*
Y56840D02*
D03*
Y56931D02*
D03*
D159*
X89024Y48113D02*
D03*
D160*
X103754D02*
D03*
D161*
X88979Y48204D02*
D03*
D162*
X99569D02*
D03*
X104569Y50022D02*
D03*
Y50113D02*
D03*
X96849Y57931D02*
D03*
X94299Y59295D02*
D03*
D163*
X103799Y48204D02*
D03*
Y48295D02*
D03*
X99619Y49113D02*
D03*
D164*
X88934Y48295D02*
D03*
D165*
X99619D02*
D03*
D166*
X88889Y48386D02*
D03*
D167*
X99619D02*
D03*
D168*
X103844D02*
D03*
D169*
X88844Y48476D02*
D03*
D170*
X103889D02*
D03*
X99619Y49022D02*
D03*
D171*
X88799Y48567D02*
D03*
Y48658D02*
D03*
D172*
X99619Y48567D02*
D03*
X99439Y59567D02*
D03*
D173*
X103934Y48567D02*
D03*
X99574Y48931D02*
D03*
D174*
Y48658D02*
D03*
X99394Y55204D02*
D03*
X94304Y59567D02*
D03*
D175*
X88754Y48749D02*
D03*
D176*
X99574D02*
D03*
X104114Y49022D02*
D03*
D177*
X104024Y48749D02*
D03*
X99574Y48840D02*
D03*
X99394Y59658D02*
D03*
D178*
X88709Y48840D02*
D03*
D179*
X104069D02*
D03*
Y48931D02*
D03*
D180*
X88659D02*
D03*
D181*
X88614Y49022D02*
D03*
D182*
X88569Y49113D02*
D03*
D183*
X88524Y49204D02*
D03*
Y49295D02*
D03*
D184*
X99614Y49204D02*
D03*
X97804Y56476D02*
D03*
Y56567D02*
D03*
D185*
X104209Y49204D02*
D03*
X94209Y55295D02*
D03*
D186*
X104254Y49295D02*
D03*
D187*
X88479Y49386D02*
D03*
D188*
X99569D02*
D03*
D189*
X104299D02*
D03*
D190*
X88434Y49476D02*
D03*
D191*
X99574D02*
D03*
D192*
X104344D02*
D03*
Y49567D02*
D03*
D193*
X88389D02*
D03*
D194*
X99574D02*
D03*
D195*
X88344Y49658D02*
D03*
D196*
X99574D02*
D03*
D197*
X88299Y49749D02*
D03*
D198*
X99619D02*
D03*
D199*
X104434D02*
D03*
X99434Y55295D02*
D03*
D200*
X88254Y49840D02*
D03*
D201*
X104479D02*
D03*
D202*
X88209Y49931D02*
D03*
Y50022D02*
D03*
D203*
X88159Y50113D02*
D03*
D204*
X88114Y50204D02*
D03*
D205*
X104614D02*
D03*
X101804Y57204D02*
D03*
X91804Y57295D02*
D03*
X101804D02*
D03*
X91804Y57476D02*
D03*
X101804D02*
D03*
X91804Y57567D02*
D03*
X101804D02*
D03*
X91804Y57658D02*
D03*
X96804Y58022D02*
D03*
Y58113D02*
D03*
X88614Y59749D02*
D03*
D206*
X88069Y50295D02*
D03*
D207*
X99569D02*
D03*
D208*
X88024Y50386D02*
D03*
D209*
X99614D02*
D03*
D210*
X104709D02*
D03*
D211*
X87979Y50476D02*
D03*
D212*
X99614D02*
D03*
D213*
X99569Y50567D02*
D03*
D214*
X99574Y50658D02*
D03*
D215*
Y50749D02*
D03*
D216*
Y50840D02*
D03*
D217*
Y50931D02*
D03*
D218*
Y51022D02*
D03*
D219*
X99619Y51113D02*
D03*
D220*
X99574Y51204D02*
D03*
D221*
Y51295D02*
D03*
D222*
X85159Y55113D02*
D03*
Y59840D02*
D03*
Y59931D02*
D03*
Y60022D02*
D03*
Y60113D02*
D03*
Y60204D02*
D03*
Y60295D02*
D03*
Y60476D02*
D03*
Y60567D02*
D03*
Y60658D02*
D03*
Y60749D02*
D03*
Y60840D02*
D03*
Y60931D02*
D03*
Y61022D02*
D03*
Y61113D02*
D03*
Y61204D02*
D03*
Y61295D02*
D03*
Y61476D02*
D03*
D223*
X94209Y55113D02*
D03*
X94299Y59749D02*
D03*
X99389D02*
D03*
D224*
Y55113D02*
D03*
D225*
X94209Y55204D02*
D03*
X94299Y59658D02*
D03*
D226*
X81434Y55386D02*
D03*
X84074D02*
D03*
X81434Y56386D02*
D03*
X84074D02*
D03*
X81434Y57386D02*
D03*
X84074D02*
D03*
X81434Y58386D02*
D03*
Y59386D02*
D03*
D227*
X86709Y55386D02*
D03*
Y56386D02*
D03*
Y57386D02*
D03*
D228*
X99434Y55386D02*
D03*
X96984Y56386D02*
D03*
X91804Y57386D02*
D03*
X101804D02*
D03*
D229*
X104799Y55386D02*
D03*
X91619Y56386D02*
D03*
X104799D02*
D03*
Y57386D02*
D03*
Y58386D02*
D03*
Y59386D02*
D03*
Y60386D02*
D03*
Y61386D02*
D03*
D230*
X99434Y55476D02*
D03*
X101894Y56567D02*
D03*
Y56658D02*
D03*
Y58113D02*
D03*
Y58204D02*
D03*
X96804Y58295D02*
D03*
D231*
X94209Y55749D02*
D03*
X99209Y55840D02*
D03*
X99119Y55931D02*
D03*
Y56022D02*
D03*
X99029Y56113D02*
D03*
Y56204D02*
D03*
X102029Y56295D02*
D03*
Y58567D02*
D03*
X94299Y59022D02*
D03*
X99389Y59113D02*
D03*
D232*
X91574Y56295D02*
D03*
Y58567D02*
D03*
X96844D02*
D03*
X88844Y59476D02*
D03*
D233*
X94209Y56386D02*
D03*
D234*
X98939D02*
D03*
D235*
X101984D02*
D03*
D236*
X91709Y56567D02*
D03*
Y56658D02*
D03*
Y56749D02*
D03*
Y58204D02*
D03*
Y58295D02*
D03*
X88709Y59658D02*
D03*
D237*
X91664Y58386D02*
D03*
D238*
X96849D02*
D03*
X101939D02*
D03*
D239*
X94299Y59386D02*
D03*
D240*
X99434D02*
D03*
D241*
X85664Y59476D02*
D03*
D242*
X82209Y59749D02*
D03*
D243*
X96804Y59840D02*
D03*
Y59931D02*
D03*
Y60022D02*
D03*
Y60113D02*
D03*
Y60204D02*
D03*
Y60295D02*
D03*
Y60476D02*
D03*
Y60567D02*
D03*
Y60658D02*
D03*
Y60749D02*
D03*
Y60840D02*
D03*
Y60931D02*
D03*
Y61022D02*
D03*
Y61113D02*
D03*
Y61204D02*
D03*
Y61295D02*
D03*
Y61476D02*
D03*
D244*
X85159Y60386D02*
D03*
Y61386D02*
D03*
D245*
X96804Y60386D02*
D03*
Y61386D02*
D03*
D246*
X85344Y61567D02*
D03*
D247*
X96984D02*
D03*
D248*
X85524Y61658D02*
D03*
D249*
X97164D02*
D03*
M02*
