G04 Layer_Physical_Order=1*
G04 Layer_Color=255*
%FSLAX25Y25*%
%MOIN*%
G70*
G01*
G75*
%ADD10R,0.03543X0.02362*%
%ADD11R,0.03937X0.04331*%
%ADD12R,0.07480X0.09350*%
%ADD13R,0.08268X0.05807*%
%ADD14R,0.06693X0.01772*%
%ADD15R,0.04331X0.03937*%
%ADD16R,0.05512X0.04724*%
%ADD17R,0.14173X0.14173*%
%ADD18O,0.03347X0.00984*%
%ADD19O,0.00984X0.03347*%
%ADD20R,0.07874X0.06299*%
%ADD21R,0.03150X0.03150*%
%ADD22R,0.05512X0.03937*%
%ADD23C,0.00787*%
%ADD24C,0.01181*%
%ADD25C,0.01969*%
%ADD26C,0.05118*%
%ADD27R,0.05906X0.05906*%
%ADD28C,0.05906*%
%ADD29C,0.02362*%
%ADD30C,0.03150*%
G36*
X164339Y1016D02*
X1016D01*
Y103315D01*
X164339D01*
Y1016D01*
D02*
G37*
%LPC*%
G36*
X147441Y72731D02*
Y70000D01*
X150172D01*
X150116Y70429D01*
X149799Y71195D01*
X149294Y71853D01*
X148636Y72357D01*
X147870Y72675D01*
X147441Y72731D01*
D02*
G37*
G36*
X75000Y77362D02*
X72047D01*
Y74803D01*
X75000D01*
Y77362D01*
D02*
G37*
G36*
X79921Y77363D02*
X77559D01*
Y75197D01*
X79921D01*
Y77363D01*
D02*
G37*
G36*
X146654Y72731D02*
X146225Y72675D01*
X145459Y72357D01*
X144801Y71853D01*
X144296Y71195D01*
X143979Y70429D01*
X143922Y70000D01*
X146654D01*
Y72731D01*
D02*
G37*
G36*
X38582Y60650D02*
X36417D01*
Y58287D01*
X38582D01*
Y60650D01*
D02*
G37*
G36*
X146654Y69213D02*
X143922D01*
X143979Y68784D01*
X144296Y68018D01*
X144801Y67360D01*
X145459Y66855D01*
X146225Y66538D01*
X146654Y66481D01*
Y69213D01*
D02*
G37*
G36*
X150172D02*
X147441D01*
Y66481D01*
X147870Y66538D01*
X148636Y66855D01*
X149294Y67360D01*
X149799Y68018D01*
X150116Y68784D01*
X150172Y69213D01*
D02*
G37*
G36*
X20125Y80315D02*
X17394D01*
Y77584D01*
X17822Y77640D01*
X18588Y77958D01*
X19246Y78462D01*
X19751Y79120D01*
X20068Y79887D01*
X20125Y80315D01*
D02*
G37*
G36*
X75000Y80709D02*
X72047D01*
Y78150D01*
X75000D01*
Y80709D01*
D02*
G37*
G36*
X79921Y80315D02*
X77559D01*
Y78150D01*
X79921D01*
Y80315D01*
D02*
G37*
G36*
X16606Y80315D02*
X13875D01*
X13931Y79887D01*
X14249Y79120D01*
X14754Y78462D01*
X15412Y77958D01*
X16178Y77640D01*
X16606Y77584D01*
Y80315D01*
D02*
G37*
G36*
X129035Y79527D02*
X124902D01*
Y76181D01*
X129035D01*
Y79527D01*
D02*
G37*
G36*
X133957D02*
X129823D01*
Y76181D01*
X133957D01*
Y79527D01*
D02*
G37*
G36*
X7000Y83897D02*
X6175Y83789D01*
X5406Y83470D01*
X4745Y82964D01*
X4238Y82303D01*
X3920Y81534D01*
X3811Y80709D01*
X3920Y79883D01*
X4238Y79114D01*
X4745Y78454D01*
X5406Y77947D01*
X6175Y77629D01*
X7000Y77520D01*
X7825Y77629D01*
X8594Y77947D01*
X9255Y78454D01*
X9761Y79114D01*
X10080Y79883D01*
X10189Y80709D01*
X10080Y81534D01*
X9761Y82303D01*
X9255Y82964D01*
X8594Y83470D01*
X7825Y83789D01*
X7000Y83897D01*
D02*
G37*
G36*
X35629Y60650D02*
X33464D01*
Y58287D01*
X35629D01*
Y60650D01*
D02*
G37*
G36*
X20522Y6606D02*
X17394D01*
Y3478D01*
X17925Y3548D01*
X18787Y3905D01*
X19527Y4473D01*
X20095Y5213D01*
X20452Y6075D01*
X20522Y6606D01*
D02*
G37*
G36*
X16606Y10522D02*
X16075Y10452D01*
X15213Y10095D01*
X14473Y9527D01*
X13905Y8787D01*
X13548Y7925D01*
X13478Y7394D01*
X16606D01*
Y10522D01*
D02*
G37*
G36*
X17394Y10522D02*
Y7394D01*
X20522D01*
X20452Y7925D01*
X20095Y8787D01*
X19527Y9527D01*
X18787Y10095D01*
X17925Y10452D01*
X17394Y10522D01*
D02*
G37*
G36*
X16606Y6606D02*
X13478D01*
X13548Y6075D01*
X13905Y5213D01*
X14473Y4473D01*
X15213Y3905D01*
X16075Y3548D01*
X16606Y3478D01*
Y6606D01*
D02*
G37*
G36*
X7000Y10586D02*
X6072Y10464D01*
X5207Y10105D01*
X4465Y9535D01*
X3895Y8793D01*
X3536Y7928D01*
X3414Y7000D01*
X3536Y6072D01*
X3895Y5207D01*
X4465Y4465D01*
X5207Y3895D01*
X6072Y3536D01*
X7000Y3414D01*
X7928Y3536D01*
X8793Y3895D01*
X9535Y4465D01*
X10105Y5207D01*
X10464Y6072D01*
X10586Y7000D01*
X10464Y7928D01*
X10105Y8793D01*
X9535Y9535D01*
X8793Y10105D01*
X7928Y10464D01*
X7000Y10586D01*
D02*
G37*
G36*
X37000D02*
X36072Y10464D01*
X35207Y10105D01*
X34464Y9535D01*
X33895Y8793D01*
X33536Y7928D01*
X33414Y7000D01*
X33536Y6072D01*
X33895Y5207D01*
X34464Y4465D01*
X35207Y3895D01*
X36072Y3536D01*
X37000Y3414D01*
X37928Y3536D01*
X38793Y3895D01*
X39535Y4465D01*
X40105Y5207D01*
X40464Y6072D01*
X40586Y7000D01*
X40464Y7928D01*
X40105Y8793D01*
X39535Y9535D01*
X38793Y10105D01*
X37928Y10464D01*
X37000Y10586D01*
D02*
G37*
G36*
X137000D02*
X136072Y10464D01*
X135207Y10105D01*
X134465Y9535D01*
X133895Y8793D01*
X133536Y7928D01*
X133414Y7000D01*
X133536Y6072D01*
X133895Y5207D01*
X134465Y4465D01*
X135207Y3895D01*
X136072Y3536D01*
X137000Y3414D01*
X137928Y3536D01*
X138793Y3895D01*
X139535Y4465D01*
X140105Y5207D01*
X140464Y6072D01*
X140586Y7000D01*
X140464Y7928D01*
X140105Y8793D01*
X139535Y9535D01*
X138793Y10105D01*
X137928Y10464D01*
X137000Y10586D01*
D02*
G37*
G36*
X135937Y55229D02*
X130795D01*
Y49693D01*
X134698D01*
X137539Y46851D01*
X137348Y46389D01*
X135992D01*
Y47157D01*
X131244D01*
Y43591D01*
Y40441D01*
Y37291D01*
Y34142D01*
X132275D01*
Y28644D01*
X131151Y27520D01*
X128589D01*
X128124Y27427D01*
X127729Y27163D01*
X126389Y25823D01*
X112008D01*
X111543Y25730D01*
X111148Y25466D01*
X109611Y23929D01*
X106976D01*
Y19575D01*
X111331D01*
Y22209D01*
X112512Y23390D01*
X112977D01*
X113182Y22890D01*
X112887Y22448D01*
X112749Y21752D01*
X112887Y21056D01*
X113281Y20466D01*
X113871Y20072D01*
X114567Y19933D01*
X114759Y19972D01*
X115145Y19654D01*
Y19575D01*
X119500D01*
Y23390D01*
X121051D01*
Y19575D01*
X123123D01*
X123315Y19113D01*
X122901Y18699D01*
X122804Y18680D01*
X122214Y18286D01*
X121820Y17696D01*
X121682Y17000D01*
X121820Y16304D01*
X122214Y15714D01*
X122804Y15320D01*
X123500Y15182D01*
X124196Y15320D01*
X124786Y15714D01*
X125180Y16304D01*
X125318Y17000D01*
X125222Y17484D01*
X125505Y17925D01*
X125589Y17984D01*
X128645D01*
X128645Y17984D01*
X129034Y18062D01*
X129363Y18282D01*
X130656Y19575D01*
X132138D01*
X141482Y10231D01*
X141482Y10231D01*
X141812Y10011D01*
X142200Y9933D01*
X144229D01*
X144386Y9433D01*
X143895Y8793D01*
X143536Y7928D01*
X143414Y7000D01*
X143536Y6072D01*
X143895Y5207D01*
X144465Y4465D01*
X145207Y3895D01*
X146072Y3536D01*
X147000Y3414D01*
X147928Y3536D01*
X148793Y3895D01*
X149536Y4465D01*
X150105Y5207D01*
X150464Y6072D01*
X150569Y6872D01*
X151033Y7115D01*
X151866Y6282D01*
X151866Y6282D01*
X152196Y6062D01*
X152584Y5984D01*
X153445D01*
Y3445D01*
X160555D01*
Y10555D01*
X153445D01*
Y8161D01*
X152945Y8076D01*
X149354Y11667D01*
X149024Y11887D01*
X148636Y11964D01*
X148635Y11964D01*
X142621D01*
X135511Y19075D01*
X135718Y19575D01*
X139480D01*
Y23929D01*
X138519D01*
Y31246D01*
X139226Y31953D01*
X139357Y32149D01*
X139489Y32347D01*
X139489Y32347D01*
X139489Y32347D01*
X139534Y32570D01*
X139582Y32812D01*
Y39902D01*
X139489Y40367D01*
X139226Y40762D01*
X136903Y43084D01*
X136509Y43348D01*
X136043Y43441D01*
X135992D01*
Y44358D01*
X138067D01*
X143537Y38888D01*
X143867Y38668D01*
X144027Y38636D01*
X144286Y38012D01*
X144793Y37352D01*
X145453Y36845D01*
X146222Y36526D01*
X147047Y36418D01*
X147873Y36526D01*
X148642Y36845D01*
X149302Y37352D01*
X149809Y38012D01*
X150127Y38781D01*
X150236Y39606D01*
X150127Y40432D01*
X149809Y41201D01*
X149302Y41861D01*
X148642Y42368D01*
X147873Y42686D01*
X147047Y42795D01*
X146222Y42686D01*
X145453Y42368D01*
X144793Y41861D01*
X144511Y41494D01*
X143869Y41429D01*
X142169Y43129D01*
X142360Y43591D01*
X154046D01*
X154286Y43012D01*
X154793Y42352D01*
X155453Y41845D01*
X156222Y41526D01*
X157047Y41418D01*
X157873Y41526D01*
X158642Y41845D01*
X159302Y42352D01*
X159809Y43012D01*
X160127Y43781D01*
X160236Y44606D01*
X160127Y45432D01*
X159809Y46201D01*
X159302Y46861D01*
X158642Y47368D01*
X157873Y47686D01*
X157047Y47795D01*
X156222Y47686D01*
X155453Y47368D01*
X154793Y46861D01*
X154286Y46201D01*
X154046Y45622D01*
X141641D01*
X135937Y51326D01*
Y55229D01*
D02*
G37*
G36*
X129245D02*
X124103D01*
Y51326D01*
X123001Y50224D01*
X111727D01*
X111411Y50541D01*
X111081Y50761D01*
X110995Y50778D01*
X110774Y51109D01*
X110184Y51503D01*
X109488Y51641D01*
X108792Y51503D01*
X108202Y51109D01*
X107808Y50519D01*
X107670Y49823D01*
X107808Y49127D01*
X108202Y48537D01*
X108792Y48143D01*
X109488Y48004D01*
X110131Y48132D01*
X110267Y48019D01*
X110462Y47727D01*
X110328Y47527D01*
X110189Y46831D01*
X110328Y46135D01*
X110722Y45545D01*
X111312Y45151D01*
X112008Y45012D01*
X112704Y45151D01*
X113294Y45545D01*
X113688Y46135D01*
X113821Y46803D01*
X123665D01*
X124157Y46312D01*
Y44039D01*
X123348D01*
X122700Y44472D01*
X121850Y44641D01*
X121001Y44472D01*
X120281Y43991D01*
X119800Y43271D01*
X119631Y42421D01*
X119800Y41572D01*
X120281Y40852D01*
X121001Y40370D01*
X121850Y40201D01*
X122700Y40370D01*
X123348Y40804D01*
X124157D01*
Y37291D01*
Y34142D01*
X128905D01*
Y37291D01*
Y40441D01*
Y44979D01*
X128984Y45374D01*
X128905Y45769D01*
Y47157D01*
X127341D01*
X127165Y47192D01*
X126990Y47157D01*
X126184D01*
X124804Y48537D01*
X124794Y49145D01*
X125343Y49693D01*
X129245D01*
Y55229D01*
D02*
G37*
G36*
X38582Y57500D02*
X36417D01*
Y55138D01*
X38582D01*
Y57500D01*
D02*
G37*
G36*
X20867Y46654D02*
X16929D01*
X12992D01*
Y45828D01*
X10248D01*
Y45829D01*
X1563D01*
Y35274D01*
X10248D01*
Y38816D01*
X19697D01*
Y45571D01*
X20867D01*
Y46654D01*
D02*
G37*
G36*
X149961Y32680D02*
X149033Y32558D01*
X148168Y32200D01*
X147425Y31630D01*
X146855Y30887D01*
X146497Y30023D01*
X146375Y29094D01*
X146497Y28166D01*
X146855Y27302D01*
X147425Y26559D01*
X148168Y25989D01*
X149033Y25631D01*
X149961Y25509D01*
X150889Y25631D01*
X151754Y25989D01*
X152496Y26559D01*
X153066Y27302D01*
X153424Y28166D01*
X153547Y29094D01*
X153424Y30023D01*
X153066Y30887D01*
X152496Y31630D01*
X151754Y32200D01*
X150889Y32558D01*
X149961Y32680D01*
D02*
G37*
G36*
X157047Y37795D02*
X156222Y37686D01*
X155453Y37368D01*
X154793Y36861D01*
X154286Y36201D01*
X153967Y35432D01*
X153859Y34606D01*
X153967Y33781D01*
X154286Y33012D01*
X154793Y32352D01*
X155453Y31845D01*
X156222Y31526D01*
X157047Y31418D01*
X157873Y31526D01*
X158642Y31845D01*
X159302Y32352D01*
X159809Y33012D01*
X160127Y33781D01*
X160236Y34606D01*
X160127Y35432D01*
X159809Y36201D01*
X159302Y36861D01*
X158642Y37368D01*
X157873Y37686D01*
X157047Y37795D01*
D02*
G37*
G36*
X28937Y35610D02*
X26772D01*
Y33248D01*
X28937D01*
Y35610D01*
D02*
G37*
G36*
X107000Y100586D02*
X106072Y100464D01*
X105207Y100105D01*
X104464Y99536D01*
X103895Y98793D01*
X103536Y97928D01*
X103414Y97000D01*
X103536Y96072D01*
X103895Y95207D01*
X104464Y94464D01*
X105207Y93895D01*
X106072Y93536D01*
X107000Y93414D01*
X107928Y93536D01*
X108793Y93895D01*
X109536Y94464D01*
X110105Y95207D01*
X110464Y96072D01*
X110586Y97000D01*
X110464Y97928D01*
X110105Y98793D01*
X109536Y99536D01*
X108793Y100105D01*
X107928Y100464D01*
X107000Y100586D01*
D02*
G37*
G36*
X117000D02*
X116072Y100464D01*
X115207Y100105D01*
X114464Y99536D01*
X113895Y98793D01*
X113536Y97928D01*
X113414Y97000D01*
X113536Y96072D01*
X113895Y95207D01*
X114464Y94464D01*
X115207Y93895D01*
X116072Y93536D01*
X117000Y93414D01*
X117928Y93536D01*
X118793Y93895D01*
X119536Y94464D01*
X120105Y95207D01*
X120464Y96072D01*
X120586Y97000D01*
X120464Y97928D01*
X120105Y98793D01*
X119536Y99536D01*
X118793Y100105D01*
X117928Y100464D01*
X117000Y100586D01*
D02*
G37*
G36*
X127000D02*
X126072Y100464D01*
X125207Y100105D01*
X124464Y99536D01*
X123895Y98793D01*
X123536Y97928D01*
X123414Y97000D01*
X123536Y96072D01*
X123895Y95207D01*
X124464Y94464D01*
X125207Y93895D01*
X126072Y93536D01*
X127000Y93414D01*
X127928Y93536D01*
X128793Y93895D01*
X129535Y94464D01*
X130105Y95207D01*
X130464Y96072D01*
X130586Y97000D01*
X130464Y97928D01*
X130105Y98793D01*
X129535Y99536D01*
X128793Y100105D01*
X127928Y100464D01*
X127000Y100586D01*
D02*
G37*
G36*
X87000D02*
X86072Y100464D01*
X85207Y100105D01*
X84465Y99536D01*
X83895Y98793D01*
X83536Y97928D01*
X83414Y97000D01*
X83536Y96072D01*
X83895Y95207D01*
X84465Y94464D01*
X85207Y93895D01*
X86072Y93536D01*
X87000Y93414D01*
X87928Y93536D01*
X88793Y93895D01*
X89535Y94464D01*
X90105Y95207D01*
X90464Y96072D01*
X90586Y97000D01*
X90464Y97928D01*
X90105Y98793D01*
X89535Y99536D01*
X88793Y100105D01*
X87928Y100464D01*
X87000Y100586D01*
D02*
G37*
G36*
X27000D02*
X26072Y100464D01*
X25207Y100105D01*
X24464Y99536D01*
X23895Y98793D01*
X23536Y97928D01*
X23414Y97000D01*
X23536Y96072D01*
X23895Y95207D01*
X24464Y94464D01*
X25207Y93895D01*
X26072Y93536D01*
X27000Y93414D01*
X27928Y93536D01*
X28793Y93895D01*
X29535Y94464D01*
X30105Y95207D01*
X30464Y96072D01*
X30586Y97000D01*
X30464Y97928D01*
X30105Y98793D01*
X29535Y99536D01*
X28793Y100105D01*
X27928Y100464D01*
X27000Y100586D01*
D02*
G37*
G36*
X97000D02*
X96072Y100464D01*
X95207Y100105D01*
X94464Y99536D01*
X93895Y98793D01*
X93536Y97928D01*
X93414Y97000D01*
X93536Y96072D01*
X93895Y95207D01*
X94464Y94464D01*
X95207Y93895D01*
X96072Y93536D01*
X96524Y93477D01*
Y87019D01*
X94771D01*
Y83496D01*
X93799D01*
X93410Y83419D01*
X93081Y83198D01*
X93081Y83198D01*
X92183Y82301D01*
X91683Y82508D01*
Y84055D01*
X89321D01*
Y81889D01*
X91065D01*
X91272Y81389D01*
X90210Y80327D01*
X86159D01*
Y77875D01*
X83571Y75287D01*
X83071Y75494D01*
X83071Y75554D01*
X83071Y75554D01*
X83071Y75574D01*
Y77363D01*
X80709D01*
Y75197D01*
X82694Y75197D01*
X82714D01*
D01*
X82775Y75197D01*
X82817Y75094D01*
X82982Y74697D01*
X74121Y65837D01*
X73642Y65982D01*
X73629Y66050D01*
X73235Y66640D01*
X72645Y67034D01*
X71949Y67173D01*
X71253Y67034D01*
X71142Y66960D01*
X70701Y67196D01*
Y73198D01*
X70701Y73198D01*
X70648Y73464D01*
X70623Y73586D01*
X70623Y73586D01*
X70623Y73586D01*
X70513Y73752D01*
X70403Y73916D01*
X70403Y73916D01*
X70403Y73916D01*
X69978Y74341D01*
X70169Y74803D01*
X71260D01*
Y77756D01*
Y80709D01*
X70083D01*
X69888Y81161D01*
X70151Y81484D01*
X75012D01*
Y83433D01*
X77547D01*
Y81877D01*
X83083D01*
Y87019D01*
X77547D01*
Y85464D01*
X75012D01*
Y87413D01*
X68295D01*
Y82527D01*
X67183Y81415D01*
X66963Y81086D01*
X66886Y80697D01*
X66886Y80697D01*
Y76684D01*
X66386Y76416D01*
X66350Y76440D01*
Y80721D01*
X59634D01*
Y78772D01*
X57099D01*
Y80327D01*
X52185D01*
Y81889D01*
X53937D01*
Y84448D01*
Y87007D01*
X52185D01*
Y88783D01*
X55437Y92036D01*
X63051D01*
X63051Y92036D01*
X63440Y92113D01*
X63769Y92333D01*
X65295Y93858D01*
X66072Y93536D01*
X67000Y93414D01*
X67928Y93536D01*
X68793Y93895D01*
X69535Y94464D01*
X70105Y95207D01*
X70464Y96072D01*
X70586Y97000D01*
X70464Y97928D01*
X70105Y98793D01*
X69535Y99536D01*
X68793Y100105D01*
X67928Y100464D01*
X67000Y100586D01*
X66072Y100464D01*
X65207Y100105D01*
X64464Y99536D01*
X63895Y98793D01*
X63536Y97928D01*
X63414Y97000D01*
X63536Y96072D01*
X63858Y95295D01*
X62630Y94067D01*
X59771D01*
X59614Y94567D01*
X60105Y95207D01*
X60464Y96072D01*
X60586Y97000D01*
X60464Y97928D01*
X60105Y98793D01*
X59535Y99536D01*
X58793Y100105D01*
X57928Y100464D01*
X57000Y100586D01*
X56072Y100464D01*
X55207Y100105D01*
X54465Y99536D01*
X53895Y98793D01*
X53536Y97928D01*
X53414Y97000D01*
X53536Y96072D01*
X53858Y95295D01*
X49061Y90497D01*
X48841Y90168D01*
X48764Y89779D01*
X48764Y89779D01*
Y74800D01*
X48764Y74800D01*
X48841Y74411D01*
X49061Y74081D01*
X50459Y72684D01*
X50550Y72623D01*
X53294Y69879D01*
Y58644D01*
X53294Y58644D01*
X53372Y58256D01*
X53592Y57926D01*
X56853Y54665D01*
X56646Y54165D01*
X52683D01*
X52683Y54165D01*
X52295Y54088D01*
X51965Y53868D01*
X51965Y53868D01*
X51525Y53428D01*
X51486Y53454D01*
X50790Y53593D01*
X50094Y53454D01*
X49504Y53060D01*
X49110Y52470D01*
X48972Y51774D01*
X49110Y51078D01*
X49160Y51004D01*
X48924Y50563D01*
X38594D01*
Y52315D01*
X36989D01*
X36961Y52456D01*
X36741Y52785D01*
X36741Y52786D01*
X34851Y54676D01*
X35042Y55138D01*
X35629D01*
Y57500D01*
X33464D01*
Y56716D01*
X33002Y56525D01*
X31902Y57625D01*
Y60662D01*
X26760D01*
Y55126D01*
X31528D01*
X33877Y52777D01*
X33686Y52315D01*
X33452D01*
Y46780D01*
X33970D01*
X34161Y46317D01*
X32340Y44497D01*
X32231Y44333D01*
X32053Y44136D01*
X31698Y43969D01*
X28000Y43969D01*
X27197Y44772D01*
Y46780D01*
X31902D01*
Y52315D01*
X27999D01*
X24872Y55442D01*
X24543Y55663D01*
X24154Y55740D01*
X24154Y55740D01*
X23447D01*
X23180Y56240D01*
X23509Y56732D01*
X23677Y57582D01*
X23509Y58431D01*
X23027Y59151D01*
X22307Y59632D01*
X21458Y59801D01*
X20608Y59632D01*
X20197Y59358D01*
X19697Y59625D01*
Y65514D01*
X10248D01*
Y69057D01*
X1563D01*
Y58502D01*
X10248D01*
Y58503D01*
X12981D01*
Y55795D01*
Y53236D01*
Y50677D01*
Y48118D01*
X12992D01*
Y47441D01*
X16929D01*
X20867D01*
Y48118D01*
X20878D01*
Y51138D01*
X23804D01*
X25166Y49776D01*
Y44351D01*
X25166Y44351D01*
X25243Y43962D01*
X25463Y43633D01*
X25463Y43633D01*
X26760Y42336D01*
Y38433D01*
X31902Y38433D01*
X32043Y37991D01*
Y36047D01*
X31890Y35610D01*
X29725D01*
Y32854D01*
X29331D01*
Y32461D01*
X26772D01*
Y30098D01*
X27312D01*
X27463Y29598D01*
X27401Y29557D01*
X25648Y27804D01*
X25428Y27475D01*
X25351Y27086D01*
X25351Y27086D01*
Y10165D01*
X25207Y10105D01*
X24464Y9535D01*
X23895Y8793D01*
X23536Y7928D01*
X23414Y7000D01*
X23536Y6072D01*
X23895Y5207D01*
X24464Y4465D01*
X25207Y3895D01*
X26072Y3536D01*
X27000Y3414D01*
X27928Y3536D01*
X28793Y3895D01*
X29535Y4465D01*
X30105Y5207D01*
X30464Y6072D01*
X30586Y7000D01*
X30464Y7928D01*
X30105Y8793D01*
X29535Y9535D01*
X28793Y10105D01*
X27928Y10464D01*
X27382Y10536D01*
Y21740D01*
X30663D01*
X31775Y20628D01*
X32104Y20408D01*
X32493Y20331D01*
X38404D01*
X38404Y20331D01*
X38464Y20343D01*
X44607D01*
X44666Y20331D01*
X44666Y20331D01*
X51003D01*
X51003Y20331D01*
X51392Y20408D01*
X51721Y20628D01*
X52305Y21212D01*
X52305Y21212D01*
X52525Y21541D01*
X52602Y21930D01*
X52602Y21930D01*
Y23803D01*
X54279Y25480D01*
X59233D01*
Y20669D01*
X48705Y10142D01*
X47928Y10464D01*
X47000Y10586D01*
X46072Y10464D01*
X45207Y10105D01*
X44464Y9535D01*
X43895Y8793D01*
X43536Y7928D01*
X43414Y7000D01*
X43536Y6072D01*
X43895Y5207D01*
X44464Y4465D01*
X45207Y3895D01*
X46072Y3536D01*
X47000Y3414D01*
X47928Y3536D01*
X48793Y3895D01*
X49536Y4465D01*
X50105Y5207D01*
X50464Y6072D01*
X50586Y7000D01*
X50464Y7928D01*
X50142Y8705D01*
X60966Y19530D01*
X61187Y19860D01*
X61264Y20248D01*
Y30432D01*
X61187Y30821D01*
X60966Y31150D01*
X60966Y31150D01*
X60413Y31703D01*
X60605Y32165D01*
X61236D01*
X61312Y31784D01*
X61706Y31194D01*
X62296Y30800D01*
X62992Y30662D01*
X63688Y30800D01*
X64233Y31164D01*
X64448Y31112D01*
X64733Y30975D01*
Y11753D01*
X60995Y8016D01*
X60427D01*
X60105Y8793D01*
X59535Y9535D01*
X58793Y10105D01*
X57928Y10464D01*
X57000Y10586D01*
X56072Y10464D01*
X55207Y10105D01*
X54465Y9535D01*
X53895Y8793D01*
X53536Y7928D01*
X53414Y7000D01*
X53536Y6072D01*
X53895Y5207D01*
X54465Y4465D01*
X55207Y3895D01*
X56072Y3536D01*
X57000Y3414D01*
X57928Y3536D01*
X58793Y3895D01*
X59535Y4465D01*
X60105Y5207D01*
X60427Y5984D01*
X61415D01*
X61415Y5984D01*
X61804Y6062D01*
X62134Y6282D01*
X62967Y7115D01*
X63431Y6872D01*
X63536Y6072D01*
X63895Y5207D01*
X64464Y4465D01*
X65207Y3895D01*
X66072Y3536D01*
X67000Y3414D01*
X67928Y3536D01*
X68793Y3895D01*
X69535Y4465D01*
X70105Y5207D01*
X70464Y6072D01*
X70586Y7000D01*
X70464Y7928D01*
X70105Y8793D01*
X69535Y9535D01*
X68793Y10105D01*
X68252Y10329D01*
Y40341D01*
X68682Y40607D01*
X69026Y40527D01*
X69441Y40112D01*
X69447Y40102D01*
X70319Y39231D01*
X70319Y39231D01*
X70329Y39224D01*
X73102Y36451D01*
X73102Y36451D01*
X73431Y36231D01*
X73820Y36154D01*
X77325D01*
X77512Y35925D01*
X77651Y35229D01*
X78045Y34639D01*
X78635Y34245D01*
X79331Y34107D01*
X80027Y34245D01*
X80616Y34639D01*
X81011Y35229D01*
X81105Y35703D01*
X81628Y35887D01*
X92712Y24802D01*
Y12456D01*
X92221Y11964D01*
X85364D01*
X84976Y11887D01*
X84646Y11667D01*
X84646Y11667D01*
X80995Y8016D01*
X80427D01*
X80105Y8793D01*
X79536Y9535D01*
X78793Y10105D01*
X77928Y10464D01*
X77000Y10586D01*
X76072Y10464D01*
X75207Y10105D01*
X74464Y9535D01*
X73895Y8793D01*
X73536Y7928D01*
X73414Y7000D01*
X73536Y6072D01*
X73895Y5207D01*
X74464Y4465D01*
X75207Y3895D01*
X76072Y3536D01*
X77000Y3414D01*
X77928Y3536D01*
X78793Y3895D01*
X79536Y4465D01*
X80105Y5207D01*
X80427Y5984D01*
X81415D01*
X81415Y5984D01*
X81804Y6062D01*
X82134Y6282D01*
X82967Y7115D01*
X83431Y6872D01*
X83536Y6072D01*
X83895Y5207D01*
X84465Y4465D01*
X85207Y3895D01*
X86072Y3536D01*
X87000Y3414D01*
X87928Y3536D01*
X88793Y3895D01*
X89535Y4465D01*
X90105Y5207D01*
X90464Y6072D01*
X90586Y7000D01*
X90464Y7928D01*
X90381Y8128D01*
X90659Y8543D01*
X93217D01*
X93217Y8543D01*
X93253Y8551D01*
X93613Y8112D01*
X93536Y7928D01*
X93414Y7000D01*
X93536Y6072D01*
X93895Y5207D01*
X94464Y4465D01*
X95207Y3895D01*
X96072Y3536D01*
X97000Y3414D01*
X97928Y3536D01*
X98793Y3895D01*
X99536Y4465D01*
X100105Y5207D01*
X100464Y6072D01*
X100586Y7000D01*
X100464Y7928D01*
X100350Y8202D01*
X100628Y8618D01*
X103372D01*
X103650Y8202D01*
X103536Y7928D01*
X103414Y7000D01*
X103536Y6072D01*
X103895Y5207D01*
X104464Y4465D01*
X105207Y3895D01*
X106072Y3536D01*
X107000Y3414D01*
X107928Y3536D01*
X108793Y3895D01*
X109536Y4465D01*
X110105Y5207D01*
X110464Y6072D01*
X110586Y7000D01*
X110464Y7928D01*
X110105Y8793D01*
X109557Y9508D01*
X109587Y9686D01*
X109696Y10008D01*
X113457D01*
X114232Y9233D01*
X113895Y8793D01*
X113536Y7928D01*
X113414Y7000D01*
X113536Y6072D01*
X113895Y5207D01*
X114464Y4465D01*
X115207Y3895D01*
X116072Y3536D01*
X117000Y3414D01*
X117928Y3536D01*
X118793Y3895D01*
X119536Y4465D01*
X120105Y5207D01*
X120464Y6072D01*
X120586Y7000D01*
X120464Y7928D01*
X120105Y8793D01*
X119536Y9535D01*
X118793Y10105D01*
X117928Y10464D01*
X117000Y10586D01*
X116072Y10464D01*
X115932Y10406D01*
X115402Y10936D01*
X115593Y11398D01*
X121166D01*
X123858Y8705D01*
X123536Y7928D01*
X123414Y7000D01*
X123536Y6072D01*
X123895Y5207D01*
X124464Y4465D01*
X125207Y3895D01*
X126072Y3536D01*
X127000Y3414D01*
X127928Y3536D01*
X128793Y3895D01*
X129535Y4465D01*
X130105Y5207D01*
X130464Y6072D01*
X130586Y7000D01*
X130464Y7928D01*
X130105Y8793D01*
X129535Y9535D01*
X128793Y10105D01*
X127928Y10464D01*
X127000Y10586D01*
X126072Y10464D01*
X125294Y10142D01*
X122305Y13131D01*
X121975Y13352D01*
X121587Y13429D01*
X121586Y13429D01*
X101692D01*
Y19575D01*
X105425D01*
Y20207D01*
X105813Y20466D01*
X106208Y21056D01*
X106346Y21752D01*
X106208Y22448D01*
X105813Y23038D01*
X105425Y23297D01*
Y23929D01*
X103082D01*
Y28677D01*
X103082Y28677D01*
X103005Y29066D01*
X102785Y29395D01*
X102785Y29395D01*
X97016Y35164D01*
Y54220D01*
X97290Y54403D01*
X97684Y54993D01*
X97822Y55689D01*
X97687Y56370D01*
X97673Y56460D01*
X97953Y56870D01*
X123312D01*
X123727Y56455D01*
X123727Y56455D01*
X124057Y56235D01*
X124445Y56158D01*
X128617D01*
X128617Y56158D01*
X129006Y56235D01*
X129335Y56455D01*
X130017Y57137D01*
X130237Y57466D01*
X130314Y57855D01*
X130314Y57855D01*
Y61307D01*
X130623Y61513D01*
X130744Y61694D01*
X131244Y61542D01*
Y57665D01*
X135992D01*
Y58433D01*
X137260D01*
X144375Y51317D01*
X144286Y51201D01*
X143967Y50432D01*
X143859Y49606D01*
X143967Y48781D01*
X144286Y48012D01*
X144793Y47352D01*
X145453Y46845D01*
X146222Y46526D01*
X147047Y46418D01*
X147873Y46526D01*
X148642Y46845D01*
X149302Y47352D01*
X149809Y48012D01*
X150127Y48781D01*
X150236Y49606D01*
X150127Y50432D01*
X149809Y51201D01*
X149302Y51861D01*
X148642Y52368D01*
X147873Y52686D01*
X147047Y52795D01*
X146222Y52686D01*
X145979Y52586D01*
X145437Y53129D01*
X145628Y53591D01*
X154046D01*
X154286Y53012D01*
X154793Y52352D01*
X155453Y51845D01*
X156222Y51526D01*
X157047Y51418D01*
X157873Y51526D01*
X158642Y51845D01*
X159302Y52352D01*
X159809Y53012D01*
X160127Y53781D01*
X160236Y54606D01*
X160127Y55432D01*
X159809Y56201D01*
X159302Y56861D01*
X158642Y57368D01*
X157873Y57686D01*
X157047Y57795D01*
X156222Y57686D01*
X155453Y57368D01*
X154793Y56861D01*
X154286Y56201D01*
X154046Y55622D01*
X144909D01*
X142422Y58108D01*
X142428Y58152D01*
X142647Y58591D01*
X144046D01*
X144286Y58012D01*
X144793Y57352D01*
X145453Y56845D01*
X146222Y56526D01*
X147047Y56418D01*
X147873Y56526D01*
X148642Y56845D01*
X149302Y57352D01*
X149809Y58012D01*
X150127Y58781D01*
X150236Y59606D01*
X150127Y60432D01*
X149809Y61201D01*
X149302Y61861D01*
X148642Y62368D01*
X147873Y62686D01*
X147047Y62795D01*
X146222Y62686D01*
X145453Y62368D01*
X144793Y61861D01*
X144286Y61201D01*
X144046Y60622D01*
X142901D01*
X140432Y63091D01*
X140639Y63591D01*
X154046D01*
X154286Y63012D01*
X154793Y62352D01*
X155453Y61845D01*
X156222Y61526D01*
X157047Y61418D01*
X157873Y61526D01*
X158642Y61845D01*
X159302Y62352D01*
X159809Y63012D01*
X160127Y63781D01*
X160236Y64606D01*
X160127Y65432D01*
X159809Y66201D01*
X159302Y66861D01*
X158642Y67368D01*
X157873Y67686D01*
X157047Y67795D01*
X156222Y67686D01*
X155453Y67368D01*
X154793Y66861D01*
X154286Y66201D01*
X154046Y65622D01*
X140736D01*
X136742Y69616D01*
X136412Y69836D01*
X136023Y69913D01*
X135992Y70391D01*
Y70681D01*
X131244D01*
Y67114D01*
Y64055D01*
X131047Y63941D01*
X130744Y63903D01*
X130623Y64084D01*
X130377Y64248D01*
X130063Y64536D01*
X130250Y64889D01*
X130426Y65154D01*
X130565Y65850D01*
X130426Y66545D01*
X130032Y67136D01*
X129442Y67530D01*
X128905Y67637D01*
Y70681D01*
X124157D01*
Y66741D01*
X123883Y66686D01*
X123554Y66466D01*
X123045Y65958D01*
X122825Y65628D01*
X122748Y65240D01*
X122748Y65240D01*
Y62176D01*
X122253Y61681D01*
X96969D01*
X96701Y62181D01*
X96778Y62296D01*
X96917Y62992D01*
X96778Y63688D01*
X96384Y64278D01*
X95794Y64672D01*
X95098Y64811D01*
X94403Y64672D01*
X93813Y64278D01*
X93418Y63688D01*
X93296Y63071D01*
X83153D01*
X82000Y64224D01*
Y65797D01*
X82270Y65978D01*
X82664Y66568D01*
X82803Y67264D01*
X82703Y67763D01*
X82704Y67764D01*
X83164Y68011D01*
X83757Y67615D01*
X84606Y67445D01*
X85456Y67615D01*
X86104Y68048D01*
X89448D01*
X90067Y68171D01*
X90592Y68521D01*
X97256Y75186D01*
X100307D01*
Y80327D01*
X94771D01*
Y77276D01*
X88778Y71283D01*
X86104D01*
X85456Y71716D01*
X84606Y71885D01*
X83757Y71716D01*
X83256Y71382D01*
X83224Y71360D01*
X82906Y71749D01*
X86342Y75186D01*
X91695D01*
Y78940D01*
X94220Y81465D01*
X95571D01*
X95571Y81465D01*
X95960Y81542D01*
X96289Y81762D01*
X96405Y81877D01*
X100307D01*
Y83433D01*
X103221D01*
X103630Y83024D01*
Y76169D01*
X112708D01*
Y83673D01*
X105853D01*
X104360Y85166D01*
X104031Y85387D01*
X103642Y85464D01*
X103642Y85464D01*
X100307D01*
Y87019D01*
X98555D01*
Y93796D01*
X98793Y93895D01*
X99536Y94464D01*
X100105Y95207D01*
X100464Y96072D01*
X100586Y97000D01*
X100464Y97928D01*
X100105Y98793D01*
X99536Y99536D01*
X98793Y100105D01*
X97928Y100464D01*
X97000Y100586D01*
D02*
G37*
G36*
X77000D02*
X76072Y100464D01*
X75207Y100105D01*
X74464Y99536D01*
X73895Y98793D01*
X73536Y97928D01*
X73414Y97000D01*
X73536Y96072D01*
X73895Y95207D01*
X74464Y94464D01*
X75207Y93895D01*
X76072Y93536D01*
X77000Y93414D01*
X77928Y93536D01*
X78793Y93895D01*
X79536Y94464D01*
X80105Y95207D01*
X80464Y96072D01*
X80586Y97000D01*
X80464Y97928D01*
X80105Y98793D01*
X79536Y99536D01*
X78793Y100105D01*
X77928Y100464D01*
X77000Y100586D01*
D02*
G37*
G36*
X137000D02*
X136072Y100464D01*
X135207Y100105D01*
X134465Y99536D01*
X133895Y98793D01*
X133536Y97928D01*
X133414Y97000D01*
X133536Y96072D01*
X133895Y95207D01*
X134465Y94464D01*
X135207Y93895D01*
X136072Y93536D01*
X137000Y93414D01*
X137928Y93536D01*
X138793Y93895D01*
X139535Y94464D01*
X140105Y95207D01*
X140464Y96072D01*
X140586Y97000D01*
X140464Y97928D01*
X140105Y98793D01*
X139535Y99536D01*
X138793Y100105D01*
X137928Y100464D01*
X137000Y100586D01*
D02*
G37*
G36*
X47000D02*
X46072Y100464D01*
X45207Y100105D01*
X44464Y99536D01*
X43895Y98793D01*
X43573Y98015D01*
X42584D01*
X42196Y97938D01*
X41866Y97718D01*
X41866Y97718D01*
X41033Y96885D01*
X40569Y97128D01*
X40464Y97928D01*
X40105Y98793D01*
X39535Y99536D01*
X38793Y100105D01*
X37928Y100464D01*
X37000Y100586D01*
X36072Y100464D01*
X35207Y100105D01*
X34464Y99536D01*
X33895Y98793D01*
X33536Y97928D01*
X33414Y97000D01*
X33536Y96072D01*
X33858Y95295D01*
X28447Y89883D01*
X28227Y89554D01*
X28150Y89165D01*
X28150Y89165D01*
Y84135D01*
X27650Y83812D01*
X27000Y83897D01*
X26175Y83789D01*
X25406Y83470D01*
X24745Y82964D01*
X24238Y82303D01*
X23920Y81534D01*
X23811Y80709D01*
X23920Y79883D01*
X24238Y79114D01*
X24745Y78454D01*
X25406Y77947D01*
X26175Y77629D01*
X27000Y77520D01*
X27816Y77627D01*
X27921Y77637D01*
X28316Y77318D01*
Y69008D01*
X26760D01*
Y63472D01*
X31902D01*
Y67375D01*
X32507Y67980D01*
X32968Y67733D01*
X32925Y67520D01*
X33064Y66824D01*
X33452Y66242D01*
Y63472D01*
X38594D01*
Y64834D01*
X39094Y65101D01*
X39462Y64855D01*
X40157Y64717D01*
X40853Y64855D01*
X41443Y65250D01*
X41837Y65840D01*
X41976Y66535D01*
X41837Y67231D01*
X41443Y67821D01*
X41076Y68067D01*
X40876Y68366D01*
X40876Y68367D01*
X38827Y70415D01*
X38498Y70635D01*
X38109Y70712D01*
X38109Y70712D01*
X32788D01*
X32399Y70635D01*
X32070Y70415D01*
X30847Y69192D01*
X30347Y69399D01*
Y77592D01*
X31273Y78518D01*
X31273Y78518D01*
X31493Y78847D01*
X31571Y79236D01*
Y88169D01*
X35437Y92036D01*
X38636D01*
X38636Y92036D01*
X39024Y92113D01*
X39354Y92333D01*
X43005Y95984D01*
X43573D01*
X43895Y95207D01*
X44464Y94464D01*
X45207Y93895D01*
X46072Y93536D01*
X47000Y93414D01*
X47928Y93536D01*
X48793Y93895D01*
X49536Y94464D01*
X50105Y95207D01*
X50464Y96072D01*
X50586Y97000D01*
X50464Y97928D01*
X50105Y98793D01*
X49536Y99536D01*
X48793Y100105D01*
X47928Y100464D01*
X47000Y100586D01*
D02*
G37*
G36*
X16606Y100522D02*
X16075Y100452D01*
X15213Y100095D01*
X14473Y99527D01*
X13905Y98787D01*
X13548Y97925D01*
X13478Y97394D01*
X16606D01*
Y100522D01*
D02*
G37*
G36*
X17394Y100522D02*
Y97394D01*
X20522D01*
X20452Y97925D01*
X20095Y98787D01*
X19527Y99527D01*
X18787Y100095D01*
X17925Y100452D01*
X17394Y100522D01*
D02*
G37*
G36*
X20522Y96606D02*
X17394D01*
Y93478D01*
X17925Y93548D01*
X18787Y93905D01*
X19527Y94473D01*
X20095Y95213D01*
X20452Y96075D01*
X20522Y96606D01*
D02*
G37*
G36*
X147000Y100586D02*
X146072Y100464D01*
X145207Y100105D01*
X144465Y99536D01*
X143895Y98793D01*
X143536Y97928D01*
X143414Y97000D01*
X143536Y96072D01*
X143895Y95207D01*
X144465Y94464D01*
X145207Y93895D01*
X146072Y93536D01*
X147000Y93414D01*
X147928Y93536D01*
X148793Y93895D01*
X149536Y94464D01*
X150105Y95207D01*
X150464Y96072D01*
X150586Y97000D01*
X150464Y97928D01*
X150105Y98793D01*
X149536Y99536D01*
X148793Y100105D01*
X147928Y100464D01*
X147000Y100586D01*
D02*
G37*
G36*
X160555Y100555D02*
X153445D01*
Y93445D01*
X160555D01*
Y100555D01*
D02*
G37*
G36*
X16606Y96606D02*
X13478D01*
X13548Y96075D01*
X13905Y95213D01*
X14473Y94473D01*
X15213Y93905D01*
X16075Y93548D01*
X16606Y93478D01*
Y96606D01*
D02*
G37*
G36*
X17394Y83834D02*
Y81102D01*
X20125D01*
X20068Y81531D01*
X19751Y82297D01*
X19246Y82955D01*
X18588Y83460D01*
X17822Y83777D01*
X17394Y83834D01*
D02*
G37*
G36*
X62598Y84055D02*
X59646D01*
Y81496D01*
X62598D01*
Y84055D01*
D02*
G37*
G36*
X66339D02*
X63386D01*
Y81496D01*
X66339D01*
Y84055D01*
D02*
G37*
G36*
X16606Y83834D02*
X16178Y83777D01*
X15412Y83460D01*
X14754Y82955D01*
X14249Y82297D01*
X13931Y81531D01*
X13875Y81102D01*
X16606D01*
Y83834D01*
D02*
G37*
G36*
X83071Y80315D02*
X80709D01*
Y78150D01*
X83071D01*
Y80315D01*
D02*
G37*
G36*
X129035Y83661D02*
X124902D01*
Y80315D01*
X129035D01*
Y83661D01*
D02*
G37*
G36*
X133957D02*
X129823D01*
Y80315D01*
X133957D01*
Y83661D01*
D02*
G37*
G36*
X57087Y84055D02*
X54724D01*
Y81889D01*
X57087D01*
Y84055D01*
D02*
G37*
G36*
X62598Y87401D02*
X59646D01*
Y84842D01*
X62598D01*
Y87401D01*
D02*
G37*
G36*
X66339D02*
X63386D01*
Y84842D01*
X66339D01*
Y87401D01*
D02*
G37*
G36*
X7000Y100586D02*
X6072Y100464D01*
X5207Y100105D01*
X4465Y99536D01*
X3895Y98793D01*
X3536Y97928D01*
X3414Y97000D01*
X3536Y96072D01*
X3895Y95207D01*
X4465Y94464D01*
X5207Y93895D01*
X6072Y93536D01*
X7000Y93414D01*
X7928Y93536D01*
X8793Y93895D01*
X9535Y94464D01*
X10105Y95207D01*
X10464Y96072D01*
X10586Y97000D01*
X10464Y97928D01*
X10105Y98793D01*
X9535Y99536D01*
X8793Y100105D01*
X7928Y100464D01*
X7000Y100586D01*
D02*
G37*
G36*
X91683Y87007D02*
X89321D01*
Y84842D01*
X91683D01*
Y87007D01*
D02*
G37*
G36*
X88533Y84055D02*
X86171D01*
Y81889D01*
X88533D01*
Y84055D01*
D02*
G37*
G36*
Y87007D02*
X86171D01*
Y84842D01*
X88533D01*
Y87007D01*
D02*
G37*
G36*
X57087D02*
X54724D01*
Y84842D01*
X57087D01*
Y87007D01*
D02*
G37*
%LPD*%
D10*
X133618Y68898D02*
D03*
Y65748D02*
D03*
Y62599D02*
D03*
Y59449D02*
D03*
X126531Y68898D02*
D03*
Y65748D02*
D03*
Y62599D02*
D03*
Y59449D02*
D03*
X133618Y45374D02*
D03*
Y42224D02*
D03*
Y39075D02*
D03*
Y35925D02*
D03*
X126531Y45374D02*
D03*
Y42224D02*
D03*
Y39075D02*
D03*
Y35925D02*
D03*
D11*
X133366Y52461D02*
D03*
X126674D02*
D03*
X36023Y24508D02*
D03*
X29331D02*
D03*
X36023Y32854D02*
D03*
X29331D02*
D03*
X36023Y41201D02*
D03*
X29331D02*
D03*
X36023Y49547D02*
D03*
X29331D02*
D03*
Y57894D02*
D03*
X36023D02*
D03*
Y66240D02*
D03*
X29331D02*
D03*
D12*
X5906Y40551D02*
D03*
Y63779D02*
D03*
D13*
X14961Y42322D02*
D03*
Y62008D02*
D03*
D14*
X16929Y57283D02*
D03*
Y47047D02*
D03*
Y49606D02*
D03*
Y54724D02*
D03*
Y52165D02*
D03*
D15*
X97539Y84448D02*
D03*
Y77756D02*
D03*
X88927D02*
D03*
Y84448D02*
D03*
X80315D02*
D03*
Y77756D02*
D03*
X54331Y84448D02*
D03*
Y77756D02*
D03*
D16*
X71653Y84449D02*
D03*
Y77756D02*
D03*
X62992Y84449D02*
D03*
Y77756D02*
D03*
D17*
X68701Y52165D02*
D03*
D18*
X78248Y59055D02*
D03*
Y57086D02*
D03*
Y55118D02*
D03*
Y53149D02*
D03*
Y51181D02*
D03*
Y49213D02*
D03*
Y47244D02*
D03*
Y45276D02*
D03*
X59153D02*
D03*
Y47244D02*
D03*
Y49213D02*
D03*
Y51181D02*
D03*
Y53149D02*
D03*
Y55118D02*
D03*
Y57086D02*
D03*
Y59055D02*
D03*
D19*
X75590Y42618D02*
D03*
X73622D02*
D03*
X71653D02*
D03*
X69685D02*
D03*
X67716D02*
D03*
X65748D02*
D03*
X63779D02*
D03*
X61811D02*
D03*
Y61712D02*
D03*
X63779D02*
D03*
X65748D02*
D03*
X67716D02*
D03*
X69685D02*
D03*
X71653D02*
D03*
X73622D02*
D03*
X75590D02*
D03*
D20*
X129429Y79921D02*
D03*
X108169D02*
D03*
D21*
X109154Y21752D02*
D03*
X103248D02*
D03*
X123228D02*
D03*
X117322D02*
D03*
X137303D02*
D03*
X131397D02*
D03*
D22*
X56496Y28051D02*
D03*
X47834Y31791D02*
D03*
Y24311D02*
D03*
D23*
X126725Y65942D02*
X128839D01*
X85002Y49293D02*
X91358Y55650D01*
X126820Y62887D02*
X129337D01*
X67236Y7000D02*
Y40858D01*
X87575Y77854D02*
X89173D01*
X26367Y7000D02*
Y27086D01*
X50984Y51451D02*
X52683Y53149D01*
X61900Y33181D02*
X62992Y32089D01*
X54331Y77756D02*
X63161D01*
X126531Y45374D02*
X127165D01*
X126674Y52461D02*
X126772D01*
X126531Y59449D02*
X126629Y59350D01*
X128617Y57173D02*
X129299Y57855D01*
X124445Y57173D02*
X128617D01*
X126531Y62599D02*
X126820Y62887D01*
X129337Y62798D02*
Y62887D01*
X126531Y65748D02*
X126725Y65942D01*
X126531Y68854D02*
Y68898D01*
X47823Y31803D02*
Y44772D01*
Y31803D02*
X47834Y31791D01*
X114567Y21752D02*
X117322D01*
X75590Y61712D02*
X76181Y62303D01*
X71653Y61712D02*
Y65059D01*
X38416Y21358D02*
X44654D01*
X38404Y21346D02*
X38416Y21358D01*
X78248Y59055D02*
X79568D01*
X129299Y57855D02*
Y61626D01*
X80314Y84449D02*
X80315Y84448D01*
X36023Y32854D02*
Y41201D01*
Y24508D02*
Y32854D01*
X44666Y21347D02*
X51003D01*
X51586Y24224D02*
X55413Y28051D01*
X51586Y21930D02*
Y24224D01*
X51003Y21347D02*
X51586Y21930D01*
X55413Y28051D02*
X56496D01*
X44654Y21358D02*
X44666Y21347D01*
X141220Y44606D02*
X157047D01*
X133366Y52461D02*
X141220Y44606D01*
X16929Y52165D02*
X16941Y52153D01*
X53934Y49213D02*
X59153D01*
X52879Y48158D02*
X53934Y49213D01*
X42980Y48158D02*
X52879D01*
X36023Y41201D02*
X42980Y48158D01*
X26181Y44351D02*
X29331Y41201D01*
X95571Y82480D02*
X97539Y84448D01*
X93799Y82480D02*
X95571D01*
X67901Y74981D02*
X69685Y73198D01*
X67901Y80697D02*
X71653Y84449D01*
X67901Y74981D02*
Y80697D01*
X131397Y21752D02*
X142200Y10949D01*
X148636D01*
X152584Y7000D01*
X29331Y57894D02*
X30197D01*
X36023Y52067D01*
Y49547D02*
Y52067D01*
X97539Y84448D02*
X103642D01*
X108169Y79921D01*
X29331Y66240D02*
Y78012D01*
X30555Y79236D01*
X47823Y44772D02*
X49656Y46605D01*
X50790Y51645D02*
X50984Y51451D01*
X50790Y51645D02*
Y51774D01*
X36023Y49547D02*
X52303D01*
X53937Y51181D01*
X59153D01*
X36023Y46743D02*
Y49547D01*
X33059Y43779D02*
X36023Y46743D01*
X32493Y21346D02*
X38404D01*
X29331Y24508D02*
X32493Y21346D01*
X33059Y31039D02*
Y43779D01*
X26367Y7000D02*
X27000D01*
X36023Y24508D02*
X38386D01*
X26181Y44351D02*
Y50197D01*
X24201Y52153D02*
X24213Y52165D01*
X26181Y50197D01*
X103248Y21752D02*
X104527D01*
X57000Y7000D02*
X61415D01*
X47834Y31791D02*
X58890D01*
X122673Y60665D02*
X123763Y61756D01*
X123249Y59276D02*
X123422Y59449D01*
X126531D01*
X123733Y57886D02*
X124445Y57173D01*
X82911Y55118D02*
X83403Y55610D01*
X30555Y79236D02*
Y88590D01*
X35017Y93051D01*
X38636D01*
X32788Y69697D02*
X38109D01*
X29331Y66240D02*
X32788Y69697D01*
X40157Y66535D02*
Y67648D01*
X38109Y69697D02*
X40157Y67648D01*
X59153Y59055D02*
Y64081D01*
X57877Y65358D02*
X59153Y64081D01*
X62894Y63915D02*
Y71787D01*
X63779Y61712D02*
Y63030D01*
X62894Y63915D02*
X63779Y63030D01*
X61811Y61712D02*
Y63033D01*
X61024Y63820D02*
X61811Y63033D01*
X61024Y63820D02*
Y68898D01*
X58760Y71161D02*
X61024Y68898D01*
X55700Y59223D02*
X57836Y57086D01*
X59153D01*
X54310Y58644D02*
X57836Y55118D01*
X55700Y59223D02*
Y70875D01*
X51169Y75375D02*
X51753Y74792D01*
X51783D01*
X55700Y70875D01*
X49779Y74800D02*
X51177Y73402D01*
X51207D01*
X54310Y70300D01*
Y58644D02*
Y70300D01*
X61811Y41339D02*
Y42618D01*
X49779Y74800D02*
Y89779D01*
X51169Y75375D02*
Y89204D01*
X55016Y93051D01*
X63779Y37899D02*
Y42618D01*
X63484Y37603D02*
X63779Y37899D01*
X97539Y84448D02*
Y96460D01*
X57000Y95091D02*
Y97000D01*
X73622Y41301D02*
Y42618D01*
Y41301D02*
X74974Y39949D01*
X71653Y41301D02*
X74396Y38559D01*
X71653Y41301D02*
Y42618D01*
X99287Y12423D02*
X100686Y11024D01*
X113878D01*
X117000Y7000D02*
Y7902D01*
X100677Y12998D02*
X101261Y12413D01*
X121587D01*
X77000Y7000D02*
X81415D01*
X85364Y10949D01*
X100677Y12998D02*
Y28101D01*
X78248Y49213D02*
X79565D01*
X99287Y12423D02*
Y27526D01*
X78248Y47244D02*
X79568D01*
X78248Y45276D02*
X79572D01*
X96507Y7492D02*
Y26374D01*
X75590Y42618D02*
X80264D01*
X79565Y49213D02*
X100677Y28101D01*
X79568Y47244D02*
X99287Y27526D01*
X79572Y45276D02*
X97897Y26950D01*
X80264Y42618D02*
X96507Y26374D01*
X74974Y39949D02*
X80967D01*
X95118Y25799D01*
X74396Y38559D02*
X80392D01*
X93728Y25223D01*
X78087Y37169D02*
X79331Y35925D01*
X50000Y39902D02*
Y43406D01*
Y39902D02*
X56721Y33181D01*
X59153Y39665D02*
Y45276D01*
X59055Y39567D02*
X59153Y39665D01*
X59055Y39370D02*
Y39567D01*
Y35433D02*
X59544D01*
X61307Y40835D02*
X61811Y41339D01*
X59544Y35433D02*
X61307Y37196D01*
Y40835D01*
X62992Y32089D02*
Y32480D01*
X58890Y31791D02*
X60248Y30432D01*
X56721Y33181D02*
X61900D01*
X73820Y37169D02*
X78087D01*
X69685Y41304D02*
Y42618D01*
Y41304D02*
X70165Y40824D01*
Y40821D02*
Y40824D01*
Y40821D02*
X71037Y39949D01*
X71040D01*
X73820Y37169D01*
X67000Y7000D02*
X67236D01*
Y40858D02*
X67716Y41339D01*
Y42618D01*
X65748Y11333D02*
Y42618D01*
X61415Y7000D02*
X65748Y11333D01*
X47000Y7000D02*
X60248Y20248D01*
Y30432D01*
X57836Y55118D02*
X59153D01*
X52683Y53149D02*
X59153D01*
X54134Y47244D02*
X59153D01*
X49656Y46605D02*
X53494D01*
X54134Y47244D01*
X79568Y59055D02*
X79789Y59276D01*
X79323Y51181D02*
X79803Y50701D01*
X78248Y51181D02*
X79323D01*
X97897Y11847D02*
Y26950D01*
Y11847D02*
X100110Y9634D01*
X104366D01*
X87000Y7000D02*
X89559Y9559D01*
X93217D01*
X95118Y11459D01*
Y25799D01*
X128746Y65850D02*
X128839Y65942D01*
X89173Y77854D02*
X93799Y82480D01*
X80984Y63803D02*
X82732Y62055D01*
X85002Y47276D02*
Y49293D01*
X102066Y22933D02*
Y28677D01*
Y22933D02*
X103248Y21752D01*
X67716Y61712D02*
Y63878D01*
X68295Y64457D01*
Y72622D01*
X69685Y61712D02*
Y73198D01*
X71653Y65059D02*
X71949Y65354D01*
X73622Y61712D02*
Y63902D01*
X76181Y62303D02*
X76181D01*
X78744Y64078D02*
X82157Y60665D01*
X73622Y63902D02*
X87575Y77854D01*
X80984Y63803D02*
Y67264D01*
X27000Y80709D02*
X29165Y82874D01*
Y89165D01*
X133618Y68898D02*
X136023D01*
X140315Y64606D01*
X157047D01*
X144488Y54606D02*
X157047D01*
X133618Y62599D02*
X136496D01*
X144488Y54606D01*
X133618Y59449D02*
X137680D01*
X147047Y49606D02*
Y50082D01*
X137680Y59449D02*
X147047Y50082D01*
X133618Y65748D02*
X136338D01*
X142480Y59606D01*
X147047D01*
X133618Y45374D02*
X138488D01*
X144255Y39606D01*
X147047D01*
X123763Y61756D02*
Y65240D01*
X124272Y65748D01*
X126531D01*
X78248Y57086D02*
X81417D01*
X82217Y57886D01*
X79803Y50701D02*
X82389D01*
X87301Y55613D01*
X78248Y55118D02*
X82911D01*
X16941Y52153D02*
X24201D01*
X16929Y54724D02*
X24154D01*
X29331Y49547D01*
X55016Y93051D02*
X63051D01*
X38636D02*
X42584Y97000D01*
X113878Y11024D02*
X117000Y7902D01*
X96507Y7492D02*
X97000Y7000D01*
X152584D02*
X157000D01*
X121587Y12413D02*
X127000Y7000D01*
X104366Y9634D02*
X107000Y7000D01*
X71653Y84449D02*
X80314D01*
X63161Y77756D02*
X68295Y72622D01*
X97000Y97000D02*
X97539Y96460D01*
X63051Y93051D02*
X67000Y97000D01*
X29165Y89165D02*
X37000Y97000D01*
X49779Y89779D02*
X57000Y97000D01*
X42584D02*
X47000D01*
X85364Y10949D02*
X92642D01*
X93728Y12035D01*
Y25223D01*
X123500Y17000D02*
Y17862D01*
X124638Y19000D01*
X128645D01*
X131397Y21752D01*
X82732Y62055D02*
X94161D01*
X95098Y62992D01*
X82157Y60665D02*
X122673D01*
X79789Y59276D02*
X123249D01*
X82217Y57886D02*
X123733D01*
X124086Y47819D02*
X126531Y45374D01*
X112996Y47819D02*
X124086D01*
X112008Y46831D02*
X112996Y47819D01*
X123422Y49209D02*
X126674Y52461D01*
X111307Y49209D02*
X123422D01*
X109488Y49823D02*
X110693D01*
X111307Y49209D01*
X96000Y55685D02*
X96004Y55689D01*
X96000Y34743D02*
X102066Y28677D01*
X96000Y34743D02*
Y55685D01*
X26367Y27086D02*
X28119Y28839D01*
X30858D01*
X33059Y31039D01*
D24*
X47441Y24311D02*
X47834D01*
X137303Y21752D02*
Y31750D01*
X138366Y32812D01*
X129328Y24520D02*
X132394D01*
X126560Y21752D02*
X129328Y24520D01*
X135275Y27401D02*
Y32244D01*
X136582Y33551D01*
X132394Y24520D02*
X135275Y27401D01*
X133492Y35799D02*
X133618Y35925D01*
X133492Y28140D02*
Y35799D01*
X109154Y21752D02*
X112008Y24606D01*
X126892D01*
X128589Y26303D01*
X131655D01*
X133492Y28140D01*
X123228Y21752D02*
X126560D01*
X65748Y61712D02*
Y64143D01*
X65539Y64352D02*
X65748Y64143D01*
X133618Y42224D02*
X136043D01*
X138366Y39902D01*
Y32812D02*
Y39902D01*
X133618Y39075D02*
X135866D01*
X136582Y38359D01*
Y33551D02*
Y38359D01*
X78248Y53149D02*
X80679D01*
X80888Y52941D01*
D25*
X126531Y35925D02*
Y39075D01*
Y42224D01*
X126334Y42421D02*
X126531Y42224D01*
X121850Y42421D02*
X126334D01*
X16929Y57283D02*
X17164Y57518D01*
X21394D02*
X21458Y57582D01*
X17164Y57518D02*
X21394D01*
X34744Y67520D02*
X36023Y66240D01*
X89448Y69665D02*
X97539Y77756D01*
X84606Y69665D02*
X89448D01*
D26*
X157047Y64606D02*
D03*
Y54606D02*
D03*
X147047Y49606D02*
D03*
X157047Y44606D02*
D03*
Y34606D02*
D03*
X147047Y69606D02*
D03*
Y39606D02*
D03*
Y59606D02*
D03*
X17000Y80709D02*
D03*
X7000D02*
D03*
X27000D02*
D03*
D27*
X157000Y7000D02*
D03*
Y97000D02*
D03*
D28*
X147000Y7000D02*
D03*
X127000D02*
D03*
X87000D02*
D03*
X137000D02*
D03*
X117000D02*
D03*
X107000D02*
D03*
X77000D02*
D03*
X97000D02*
D03*
X67000D02*
D03*
X57000D02*
D03*
X37000D02*
D03*
X47000D02*
D03*
X27000D02*
D03*
X17000D02*
D03*
X7000D02*
D03*
X147000Y97000D02*
D03*
X127000D02*
D03*
X87000D02*
D03*
X137000D02*
D03*
X117000D02*
D03*
X107000D02*
D03*
X77000D02*
D03*
X97000D02*
D03*
X67000D02*
D03*
X57000D02*
D03*
X37000D02*
D03*
X47000D02*
D03*
X27000D02*
D03*
X17000D02*
D03*
X7000D02*
D03*
D29*
X66535Y89862D02*
D03*
X62992Y84449D02*
D03*
X57284Y89468D02*
D03*
X61811Y89961D02*
D03*
X73032Y52165D02*
D03*
X68701Y47835D02*
D03*
X73032D02*
D03*
X64370D02*
D03*
Y52165D02*
D03*
X68701D02*
D03*
X64370Y56496D02*
D03*
X68701D02*
D03*
X73032D02*
D03*
X127165Y45374D02*
D03*
X126772Y52461D02*
D03*
X126629Y59350D02*
D03*
X129337Y62798D02*
D03*
X126531Y68854D02*
D03*
X50000Y43406D02*
D03*
X114567Y21752D02*
D03*
X47441Y24311D02*
D03*
X50790Y51774D02*
D03*
X58760Y71161D02*
D03*
X62894Y71787D02*
D03*
X38386Y24508D02*
D03*
X83403Y55613D02*
D03*
X104527Y21752D02*
D03*
X23917Y48720D02*
D03*
Y44423D02*
D03*
Y40125D02*
D03*
Y35827D02*
D03*
X48622Y56102D02*
D03*
Y61024D02*
D03*
X43701D02*
D03*
Y56102D02*
D03*
X34744Y67520D02*
D03*
X40157Y66535D02*
D03*
X57877Y65358D02*
D03*
X13681Y68799D02*
D03*
Y73721D02*
D03*
X18602D02*
D03*
Y68799D02*
D03*
X79331Y35925D02*
D03*
X59055Y39370D02*
D03*
Y35433D02*
D03*
X63484Y37603D02*
D03*
X62992Y32480D02*
D03*
X128746Y65850D02*
D03*
X85002Y47276D02*
D03*
X91200Y55613D02*
D03*
X95098Y62992D02*
D03*
X65539Y64352D02*
D03*
X71949Y65354D02*
D03*
X76181Y62303D02*
D03*
X78744Y64078D02*
D03*
X80984Y67264D02*
D03*
X87301Y55613D02*
D03*
X80888Y52941D02*
D03*
X54331Y84448D02*
D03*
X71653Y77756D02*
D03*
X80315Y77756D02*
D03*
X147638Y82677D02*
D03*
Y88583D02*
D03*
X153543D02*
D03*
Y82677D02*
D03*
X147638Y21654D02*
D03*
X153543D02*
D03*
Y15748D02*
D03*
X147638D02*
D03*
X122047Y84646D02*
D03*
Y74803D02*
D03*
X116142D02*
D03*
Y84646D02*
D03*
X91929Y94193D02*
D03*
X91831Y89370D02*
D03*
X76772Y72835D02*
D03*
X39370Y86614D02*
D03*
X45276D02*
D03*
Y81693D02*
D03*
Y76772D02*
D03*
X39370D02*
D03*
Y81693D02*
D03*
X11811Y23622D02*
D03*
Y17717D02*
D03*
X5906D02*
D03*
Y23622D02*
D03*
X24409Y60827D02*
D03*
X123500Y17000D02*
D03*
X96004Y55689D02*
D03*
X112008Y46831D02*
D03*
X109488Y49823D02*
D03*
X91535Y84350D02*
D03*
D30*
X121850Y42421D02*
D03*
X21458Y57582D02*
D03*
X84606Y69665D02*
D03*
M02*
