M48
;Layer_Color=9474304
;FILE_FORMAT=2:5
INCH,TZ
;TYPE=PLATED
T1F00S00C0.01181
T2F00S00C0.01968
T3F00S00C0.03150
T4F00S00C0.03543
;TYPE=NON_PLATED
T5F00S00C0.05906
%
T01
X5906Y17717
Y23622
X11811
Y17717
X23917Y35827
Y40125
Y44423
Y48720
X24409Y60827
X18602Y68799
Y73721
X13681
Y68799
X34744Y67520
X40157Y66535
X43701Y61024
Y56102
X48622
Y61024
X50790Y51774
X50000Y43406
X59055Y39370
Y35433
X63484Y37603
X62992Y32480
X64370Y47835
Y52165
X68701
Y47835
X73032
Y52165
Y56496
X68701
X64370
X65539Y64352
X71949Y65354
X76181Y62303
X78744Y64078
X80984Y67264
X76772Y72835
X80315Y77756
X71653Y77756
X62894Y71787
X58760Y71161
X57877Y65358
X54331Y84448
X57284Y89468
X61811Y89961
X66535Y89862
X62992Y84449
X45276Y86614
Y81693
Y76772
X39370
Y81693
Y86614
X91535Y84350
X91831Y89370
X91929Y94193
X95098Y62992
X96004Y55689
X91200Y55613
X87301
X83403
X80888Y52941
X85002Y47276
X79331Y35925
X104527Y21752
X109488Y49823
X47441Y24311
X38386Y24508
X114567Y21752
X123500Y17000
X147638Y15748
X153543
Y21654
X147638
X127165Y45374
X126772Y52461
X126629Y59350
X129337Y62798
X128746Y65850
X126531Y68854
X122047Y74803
X116142
Y84646
X122047
X147638Y82677
X153543
Y88583
X147638
X112008Y46831
T02
X21458Y57582
X84606Y69665
X121850Y42421
T03
X7000Y80709
X17000
X27000
X147047Y69606
Y59606
Y49606
Y39606
X157047Y34606
Y44606
Y54606
Y64606
T04
X7000Y7000
X17000
X27000
X37000
X47000
X57000
X67000
X77000
X87000
X97000
X107000
Y97000
X97000
X87000
X77000
X67000
X57000
X47000
X37000
X27000
X17000
X7000
X117000
X127000
X137000
X147000
X157000
Y7000
X147000
X137000
X127000
X117000
T05
X149961Y29094
M30
